<svg width="86" height="76" viewBox="0 0 86 76" fill="none" xmlns="http://www.w3.org/2000/svg">
<path d="M2.18915 32.475C4.31211 21.7561 8.51375 17.5482 17.2698 10.7343C31.1585 -0.0736248 46.3146 -3.34001 62.5117 3.79576C73.7141 8.73107 78.2932 15.2788 82.5859 26.5011C88.692 42.4645 87.1245 59.6417 73.6594 70.5129C62.2259 79.7438 49.8055 75.1371 35.2228 72.4025C22.1397 69.9492 9.33702 65.9944 3.592 59.6989C-2.15303 53.4035 0.258336 42.2238 2.18915 32.475Z" fill="#D1FF17"/>
<path d="M71.2433 57.8813C74.8433 53.0813 73.7433 49.548 72.7433 48.3813C70.9099 50.7147 66.6433 56.4813 64.2433 60.8813C61.2433 66.3813 66.7433 63.8813 71.2433 57.8813Z" fill="#FAFFE8"/>
<path d="M44.102 26.5685C43.9364 28.6717 44.0335 30.7883 44.3126 32.8804C45.8338 44.2844 50.8842 34.266 48.9439 24.5697" stroke="#141414" stroke-width="2" stroke-linecap="round" stroke-linejoin="round"/>
<path d="M51.0137 23.0755C52.7738 21.9241 64.8365 13.4218 65.71 17.7868C66.6591 22.5296 56.9809 27.2187 54.4871 30.3341C49.0136 37.1722 50.1612 49.0865 53.2239 56.7392" stroke="#141414" stroke-width="2" stroke-linecap="round" stroke-linejoin="round"/>
<path d="M41.6447 33.4901C37.0265 40.2541 34.0598 47.7238 32.4873 55.5819" stroke="#141414" stroke-width="2" stroke-linecap="round" stroke-linejoin="round"/>
<path d="M41.4348 46.64C43.5424 44.7148 48.8962 46.2511 47.645 49.5856C46.8364 51.7404 44.6081 53.8993 42.9084 55.3715C42.3042 55.8948 41.557 56.4378 40.8031 56.7391C40.6277 56.8093 40.1433 56.8161 40.2768 56.9496C40.5798 57.2523 48.1021 54.9896 48.4871 56.5289C48.662 57.2287 42.965 58.916 42.2769 59.0536C38.6994 59.7686 34.4346 59.6494 31.3299 57.5807C30.6406 57.1215 30.4197 56.0625 29.8562 55.6873C29.7868 55.641 23.8764 59.5914 21.2251 58.0016" stroke="#141414" stroke-width="2" stroke-linecap="round" stroke-linejoin="round"/>
<path d="M52.5132 24.1287C52.6109 24.4373 52.8586 24.6772 53.0626 24.9218" stroke="#141414" stroke-width="2" stroke-linecap="round" stroke-linejoin="round"/>
<path d="M64.5458 17.6632C68.364 17.1738 61.3061 20.8163 64.2913 17.8328" stroke="#141414" stroke-width="2" stroke-linecap="round" stroke-linejoin="round"/>
</svg>
