<svg width="86" height="77" viewBox="0 0 86 77" fill="none" xmlns="http://www.w3.org/2000/svg">
<path d="M2.18915 32.9281C4.31211 22.2093 8.51375 18.0013 17.2698 11.1875C31.1585 0.3795 46.3146 -2.88688 62.5117 4.24888C73.7141 9.18419 78.2932 15.732 82.5859 26.9543C88.692 42.9176 87.1245 60.0949 73.6594 70.966C62.2259 80.1969 49.8055 75.5902 35.2228 72.8557C22.1397 70.4023 9.33702 66.4475 3.592 60.152C-2.15303 53.8566 0.258336 42.6769 2.18915 32.9281Z" fill="#FFF2B9"/>
<path d="M51.0504 23.1732C55.5674 20.9507 55.1171 27.2822 52.0646 28.1641C49.641 28.8642 49.3808 25.2508 50.1038 23.7885" stroke="#141414" stroke-width="2" stroke-linecap="round" stroke-linejoin="round"/>
<path d="M50.3288 29.603C50.5127 32.9984 49.4502 39.7627 49.4502 43.103" stroke="#141414" stroke-width="2" stroke-linecap="round" stroke-linejoin="round"/>
<path d="M53.7998 29.9031C53.927 32.4016 53.9498 36.0946 53.9498 38.6031" stroke="#141414" stroke-width="2" stroke-linecap="round" stroke-linejoin="round"/>
<path d="M50.35 29.6032C48.4752 29.1599 44.3972 28.9668 43 27.5032" stroke="#141414" stroke-width="2" stroke-linecap="round" stroke-linejoin="round"/>
<path d="M53.7998 29.9031C54.9133 30.9625 55.8188 34.1359 56.4998 35.4531" stroke="#141414" stroke-width="2" stroke-linecap="round" stroke-linejoin="round"/>
<path d="M63.6078 35.0621C65.3825 31.0493 69.7405 34.6532 66.8575 37.6694C64.574 40.0585 62.9141 37.1849 63.6801 35.1945" stroke="#141414" stroke-width="2" stroke-linecap="round" stroke-linejoin="round"/>
<path d="M66.5499 39.6531C66.4251 40.5397 66.4138 41.4285 66.3318 42.3184C66.2587 43.1119 66.5041 44.0062 66.3318 44.7863C65.9777 46.3889 61.3448 44.3644 61.2058 44.4903C59.7777 45.7829 60.7481 49.5424 60.4423 51.2031" stroke="#141414" stroke-width="2" stroke-linecap="round" stroke-linejoin="round"/>
<path d="M66.5501 39.6531C64.8576 40.7127 61.9753 42.9135 60.8501 44.4531" stroke="#141414" stroke-width="2" stroke-linecap="round" stroke-linejoin="round"/>
<path d="M38.404 39.2088C42.5565 36.4687 44.3854 43.8717 39.3533 44.5841C36.9307 44.9271 36.8202 40.507 38.1452 39.3065" stroke="#141414" stroke-width="2" stroke-linecap="round" stroke-linejoin="round"/>
<path d="M40.7501 46.2532C35.2898 46.2532 36.5006 47.2346 37 52.8532" stroke="#808080" stroke-width="2" stroke-linecap="round" stroke-linejoin="round"/>
<path d="M41.0516 47.603C41.0309 48.9612 41.1998 50.3044 41.1998 51.653" stroke="#808080" stroke-width="2" stroke-linecap="round" stroke-linejoin="round"/>
<path d="M37.8999 53.6031C39.6368 53.2343 41.2949 52.7141 42.9999 52.4031" stroke="#808080" stroke-width="2" stroke-linecap="round" stroke-linejoin="round"/>
<path d="M39.5498 54.6531C39.5498 55.4531 39.5498 56.2531 39.5498 57.0531" stroke="#141414" stroke-width="2" stroke-linecap="round" stroke-linejoin="round"/>
<path d="M41.1999 57.5032C40.1078 57.5122 38.9517 57.5321 37.8999 57.6532" stroke="#141414" stroke-width="2" stroke-linecap="round" stroke-linejoin="round"/>
<path d="M22.0047 37.8889C24.7809 33.9576 30.0522 39.3765 25.8049 41.9609C22.5946 43.9142 21.1545 40.1431 22.5066 37.7436" stroke="#141414" stroke-width="2" stroke-linecap="round" stroke-linejoin="round"/>
<path d="M24.25 44.7532C24.3503 46.204 24.4214 47.6436 24.4214 49.1018C24.4214 50.8125 29.351 47.1692 30.0829 48.4061C30.7423 49.5205 30.2319 52.4047 29.8256 53.5377C29.6471 54.0349 29.8256 54.6635 29.5683 55.1032" stroke="#141414" stroke-width="2" stroke-linecap="round" stroke-linejoin="round"/>
<path d="M52.6704 40.2102C56.2776 37.947 58.28 43.1744 54.9602 45.2492C51.4363 47.4518 50.558 42.5218 52.1934 40.3072" stroke="#141414" stroke-width="2" stroke-linecap="round" stroke-linejoin="round"/>
<path d="M56.6499 47.3206C49.4568 45.9135 51.7463 49.3322 51.7463 54.6532" stroke="#808080" stroke-width="2" stroke-linecap="round" stroke-linejoin="round"/>
<path d="M56.8166 47.7532C56.5529 48.8513 57.3652 53.4121 56.6419 54.3741C56.1313 55.0534 53.2476 54.7227 52.4502 54.7227" stroke="#808080" stroke-width="2" stroke-linecap="round" stroke-linejoin="round"/>
<path d="M55.4501 59.8762C52.1205 60.8075 51.2402 59.4531 55.3622 59.4531" stroke="#141414" stroke-width="2" stroke-linecap="round" stroke-linejoin="round"/>
<path d="M54.0709 56.3032C54.1618 57.2548 54.0183 59.3094 53.9502 59.6032" stroke="#141414" stroke-width="2" stroke-linecap="round" stroke-linejoin="round"/>
<path d="M64.8806 46.853C64.9905 48.4288 64.6001 50.0853 64.6001 51.653" stroke="#141414" stroke-width="2" stroke-linecap="round" stroke-linejoin="round"/>
<path d="M65.9499 51.6531C64.6946 51.8611 63.8039 52.076 62.6499 51.8689" stroke="#141414" stroke-width="2" stroke-linecap="round" stroke-linejoin="round"/>
<path d="M25.2998 50.3032C25.2998 51.7033 25.2998 53.1033 25.2998 54.5032" stroke="#141414" stroke-width="2" stroke-linecap="round" stroke-linejoin="round"/>
<path d="M27.1001 55.2532C25.6017 55.5907 24.0734 55.2532 22.6001 55.2532" stroke="#141414" stroke-width="2" stroke-linecap="round" stroke-linejoin="round"/>
<path d="M18.2923 45.3532C17.632 37.5745 16.2493 20.0392 17.6641 17.2811C35.4213 15.8465 46.8664 16.9117 47.6003 17.2811C47.6526 19.2014 48.0998 35.544 48.0998 38.2569C46.7218 38.5882 45.3436 38.9195 43.9656 39.2508" stroke="#808080" stroke-width="2" stroke-linecap="round" stroke-linejoin="round"/>
<path d="M27.8267 33.2865C28.2372 31.249 28.3137 30.8017 28.5985 30.367C29.7435 28.6191 30.5874 30.512 31.2587 31.6235C31.3915 31.8434 31.5293 32.0785 31.6493 32.3064C31.6904 32.3846 31.6717 32.5848 31.7529 32.5502C31.8182 32.5224 31.7001 32.4158 31.6944 32.3448C31.6677 32.0134 31.6149 31.6749 31.6137 31.3428C31.6099 30.3126 32.7902 27.0903 34.3123 27.3438C35.3368 27.5144 35.9577 29.6557 36.1133 30.4344C36.1934 30.8351 36.4169 32.0385 36.3775 31.6316C36.1557 29.3368 36.1263 26.3021 40.0285 23.764" stroke="#141414" stroke-width="2" stroke-linecap="round" stroke-linejoin="round"/>
<path d="M38.2943 23.8409C41.0706 23.7939 40.0247 22.7126 39.7733 25.5242" stroke="#141414" stroke-width="2" stroke-linecap="round" stroke-linejoin="round"/>
<path d="M35.6501 41.0032C32.844 41.6113 30.2817 42.2623 26.3501 43.1032" stroke="#808080" stroke-width="2" stroke-linecap="round" stroke-linejoin="round"/>
<path d="M21.25 44.4531C19.8288 44.8427 19.1419 45.0259 18.25 45.3531" stroke="#808080" stroke-width="2" stroke-linecap="round" stroke-linejoin="round"/>
<path d="M24.25 44.4531C24.935 46.3338 26.7365 47.7531 28.6 47.7531" stroke="#141414" stroke-width="2" stroke-linecap="round" stroke-linejoin="round"/>
<path d="M42.3999 52.103C44.636 52.158 44.3365 55.7835 44.3365 57.053" stroke="#141414" stroke-width="2" stroke-linecap="round" stroke-linejoin="round"/>
<path d="M68.1998 39.5032C66.6309 48.5512 68.2112 45.3867 61.2998 46.5532" stroke="#808080" stroke-width="2" stroke-linecap="round" stroke-linejoin="round"/>
<path d="M23.0498 44.9031C23.8548 51.881 22.0121 49.6706 25.5998 49.6706" stroke="#808080" stroke-width="2" stroke-linecap="round" stroke-linejoin="round"/>
</svg>
