<svg width="86" height="77" viewBox="0 0 86 77" fill="none" xmlns="http://www.w3.org/2000/svg">
<path d="M2.18915 33.2016C4.31211 22.4827 8.51375 18.2748 17.2698 11.4609C31.1585 0.652938 46.3146 -2.61345 62.5117 4.52232C73.7141 9.45763 78.2932 16.0054 82.5859 27.2277C88.692 43.191 87.1245 60.3683 73.6594 71.2394C62.2259 80.4704 49.8055 75.8636 35.2228 73.1291C22.1397 70.6758 9.33702 66.7209 3.592 60.4255C-2.15303 54.13 0.258336 42.9503 2.18915 33.2016Z" fill="#FF99FF"/>
<path d="M36.3999 40.8267C43.1812 43.567 47.8555 45.2113 55.4499 46.5267" stroke="#808080" stroke-width="2" stroke-linecap="round" stroke-linejoin="round"/>
<path d="M57.3057 43.5273C53.5213 49.4762 58.0511 51.7922 60.1393 43.5501" stroke="#141414" stroke-width="2" stroke-linecap="round" stroke-linejoin="round"/>
<path d="M60.0876 44.6449C61.0356 44.4765 65.4997 46.1772 65.4997 47.3783C65.4997 50.7952 61.5337 49.0805 59.1908 48.7115C59.1908 50.8299 58.1137 51.7835 57.5269 52.9871C57.5263 53.8845 61.501 54.5353 62.3571 57.4468" stroke="#141414" stroke-width="2" stroke-linecap="round" stroke-linejoin="round"/>
<path d="M57.3374 53.1755C56.949 55.0511 56.2454 58.6332 56.7591 58.8704" stroke="#141414" stroke-width="2" stroke-linecap="round" stroke-linejoin="round"/>
<path d="M53.8476 47.2176C49.8916 47.1539 41.6984 48.482 37.4272 45.9193" stroke="#141414" stroke-width="2" stroke-linecap="round" stroke-linejoin="round"/>
<path d="M43.225 47.4453C43.225 54.7315 39.7158 51.2525 39.7158 58.7356" stroke="#141414" stroke-width="2" stroke-linecap="round" stroke-linejoin="round"/>
<path d="M22.3205 20.0913C27.5346 15.7614 31.7669 22.0021 27.4763 26.2347C25.2463 28.4345 20.6758 26.4825 21.1088 23.1513C21.1853 22.563 21.517 22.0587 21.7455 21.5312" stroke="#141414" stroke-width="2" stroke-linecap="round" stroke-linejoin="round"/>
<path d="M25.7588 30.3799C26.3429 38.2984 28.9703 48.955 27.5467 58.3701" stroke="#141414" stroke-width="2" stroke-linecap="round" stroke-linejoin="round"/>
<path d="M27.6245 58.4485C28.1051 58.4354 28.8968 58.2789 29.745 58.4485" stroke="#141414" stroke-width="2" stroke-linecap="round" stroke-linejoin="round"/>
<path d="M27.1159 42.594C27.1159 49.3791 25.4495 50.9925 20.5 56.3346" stroke="#141414" stroke-width="2" stroke-linecap="round" stroke-linejoin="round"/>
<path d="M20.5 56.3345C20.9815 57.266 21.5313 57.2819 22.0267 57.8612" stroke="#141414" stroke-width="2" stroke-linecap="round" stroke-linejoin="round"/>
<path d="M25.4199 30.1699C24.694 32.7414 21.3281 41.1336 23.3878 44.7038" stroke="#141414" stroke-width="2" stroke-linecap="round" stroke-linejoin="round"/>
<path d="M25.75 30.1765C28.3554 32.6791 31.6349 40.8265 36.4 40.8265" stroke="#141414" stroke-width="2" stroke-linecap="round" stroke-linejoin="round"/>
</svg>
