<svg width="86" height="77" viewBox="0 0 86 77" fill="none" xmlns="http://www.w3.org/2000/svg">
<path d="M2.18915 32.9281C4.31211 22.2093 8.51375 18.0013 17.2698 11.1875C31.1585 0.3795 46.3146 -2.88688 62.5117 4.24888C73.7141 9.18419 78.2932 15.732 82.5859 26.9543C88.692 42.9176 87.1245 60.0949 73.6594 70.966C62.2259 80.1969 49.8055 75.5902 35.2228 72.8557C22.1397 70.4023 9.33702 66.4475 3.592 60.152C-2.15303 53.8566 0.258336 42.6769 2.18915 32.9281Z" fill="#C1F5DA"/>
<path d="M35.9917 19.5046C38.1956 17.7095 42.0011 16.8183 44.8962 17.9675C54.243 21.6775 49.1315 34.162 39.7645 32.9225C33.4508 32.0874 33.7986 20.6151 38.7084 18.6661" stroke="#141414" stroke-width="2" stroke-linecap="round" stroke-linejoin="round"/>
<path d="M56.574 58.5025C56.5199 58.4071 56.4648 58.3113 56.4231 58.2104C56.3177 57.9571 56.2036 57.7055 56.1213 57.4442C55.1267 54.297 53.749 51.3086 52.3668 48.3185C51.6999 46.8765 51.1566 45.3775 50.5582 43.904C50.5168 43.8024 50.4872 43.6966 50.4469 43.5944C49.637 41.5335 50.0827 41.726 47.6085 41.7545C46.4537 41.7679 45.3003 41.9134 44.1462 41.9955C43.5419 42.038 42.9376 42.0847 42.333 42.1074C40.4606 42.1774 38.5878 42.2354 36.7158 42.3017C36.496 42.3096 36.2762 42.3356 36.0581 42.3641" stroke="#808080" stroke-width="2" stroke-linecap="round" stroke-linejoin="round"/>
<path d="M53.6432 59.4532C51.9903 59.3641 30.6506 59.2299 29.9905 59.1989C29.5421 59.1772 29.2559 58.815 29.3536 58.424C29.8469 56.45 30.2094 54.4419 30.8498 52.5065C31.232 51.3529 33.2987 44.5603 33.5604 43.3792" stroke="#808080" stroke-width="2" stroke-linecap="round" stroke-linejoin="round"/>
<path d="M47.3722 49.6725C47.5441 49.7066 47.6779 50.0607 47.5709 50.1997C47.2246 50.6494 46.7949 50.8132 46.286 50.6725C46.0234 50.5994 45.7733 50.4773 45.5076 50.4257C45.3608 50.3969 45.1679 50.428 45.0409 50.5034C44.8089 50.6401 44.5972 50.8162 44.4009 50.9998C43.9317 51.4396 43.4303 51.3999 42.8885 51.1477C42.1911 50.8238 41.5435 50.4488 41.0236 49.8734C40.7123 49.5286 40.1969 49.5176 39.8382 49.8042C39.5874 50.0054 39.3753 50.2513 39.1423 50.4737C38.7939 50.8066 38.4494 51.1431 38.0863 51.4605C38.0262 51.5131 37.854 51.5157 37.7822 51.4704" stroke="#808080" stroke-width="2" stroke-linecap="round" stroke-linejoin="round"/>
<path d="M35.0598 41.3952C34.967 40.9696 34.5696 39.2343 34.4331 38.8237C33.9125 37.2604 33.5959 35.6539 33.3182 34.0337C33.1436 33.0125 32.9931 31.9793 32.5762 31.016C32.5598 30.9783 32.5053 30.9372 32.466 30.9348C32.4162 30.9321 32.3466 30.9516 32.3156 30.9879C32.2098 31.1116 32.0931 31.235 32.0242 31.3796C30.8192 33.8942 29.6225 36.413 28.4202 38.9282C28.2394 39.3069 28.2708 39.6708 28.4571 40.0296C28.6089 40.3209 28.7566 40.6149 28.9323 40.8911C29.7825 42.229 30.6395 43.5627 31.4982 44.8954C31.7052 45.2165 36.338 50.6855 36.5751 50.984" stroke="#141414" stroke-width="2" stroke-linecap="round" stroke-linejoin="round"/>
<path d="M48.0674 40.7864C48.9054 35.8605 51.2873 30.9346 51.2873 30.9346" stroke="#141414" stroke-width="2" stroke-linecap="round" stroke-linejoin="round"/>
<path d="M51.2871 30.9346C51.618 30.9248 57.6081 37.5687 57.6081 38.626C57.6081 39.6833 53.644 46.6245 53.4704 47.1414C53.343 47.5216 52.9191 48.9594 52.6252 49.2556" stroke="#141414" stroke-width="2" stroke-linecap="round" stroke-linejoin="round"/>
<path d="M36.0581 46.6631L37.0925 52.1939" stroke="#141414" stroke-width="2" stroke-linecap="round" stroke-linejoin="round"/>
</svg>
