<svg width="86" height="77" viewBox="0 0 86 77" fill="none" xmlns="http://www.w3.org/2000/svg">
<path d="M2.18915 32.9281C4.31211 22.2093 8.51375 18.0013 17.2698 11.1875C31.1585 0.3795 46.3146 -2.88688 62.5117 4.24888C73.7141 9.18419 78.2932 15.732 82.5859 26.9543C88.692 42.9176 87.1245 60.0949 73.6594 70.966C62.2259 80.1969 49.8055 75.5902 35.2228 72.8557C22.1397 70.4023 9.33702 66.4475 3.592 60.152C-2.15303 53.8566 0.258336 42.6769 2.18915 32.9281Z" fill="#FEBCC2"/>
<path d="M50.4496 45.8614C55.9733 39.7936 66.8983 46.4375 62.0746 54.1706C56.6739 62.8291 47.8406 57.9089 49.52 48.6574" stroke="#141414" stroke-width="2" stroke-linecap="round" stroke-linejoin="round"/>
<path d="M22.7537 48.3752C22.7537 47.7612 24.1802 45.0295 27.0636 43.7677C32.6356 41.3293 39.2573 46.918 36.6272 53.1501C32.8046 62.2079 23.2808 59.3191 22.6001 50.3319" stroke="#141414" stroke-width="2" stroke-linecap="round" stroke-linejoin="round"/>
<path d="M48.2964 39.4068C45.8241 40.0345 40.4511 38.0759 38.3531 39.6381C36.3487 41.1315 34.9806 45.3102 33.3821 47.3505C33.1155 47.6907 29.8015 50.8768 29.8864 51.1294C29.9503 51.3206 37.3856 50.9757 37.8098 50.9757C38.2252 50.9757 41.3816 51.2852 41.7715 50.8981C43.6708 49.0123 52.648 33.7801 54.9769 37.9415" stroke="#141414" stroke-width="2" stroke-linecap="round" stroke-linejoin="round"/>
<path d="M49.311 41.0693C51.3436 44.5128 52.5868 49.1814 55.5841 51.7942" stroke="#141414" stroke-width="2" stroke-linecap="round" stroke-linejoin="round"/>
<path d="M41.9238 49.9447C43.1027 54.1745 33.7248 51.7744 33.5567 51.2383C33.2804 50.3567 35.0269 50.2089 35.8392 49.8641C37.2534 49.2628 40.1286 49.7141 40.9349 50.026" stroke="#141414" stroke-width="2" stroke-linecap="round" stroke-linejoin="round"/>
<path d="M34.3364 34.594C38.6598 39.026 39.442 43.8583 38.3398 49.1636" stroke="#141414" stroke-width="2" stroke-linecap="round" stroke-linejoin="round"/>
<path d="M34.3364 34.5941C36.6042 32.3143 39.5698 29.4909 41.6212 28.321" stroke="#141414" stroke-width="2" stroke-linecap="round" stroke-linejoin="round"/>
<path d="M42.2871 29.1304C42.7928 31.2525 42.3946 33.4996 42.7776 35.6058" stroke="#141414" stroke-width="2" stroke-linecap="round" stroke-linejoin="round"/>
<path d="M43.0381 35.8353C45.908 35.5255 48.1276 37.9587 50.7276 38.4387" stroke="#141414" stroke-width="2" stroke-linecap="round" stroke-linejoin="round"/>
<path d="M43.9981 23.0991C44.2986 21.9649 45.1023 20.9509 45.9665 20.1682C46.8437 19.3741 48.8541 19.3474 49.9787 19.4744C57.1324 20.2845 45.996 36.298 43.8472 24.2555" stroke="#141414" stroke-width="2" stroke-linecap="round" stroke-linejoin="round"/>
<path d="M50.3099 23.262C49.1954 22.8094 47.9395 22.745 46.7361 22.5864C32.0447 20.6524 48.9341 14.351 51.9416 21.6116" stroke="#141414" stroke-width="2" stroke-linecap="round" stroke-linejoin="round"/>
</svg>
