<svg width="86" height="77" viewBox="0 0 86 77" fill="none" xmlns="http://www.w3.org/2000/svg">
<path d="M2.18915 32.9281C4.31211 22.2093 8.51375 18.0013 17.2698 11.1875C31.1585 0.3795 46.3146 -2.88688 62.5117 4.24888C73.7141 9.18419 78.2932 15.732 82.5859 26.9543C88.692 42.9176 87.1245 60.0949 73.6594 70.966C62.2259 80.1969 49.8055 75.5902 35.2228 72.8557C22.1397 70.4023 9.33702 66.4475 3.592 60.152C-2.15303 53.8566 0.258336 42.6769 2.18915 32.9281Z" fill="#C7CBD9"/>
<path d="M35.2539 17.3218C36.7851 13.7241 44.2967 14.9107 42.4458 19.3526C40.9141 23.029 35.4231 23.4788 35.4231 18.1681" stroke="#141414" stroke-width="2" stroke-linecap="round" stroke-linejoin="round"/>
<path d="M27.3809 15.8032C29.4769 19.342 31.3063 22.4147 35.7618 24.4381" stroke="#141414" stroke-width="2" stroke-linecap="round" stroke-linejoin="round"/>
<path d="M35.7605 24.438C36.4363 32.5113 35.688 42.4076 34.4922 50.3428" stroke="#141414" stroke-width="2" stroke-linecap="round" stroke-linejoin="round"/>
<path d="M40.9085 24.5686C40.8158 27.8958 40.6548 32.162 40.6548 35.4837" stroke="#141414" stroke-width="2" stroke-linecap="round" stroke-linejoin="round"/>
<path d="M40.9087 35.2295C42.3512 35.1084 44.1854 34.4295 45.647 34.7218C46.1922 34.8311 48.2047 43.6768 48.3545 44.8755" stroke="#141414" stroke-width="2" stroke-linecap="round" stroke-linejoin="round"/>
<path d="M40.9087 24.5684C45.008 24.4021 49.809 21.0728 51.8237 17.7148" stroke="#141414" stroke-width="2" stroke-linecap="round" stroke-linejoin="round"/>
<path d="M19 58.9709C22.0163 56.3418 23.1903 53.7134 26.9619 55.4033C27.2276 55.5224 27.36 54.9428 27.5688 54.7238C28.3554 53.8978 29.2137 53.4019 30.2227 53.025C32.8659 52.0381 34.9631 50.0726 37.4265 48.693C39.1663 47.7186 41.7232 48.0513 43.6445 47.3339C44.9402 46.8502 47.0552 44.4625 48.4975 44.7855C54.6058 46.1542 52.3009 49.4171 55.4739 52.2604C56.6279 53.2945 60.4378 54.9513 61.9954 55.9979C63.4618 56.9835 65.5845 59.6221 67 61.0096" stroke="#808080" stroke-width="2" stroke-linecap="round" stroke-linejoin="round"/>
<path d="M34.3945 35.8149C33.984 35.8666 32.7532 36.1276 32.4715 35.7164C31.5737 34.4054 29.6673 23.34 35.5078 25.4718" stroke="#141414" stroke-width="2" stroke-linecap="round" stroke-linejoin="round"/>
</svg>
