<svg width="86" height="76" viewBox="0 0 86 76" fill="none" xmlns="http://www.w3.org/2000/svg">
<path d="M2.18915 32.475C4.31211 21.7561 8.51375 17.5482 17.2698 10.7343C31.1585 -0.0736248 46.3146 -3.34001 62.5117 3.79576C73.7141 8.73107 78.2932 15.2788 82.5859 26.5011C88.692 42.4645 87.1245 59.6417 73.6594 70.5129C62.2259 79.7438 49.8055 75.1371 35.2228 72.4025C22.1397 69.9492 9.33702 65.9944 3.592 59.6989C-2.15303 53.4035 0.258336 42.2238 2.18915 32.475Z" fill="#D1FF17"/>
<path d="M71.2433 57.8813C74.8433 53.0813 73.7433 49.548 72.7433 48.3813C70.9099 50.7147 66.6433 56.4813 64.2433 60.8813C61.2433 66.3813 66.7433 63.8813 71.2433 57.8813Z" fill="#FAFFE8"/>
<path d="M34.5174 27.6782C30.5567 39.2061 49.3614 40.7237 51.5231 29.9208" stroke="#1D1D1D" stroke-width="2" stroke-linecap="round" stroke-linejoin="round"/>
<path d="M33.8279 25.6719C31.9414 22.7844 27.4729 15.5475 32.1041 12.8261C37.7882 9.48596 37.4585 20.8107 40.9145 20.4497C42.6305 20.2703 44.9929 21.2612 46.3416 21.0499C48.1696 20.7633 52.9852 12.5896 56.2374 15.6474C59.3605 18.5837 55.3834 26.5617 52.2791 28.1332" stroke="#1D1D1D" stroke-width="2" stroke-linecap="round" stroke-linejoin="round"/>
<path d="M42.7471 29.4531C42.0997 29.5396 41.4522 29.5437 40.7969 29.5437" stroke="#1D1D1D" stroke-width="2" stroke-linecap="round" stroke-linejoin="round"/>
<path d="M41.3475 22.6736C40.7123 24.6242 30.3653 34.7282 37.9665 35.9364C40.1291 36.28 39.6546 31.4786 42.3682 32.7727C43.6789 33.3978 45.2864 39.5606 47.8542 34.0504C50.0823 29.269 44.0841 27.1446 44.9834 22.856" stroke="#1D1D1D" stroke-width="2" stroke-linecap="round" stroke-linejoin="round"/>
<path d="M35.1515 35.6404C28.8957 40.5247 39.6328 62.3262 33.6957 63.1665L36.0435 62.4019" stroke="#1D1D1D" stroke-width="2" stroke-linecap="round" stroke-linejoin="round"/>
<path d="M51.1572 36.7778C55.1858 43.971 55.5561 52.8547 55.5561 60.718C55.5561 60.9676 55.1882 63.5802 55.3204 63.6533C55.8363 63.9389 57.5889 63.8082 58.2268 63.849" stroke="#1D1D1D" stroke-width="2" stroke-linecap="round" stroke-linejoin="round"/>
<path d="M34.093 50.1997C30.4558 51.7584 28.9283 57.2557 29.6767 60.494C29.7861 60.968 30.9862 61.2356 30.7204 61.6669C30.3727 62.231 23.5487 63.2848 29.3553 63.6216" stroke="#1D1D1D" stroke-width="2" stroke-linecap="round" stroke-linejoin="round"/>
<path d="M50.1821 48.3798C51.0624 53.2014 52.3627 59.4762 51.7133 63.849" stroke="#1D1D1D" stroke-width="2" stroke-linecap="round" stroke-linejoin="round"/>
<path d="M39.0586 50.4272C39.0586 56.111 40.1876 58.3568 40.1876 63.1666" stroke="#1D1D1D" stroke-width="2" stroke-linecap="round" stroke-linejoin="round"/>
</svg>
