<svg width="86" height="77" viewBox="0 0 86 77" fill="none" xmlns="http://www.w3.org/2000/svg">
<path d="M2.18915 33.2016C4.31211 22.4827 8.51375 18.2748 17.2698 11.4609C31.1585 0.652938 46.3146 -2.61345 62.5117 4.52232C73.7141 9.45763 78.2932 16.0054 82.5859 27.2277C88.692 43.191 87.1245 60.3683 73.6594 71.2394C62.2259 80.4704 49.8055 75.8636 35.2228 73.1291C22.1397 70.6758 9.33702 66.7209 3.592 60.4255C-2.15303 54.13 0.258336 42.9503 2.18915 33.2016Z" fill="#C7CBD9"/>
<path d="M48.7798 26.8215C54.6247 27.6619 50.1601 35.7971 46.3152 32.9799C44.9544 31.9829 45.7779 29.1174 46.9027 28.0532" stroke="#141414" stroke-width="2" stroke-linecap="round" stroke-linejoin="round"/>
<path d="M49.235 36.2314C49.1965 38.2273 49.1433 40.9943 49.1275 43.7543C49.112 46.4679 52.0868 44.8927 52.1928 46.8532L50.7418 52.1998" stroke="#141414" stroke-width="2" stroke-linecap="round" stroke-linejoin="round"/>
<path d="M45.68 36.79C45.7248 41.1078 44.937 49.4557 44.937 53.7721" stroke="#141414" stroke-width="2" stroke-linecap="round" stroke-linejoin="round"/>
<path d="M49.8237 36.1239C52.039 35.363 53.7612 35.4473 56.4279 33.5703L57.5394 33.4277" stroke="#141414" stroke-width="2" stroke-linecap="round" stroke-linejoin="round"/>
<path d="M45.6062 36.7271C43.7022 37.9846 41.8559 42.1481 39.7173 42.1481" stroke="#141414" stroke-width="2" stroke-linecap="round" stroke-linejoin="round"/>
<path d="M33.1719 31.7178C34.1294 30.903 35.6103 31.1694 36.3463 32.2434C40.303 38.0167 28.24 40.5646 31.0106 33.5573" stroke="#141414" stroke-width="2" stroke-linecap="round" stroke-linejoin="round"/>
<path d="M20.4613 34.6474C21.9426 34.3421 23.0353 34.5059 23.6746 36.057C26.0588 41.841 15.7412 43.2964 17.733 36.8538" stroke="#141414" stroke-width="2" stroke-linecap="round" stroke-linejoin="round"/>
<path d="M35.1751 40.0955C34.9931 44.7793 38.1493 47.9939 35.1751 55.3509" stroke="#141414" stroke-width="2" stroke-linecap="round" stroke-linejoin="round"/>
<path d="M31.1833 40.6631C31.0881 45.6917 31.4063 51.8827 31.083 56.3045" stroke="#141414" stroke-width="2" stroke-linecap="round" stroke-linejoin="round"/>
<path d="M22.4648 43.3601C22.4796 47.6071 22.3232 55.7105 22.3232 58.0453" stroke="#141414" stroke-width="2" stroke-linecap="round" stroke-linejoin="round"/>
<path d="M18.8798 43.9304C18.9342 47.2213 18.001 54.9163 17.4761 60.3265" stroke="#141414" stroke-width="2" stroke-linecap="round" stroke-linejoin="round"/>
<path d="M18.9018 43.9304C17.757 45.1939 15.0909 47.5755 17.0112 50.774" stroke="#141414" stroke-width="2" stroke-linecap="round" stroke-linejoin="round"/>
<path d="M31.1634 40.6511C29.1599 42.6226 27.3654 44.5006 27.3652 47.7798" stroke="#141414" stroke-width="2" stroke-linecap="round" stroke-linejoin="round"/>
<path d="M35.1553 40.0955C35.8748 41.6379 37.7216 43.0038 40.4305 41.7919" stroke="#141414" stroke-width="2" stroke-linecap="round" stroke-linejoin="round"/>
<path d="M22.4658 43.3601C22.7897 44.9669 24.8896 47.7799 26.743 48.4928" stroke="#141414" stroke-width="2" stroke-linecap="round" stroke-linejoin="round"/>
<path d="M60.6502 18.1334C61.0516 17.4168 60.2033 20.5551 60.1102 20.9607C59.2463 24.7296 58.425 28.5124 57.3928 32.2446C57.0828 33.3652 56.7753 34.4985 56.5367 35.6315C56.4253 36.1604 56.0349 37.7375 56.1794 37.2153C56.3913 36.4489 56.2616 36.8001 56.5536 36.1538" stroke="#141414" stroke-width="2" stroke-linecap="round" stroke-linejoin="round"/>
<path d="M60.8959 18.3166C63.4393 16.0648 64.0802 19.2942 65.603 19.938C66.983 20.5213 68.2424 19.8731 69.6784 19.723" stroke="#141414" stroke-width="2" stroke-linecap="round" stroke-linejoin="round"/>
<path d="M59.8702 23.0935C64.1361 21.2122 62.6086 27.0976 67.5388 24.7832" stroke="#141414" stroke-width="2" stroke-linecap="round" stroke-linejoin="round"/>
<path d="M69.6685 19.7578C69.2286 21.3482 68.7821 22.9623 68.3382 24.5673" stroke="#141414" stroke-width="2" stroke-linecap="round" stroke-linejoin="round"/>
</svg>
