<svg width="86" height="77" viewBox="0 0 86 77" fill="none" xmlns="http://www.w3.org/2000/svg">
<path d="M2.18915 32.9281C4.31211 22.2093 8.51375 18.0013 17.2698 11.1875C31.1585 0.3795 46.3146 -2.88688 62.5117 4.24888C73.7141 9.18419 78.2932 15.732 82.5859 26.9543C88.692 42.9176 87.1245 60.0949 73.6594 70.966C62.2259 80.1969 49.8055 75.5902 35.2228 72.8557C22.1397 70.4023 9.33702 66.4475 3.592 60.152C-2.15303 53.8566 0.258336 42.6769 2.18915 32.9281Z" fill="#D499FF"/>
<path d="M33.4859 29.9016C34.5918 40.1841 33.1221 50.7292 32.1763 60.9533L34.8279 60.7651" stroke="#141414" stroke-width="2" stroke-linecap="round" stroke-linejoin="round"/>
<path d="M33.9533 30.0676C34.544 40.4001 28.6566 39.1633 42.1357 37.2157C43.0004 38.5141 43.7132 38.6611 44.2742 37.6567" stroke="#141414" stroke-width="2" stroke-linecap="round" stroke-linejoin="round"/>
<path d="M51.0338 29.9014C51.6485 40.5034 50.6572 50.0521 50.6572 60.6209H48.0859" stroke="#141414" stroke-width="2" stroke-linecap="round" stroke-linejoin="round"/>
<path d="M51.1385 29.9014C51.7478 33.6449 53.1139 36.2924 51.9228 37.1958C50.8526 38.0075 46.2764 37.16 43.491 36.915C42.655 36.8415 42.6664 37.1958 42.1196 37.1958" stroke="#141414" stroke-width="2" stroke-linecap="round" stroke-linejoin="round"/>
<path d="M33.999 29.9014C41.5735 34.3581 42.2026 33.2792 50.4061 30.2571" stroke="#141414" stroke-width="2" stroke-linecap="round" stroke-linejoin="round"/>
<path d="M31.8418 18.1259C33.0277 16.6842 34.5367 15.6229 36.6052 16.0477C42.4342 17.2445 41.313 25.6925 35.5467 26.073C30.8778 26.3813 29.131 18.9263 32.9002 17.8814" stroke="#141414" stroke-width="2" stroke-linecap="round" stroke-linejoin="round"/>
<path d="M46.9299 17.5433C52.6027 11.9833 59.1308 22.5545 52.2611 25.5462C46.8848 27.887 43.6251 22.0102 46.9299 18.5563" stroke="#141414" stroke-width="2" stroke-linecap="round" stroke-linejoin="round"/>
</svg>
