<svg width="86" height="77" viewBox="0 0 86 77" fill="none" xmlns="http://www.w3.org/2000/svg">
<path d="M2.18915 33.2016C4.31211 22.4827 8.51375 18.2748 17.2698 11.4609C31.1585 0.652938 46.3146 -2.61345 62.5117 4.52232C73.7141 9.45763 78.2932 16.0054 82.5859 27.2277C88.692 43.191 87.1245 60.3683 73.6594 71.2394C62.2259 80.4704 49.8055 75.8636 35.2228 73.1291C22.1397 70.6758 9.33702 66.7209 3.592 60.4255C-2.15303 54.13 0.258336 42.9503 2.18915 33.2016Z" fill="#FFF2B9"/>
<path d="M28.3188 34.6523C21.2134 44.0951 20.2003 52.8204 20.2003 62.5468" stroke="#141414" stroke-width="2" stroke-linecap="round" stroke-linejoin="round"/>
<path d="M28.3189 34.6523C29.8162 40.4422 33.3149 50.3957 33.3149 56.0936" stroke="#141414" stroke-width="2" stroke-linecap="round" stroke-linejoin="round"/>
<path d="M48.9277 48.3916C45.0477 48.3916 38.497 53.5656 33.7315 56.0938" stroke="#141414" stroke-width="2" stroke-linecap="round" stroke-linejoin="round"/>
<path d="M49.7152 48.2825C50.3738 48.3174 51.0089 48.5437 51.647 48.7117" stroke="#141414" stroke-width="2" stroke-linecap="round" stroke-linejoin="round"/>
<path d="M49.1351 49.8486C49.6319 49.8995 50.111 50.2287 50.5923 50.4731" stroke="#141414" stroke-width="2" stroke-linecap="round" stroke-linejoin="round"/>
<path d="M63.8377 32.3864C64.1408 30.366 63.5531 28.8627 62.4555 28.2083C61.0621 27.3776 58.9269 27.7235 57.126 29.7481C48.1454 39.8441 58.5046 48.8415 63.4424 33.7862" stroke="#808080" stroke-width="2" stroke-linecap="round" stroke-linejoin="round"/>
<path d="M53.7847 42.9792C51.4672 46.5212 49.2448 50.7303 46.9151 54.2203" stroke="#141414" stroke-width="2" stroke-linecap="round" stroke-linejoin="round"/>
<path d="M41.1788 15.6515C32.568 12.3676 27.4401 20.1664 29.1227 26.908C34.0903 46.8118 59.4256 25.1953 44.1684 16.0256" stroke="#141414" stroke-width="2" stroke-linecap="round" stroke-linejoin="round"/>
<path d="M43.0809 26.89C43.1621 26.547 43.2628 26.5079 43.3501 26.1736" stroke="#141414" stroke-width="2" stroke-linecap="round" stroke-linejoin="round"/>
</svg>
