<svg width="86" height="77" viewBox="0 0 86 77" fill="none" xmlns="http://www.w3.org/2000/svg">
<path d="M2.18915 33.2016C4.31211 22.4827 8.51375 18.2748 17.2698 11.4609C31.1585 0.652938 46.3146 -2.61345 62.5117 4.52232C73.7141 9.45763 78.2932 16.0054 82.5859 27.2277C88.692 43.191 87.1245 60.3683 73.6594 71.2394C62.2259 80.4704 49.8055 75.8636 35.2228 73.1291C22.1397 70.6758 9.33702 66.7209 3.592 60.4255C-2.15303 54.13 0.258336 42.9503 2.18915 33.2016Z" fill="#C1F5DA"/>
<path d="M45.375 44.2051C47.592 43.514 61.7287 41.6192 62.462 42.7192C63.2454 43.8942 61.152 47.1551 60.646 48.1673" stroke="#141414" stroke-width="2" stroke-linecap="round" stroke-linejoin="round"/>
<path d="M43.0646 47.0117C41.958 49.2476 33.7605 64.1461 34.1496 64.9242C40.694 64.1783 53.1743 64.6372 54.621 63.1907C55.4808 62.3309 55.6634 60.5128 56.3545 59.4761" stroke="#141414" stroke-width="2" stroke-linecap="round" stroke-linejoin="round"/>
<path d="M52.6393 46.6813C52.5738 46.439 52.8094 46.2846 52.8869 46.1035" stroke="#141414" stroke-width="2" stroke-linecap="round" stroke-linejoin="round"/>
<path d="M25.5609 23.1406C30.7463 7.84527 53.2946 14.9532 48.8262 30.8296C46.4037 39.4362 29.9294 43.4873 26.3497 29.8026" stroke="#141414" stroke-width="2" stroke-linecap="round" stroke-linejoin="round"/>
<path d="M43.4454 28.2433C43.3399 27.4279 43.3006 26.9313 43.125 26.2002" stroke="#141414" stroke-width="2" stroke-linecap="round" stroke-linejoin="round"/>
<path d="M38.7373 28.397C38.6981 27.7103 38.5263 27.2062 38.3438 26.543" stroke="#141414" stroke-width="2" stroke-linecap="round" stroke-linejoin="round"/>
<path d="M58.8304 50.6438C57.8925 50.8419 57.0223 51.1988 56.2715 51.7994C49.5276 57.1944 59.7361 59.0681 62.8751 52.79C63.4881 51.5638 63.3305 50.2223 62.545 49.2405" stroke="#141414" stroke-width="2" stroke-linecap="round" stroke-linejoin="round"/>
<path d="M26.3394 45.9757C28.1621 38.2594 39.5492 43.9018 38.0609 49.8553C37.177 53.3906 33.9887 49.1129 33.5208 47.7091" stroke="#141414" stroke-width="2" stroke-linecap="round" stroke-linejoin="round"/>
<path d="M33.6033 49.0645C33.3408 52.6772 29.4521 51.0781 28.0728 49.147" stroke="#141414" stroke-width="2" stroke-linecap="round" stroke-linejoin="round"/>
</svg>
