<svg width="86" height="77" viewBox="0 0 86 77" fill="none" xmlns="http://www.w3.org/2000/svg">
<path d="M2.18915 33.2016C4.31211 22.4827 8.51375 18.2748 17.2698 11.4609C31.1585 0.652938 46.3146 -2.61345 62.5117 4.52232C73.7141 9.45763 78.2932 16.0054 82.5859 27.2277C88.692 43.191 87.1245 60.3683 73.6594 71.2394C62.2259 80.4704 49.8055 75.8636 35.2228 73.1291C22.1397 70.6758 9.33702 66.7209 3.592 60.4255C-2.15303 54.13 0.258336 42.9503 2.18915 33.2016Z" fill="#FEBCC2"/>
<path d="M35.2642 28.6616C45.3553 15.6079 63.7606 36.6263 50.8272 45.2297C40.7772 51.9156 28.9782 41.4945 33.6967 32.427" stroke="#141414" stroke-width="2" stroke-linecap="round" stroke-linejoin="round"/>
<path d="M46.3833 35.7691C46.3952 35.7954 46.4207 35.8127 46.4546 35.8283C46.4978 35.8553 46.537 35.8848 46.58 35.9119C46.6214 35.9379 46.6717 35.9597 46.7197 35.9808C46.8047 36.0186 46.8934 36.0517 46.9891 36.0783C47.0555 36.0969 47.1237 36.1112 47.1947 36.1217C47.2756 36.1336 47.3609 36.1366 47.4439 36.1367C47.5173 36.1367 47.5906 36.1293 47.6631 36.1232C47.7363 36.1172 47.8084 36.1072 47.8798 36.0957C48.0244 36.0725 48.1677 36.0367 48.2971 35.9907C48.4208 35.9467 48.5288 35.8882 48.6143 35.8181C48.6543 35.7852 48.6855 35.7511 48.7116 35.7134" stroke="#141414" stroke-width="2" stroke-linecap="round" stroke-linejoin="round"/>
<path d="M39.8218 35.7134C39.853 35.7575 39.8937 35.7975 39.9308 35.838C39.9777 35.8892 40.0309 35.9358 40.0857 35.9806C40.2958 36.1514 40.5627 36.2727 40.8463 36.3238C41.1637 36.3808 41.489 36.3347 41.7831 36.2251C41.8432 36.2028 41.9003 36.1782 41.9571 36.1499C42.0257 36.1156 42.0891 36.0706 42.1501 36.0275" stroke="#141414" stroke-width="2" stroke-linecap="round" stroke-linejoin="round"/>
<path d="M36.2499 52.5266C36.2499 52.5266 36.0998 54.0736 35.9499 56.9589C35.7998 59.8486 35.6499 64.0766 35.6499 64.0766" stroke="#141414" stroke-width="2" stroke-linecap="round" stroke-linejoin="round"/>
<path d="M51.3253 63.6266C51.3253 58.3582 50.8003 52.1642 50.8003 52.1642C55.2636 52.2543 57.3815 52.1481 59.1059 48.2373C60.3308 45.4594 59.1059 36.7766 59.1059 36.7766" stroke="#141414" stroke-width="2" stroke-linecap="round" stroke-linejoin="round"/>
<path d="M36.4001 51.7354C36.4001 51.7354 33.468 52.1101 30.1343 50.602C26.8006 49.0939 27.3911 39.9353 30.1341 35.8767" stroke="#141414" stroke-width="2" stroke-linecap="round" stroke-linejoin="round"/>
<path d="M30.6016 34.9009C31.6539 25.9152 31.0354 17.9749 43.1205 17.9749C53.8835 17.9749 57.7878 25.0621 57.7878 35.5092" stroke="#141414" stroke-width="2" stroke-linecap="round" stroke-linejoin="round"/>
<path d="M56.3398 31.0051C56.3398 31.0051 57.1442 33.315 57.1442 35.9919C57.1442 38.6689 56.8047 39.9763 56.7235 40.9788" stroke="#141414" stroke-width="2" stroke-linecap="round" stroke-linejoin="round"/>
<path d="M31.4482 30.8186C31.4482 30.8186 30.6104 34.0022 30.6104 36.4277C30.6104 38.8533 30.5173 38.8278 30.9362 42.0368" stroke="#141414" stroke-width="2" stroke-linecap="round" stroke-linejoin="round"/>
<path d="M27.1935 24.0078C28.8289 23.2907 29.4044 25.716 27.7946 26.3154C26.1701 26.9203 25.8755 24.88 26.5123 24.4057C26.6198 24.3256 26.7291 24.3497 26.8329 24.2465" stroke="#141414" stroke-width="2" stroke-linecap="round" stroke-linejoin="round"/>
<path d="M32.2877 22.8109C34.0356 21.1744 35.5028 24.6518 33.4468 25.1632C31.9298 25.5404 31.3529 24.156 32.5196 22.9953" stroke="#141414" stroke-width="2" stroke-linecap="round" stroke-linejoin="round"/>
<path d="M28.8999 25.0765C29.1246 24.4553 28.917 19.9726 29.127 19.6114C29.1503 19.5713 30.625 18.8833 32.1234 18.391C33.1245 18.0621 34.3457 17.8426 34.379 17.8808C34.5385 18.0635 34.379 22.4443 34.379 23.216" stroke="#141414" stroke-width="2" stroke-linecap="round" stroke-linejoin="round"/>
</svg>
