<svg width="86" height="76" viewBox="0 0 86 76" fill="none" xmlns="http://www.w3.org/2000/svg">
<path d="M2.18915 32.475C4.31211 21.7561 8.51375 17.5482 17.2698 10.7343C31.1585 -0.0736248 46.3146 -3.34001 62.5117 3.79576C73.7141 8.73107 78.2932 15.2788 82.5859 26.5011C88.692 42.4645 87.1245 59.6417 73.6594 70.5129C62.2259 79.7438 49.8055 75.1371 35.2228 72.4025C22.1397 69.9492 9.33702 65.9944 3.592 59.6989C-2.15303 53.4035 0.258336 42.2238 2.18915 32.475Z" fill="#D1FF17"/>
<path d="M71.2433 57.8813C74.8433 53.0813 73.7433 49.548 72.7433 48.3813C70.9099 50.7147 66.6433 56.4813 64.2433 60.8813C61.2433 66.3813 66.7433 63.8813 71.2433 57.8813Z" fill="#FAFFE8"/>
<path d="M51.5456 30.0697C50.5187 25.6862 50.2375 21.5707 53.6933 26.4406" stroke="#141414" stroke-width="2" stroke-linecap="round" stroke-linejoin="round"/>
<path d="M58.4126 25.5881C60.658 21.891 60.7747 23.8192 60.4345 28.098" stroke="#141414" stroke-width="2" stroke-linecap="round" stroke-linejoin="round"/>
<path d="M60.1116 28.6031C61.2876 33.1239 62.6062 39.8633 59.9229 44.0495C64.1608 45.741 67.1385 46.5867 68.8559 46.5867C71.432 46.5867 71.3825 45.508 72.5702 46.5867" stroke="#141414" stroke-width="2" stroke-linecap="round" stroke-linejoin="round"/>
<path d="M50.4842 31.0413C48.6431 32.7781 46.7602 34.7191 46.1426 37.2594" stroke="#141414" stroke-width="2" stroke-linecap="round" stroke-linejoin="round"/>
<path d="M46.1429 36.3963C34.0088 34.1504 27.4857 38.8491 25.1252 46.1852C14.0023 49.3528 11.5553 51.3651 17.7843 52.222" stroke="#141414" stroke-width="2" stroke-linecap="round" stroke-linejoin="round"/>
<path d="M37.6959 39.7981C38.2974 39.5168 39.7224 39.5168 40.6296 39.832C51.5941 43.6419 21.9121 47.1696 37.2326 47.1696C38.5229 47.1696 41.3295 46.9292 41.789 46.9292" stroke="#141414" stroke-width="2" stroke-linecap="round" stroke-linejoin="round"/>
<path d="M59.2671 32.5958C60.9487 36.6843 54.6627 38.2311 54.2798 33.3805" stroke="#141414" stroke-width="2" stroke-linecap="round" stroke-linejoin="round"/>
<path d="M57.3063 35.8992C56.4098 35.4885 57.2545 35.4262 57.4686 35.3163" stroke="#141414" stroke-width="2" stroke-linecap="round" stroke-linejoin="round"/>
<path d="M51.2393 40.3685C51.9926 40.852 52.2388 41.835 52.4827 42.6891C54.2983 49.0446 52.0906 45.5803 60.0992 46.1299C61.22 46.2069 65.37 46.7584 64.9954 45.7299" stroke="#141414" stroke-width="2" stroke-linecap="round" stroke-linejoin="round"/>
</svg>
