<svg width="86" height="77" viewBox="0 0 86 77" fill="none" xmlns="http://www.w3.org/2000/svg">
<path d="M2.18915 32.9281C4.31211 22.2093 8.51375 18.0013 17.2698 11.1875C31.1585 0.3795 46.3146 -2.88688 62.5117 4.24888C73.7141 9.18419 78.2932 15.732 82.5859 26.9543C88.692 42.9176 87.1245 60.0949 73.6594 70.966C62.2259 80.1969 49.8055 75.5902 35.2228 72.8557C22.1397 70.4023 9.33702 66.4475 3.592 60.152C-2.15303 53.8566 0.258336 42.6769 2.18915 32.9281Z" fill="#FF99FF"/>
<path d="M31.1462 23.4448C36.2925 16.4211 45.6787 27.7303 39.083 32.3595C33.9577 35.9569 27.9405 30.3497 30.3468 25.4709" stroke="#141414" stroke-width="2" stroke-linecap="round" stroke-linejoin="round"/>
<path d="M51.3345 21.3596C52.767 20.6467 54.5855 19.8337 56.2185 20.2812C63.079 22.1614 61.1505 32.0031 54.1005 32.0031C49.308 32.0031 47.0505 26.9031 49.6004 24.2031" stroke="#141414" stroke-width="2" stroke-linecap="round" stroke-linejoin="round"/>
<path d="M31.8972 52.4581C31.8281 52.3102 31.7532 52.1679 31.7286 52.0056C31.6975 51.796 31.6683 51.5867 31.6471 51.3762C31.6317 51.2294 31.6171 51.0837 31.6026 50.9369C31.5768 50.694 31.5523 50.4508 31.5245 50.2077C31.4691 49.7179 31.4088 49.2298 31.3467 48.7412C31.3465 48.7395 31.3462 48.7375 31.3459 48.736C31.1492 47.4568 30.926 46.1842 30.6825 44.9138C30.5576 44.2632 30.4335 43.6134 30.3098 42.9627C30.2137 42.4586 30.1031 41.9545 30.0328 41.4461C29.9233 40.6563 29.747 39.7668 30.2649 39.0757C30.5196 38.7342 30.812 38.4474 31.2038 38.2682C31.4205 38.1684 31.6417 38.0867 31.8707 38.0239C32.1319 37.9534 32.3932 37.8828 32.6533 37.8077C33.2284 37.6419 33.8009 37.4728 34.3794 37.317C34.7126 37.2265 37.891 36.2682 41.0511 35.8167C44.3397 35.3469 49.0494 35.3356 49.4048 35.2786" stroke="#141414" stroke-width="2" stroke-linecap="round" stroke-linejoin="round"/>
<path d="M48.6621 45.5489C48.6889 44.9976 48.7535 44.4472 48.8062 43.8988C48.8885 43.0483 48.9719 42.1982 49.03 41.3466C49.0955 40.3901 49.14 39.4344 49.179 38.4753C49.2225 37.4133 49.2308 36.3419 49.3521 35.2851C49.3627 35.2202 49.3738 35.1556 49.386 35.0918C49.6264 35.1002 49.8658 35.1301 50.1048 35.1617C51.245 35.3303 52.8983 35.0837 54.0334 35.2851C55.3394 35.5185 56.8457 35.3843 58.1295 35.7205" stroke="#141414" stroke-width="2" stroke-linecap="round" stroke-linejoin="round"/>
<path d="M58.6864 36.2122C58.6676 36.3317 58.6503 36.4512 58.6314 36.5707C58.246 39.0741 57.675 41.548 56.9835 43.9885C56.6414 45.1949 56.2734 46.3958 55.9663 47.6102C55.8237 48.172 55.7176 48.7413 55.595 49.3062C55.5272 49.6177 55.4572 49.9289 55.3825 50.2378C55.3508 50.3697 55.3158 50.5016 55.2808 50.6324C55.2551 50.7294 55.2258 50.8186 55.1875 50.911C55.1313 51.105 55.0309 51.273 54.8838 51.415C54.8521 51.4511 54.8195 51.4883 54.7881 51.5244" stroke="#141414" stroke-width="2" stroke-linecap="round" stroke-linejoin="round"/>
<path d="M42.3504 52.4582C42.3242 52.1771 42.3128 51.8957 42.2999 51.6147C42.2712 50.9895 42.2494 50.3654 42.2222 49.7404C42.1732 48.5786 42.1084 47.4122 41.9989 46.2527C41.7474 43.5627 42.0856 39.4601 41.7935 36.7725" stroke="#141414" stroke-width="2" stroke-linecap="round" stroke-linejoin="round"/>
<path d="M47.8497 50.0305C47.9425 49.8739 48.0549 49.6861 48.0995 49.5149C48.15 49.3202 48.1729 49.1247 48.1914 48.9257C48.1867 48.8719 48.1823 48.8192 48.1764 48.7668C48.1661 48.6102 48.1385 48.457 48.0974 48.307C48.0308 48.0376 47.8888 47.7759 47.7191 47.5589C47.6011 47.4072 47.4972 47.2875 47.3628 47.171C47.4206 47.1258 47.4781 47.0805 47.5357 47.0344C48.0434 46.6273 48.5444 46.2159 49.0408 45.7965C49.5271 45.3859 49.9823 44.9488 50.4443 44.5136C50.6195 44.3493 50.8088 44.1915 50.9729 44.0172C51.1769 43.7979 51.3809 43.58 51.5849 43.3618C52.5229 42.3609 53.4516 41.3543 54.3779 40.3446C54.7057 39.9867 55.0201 39.6108 55.372 39.2752C55.9602 38.7172 56.5484 38.1604 57.1365 37.6024C57.6408 37.1226 58.1568 36.6662 58.6865 36.2122" stroke="#141414" stroke-width="2" stroke-linecap="round" stroke-linejoin="round"/>
<path d="M29.7273 39.5735C29.4685 40.8332 29.1999 42.0938 28.9764 43.3613C28.7637 44.57 28.5509 45.7798 28.3382 46.9885C28.1529 48.0421 27.9545 49.0933 27.7583 50.1445C27.6693 50.6212 27.5828 51.0983 27.4961 51.5762C27.438 51.9015 27.4751 55.1274 27.4133 55.5737C27.4088 55.6233 27.4018 55.6723 27.3934 55.721C27.39 55.7471 27.3866 55.7732 27.3833 55.799C27.3833 55.7993 27.383 55.7993 27.383 55.7993C27.3864 55.7749 27.3892 55.7506 27.3925 55.7262C27.3878 55.752 27.3827 55.7778 27.3771 55.8036C26.9698 56.1 26.5468 56.3833 26.2002 56.7531" stroke="#141414" stroke-width="2" stroke-linecap="round" stroke-linejoin="round"/>
</svg>
