<svg width="20" height="21" viewBox="0 0 20 21" fill="none" xmlns="http://www.w3.org/2000/svg">
<path d="M18.3332 18.8333H1.6665" stroke="#FCFCFC" stroke-width="1.5" stroke-linecap="round"/>
<path d="M14.1668 18.8333V5.49999C14.1668 3.92864 14.1668 3.14296 13.6787 2.65481C13.1905 2.16666 12.4048 2.16666 10.8335 2.16666H9.16683C7.59548 2.16666 6.8098 2.16666 6.32165 2.65481C5.8335 3.14296 5.8335 3.92864 5.8335 5.49999V18.8333" stroke="#FCFCFC" stroke-width="1.5"/>
<path d="M17.5002 18.8333V7.58332C17.5002 6.41294 17.5002 5.82775 17.2192 5.40737C17.0977 5.22539 16.9414 5.06914 16.7594 4.94754C16.3391 4.66666 15.7539 4.66666 14.5835 4.66666" stroke="#FCFCFC" stroke-width="1.5"/>
<path d="M2.5 18.8333V7.58332C2.5 6.41294 2.5 5.82775 2.78088 5.40737C2.90248 5.22539 3.05873 5.06914 3.24072 4.94754C3.66109 4.66666 4.24628 4.66666 5.41667 4.66666" stroke="#FCFCFC" stroke-width="1.5"/>
<path d="M10 18.8333V16.3333" stroke="#FCFCFC" stroke-width="1.5" stroke-linecap="round"/>
<path d="M8.3335 10.5H11.6668" stroke="#FCFCFC" stroke-width="1.5" stroke-linecap="round"/>
<path d="M4.5835 9.66666H5.8335" stroke="#FCFCFC" stroke-width="1.5" stroke-linecap="round"/>
<path d="M4.5835 12.1667H5.8335" stroke="#FCFCFC" stroke-width="1.5" stroke-linecap="round"/>
<path d="M14.1665 9.66666H15.4165" stroke="#FCFCFC" stroke-width="1.5" stroke-linecap="round"/>
<path d="M14.1665 12.1667H15.4165" stroke="#FCFCFC" stroke-width="1.5" stroke-linecap="round"/>
<path d="M4.5835 7.16666H5.8335" stroke="#FCFCFC" stroke-width="1.5" stroke-linecap="round"/>
<path d="M14.1665 7.16666H15.4165" stroke="#FCFCFC" stroke-width="1.5" stroke-linecap="round"/>
<path d="M8.3335 13H11.6668" stroke="#FCFCFC" stroke-width="1.5" stroke-linecap="round"/>
<path d="M10.0002 7.99999C10.9206 7.99999 11.6668 7.2538 11.6668 6.33332C11.6668 5.41285 10.9206 4.66666 10.0002 4.66666C9.07969 4.66666 8.3335 5.41285 8.3335 6.33332C8.3335 7.2538 9.07969 7.99999 10.0002 7.99999Z" stroke="#FCFCFC" stroke-width="1.5"/>
</svg>
