<svg width="16" height="17" viewBox="0 0 16 17" fill="none" xmlns="http://www.w3.org/2000/svg">
<path d="M14.6666 15.1667H1.33331" stroke="#808080" stroke-width="0.8" stroke-linecap="round"/>
<path d="M11.3334 15.1666V4.49998C11.3334 3.2429 11.3334 2.61436 10.9428 2.22384C10.5523 1.83331 9.92375 1.83331 8.66669 1.83331H7.33335C6.07627 1.83331 5.44773 1.83331 5.05721 2.22384C4.66669 2.61436 4.66669 3.2429 4.66669 4.49998V15.1666" stroke="#808080" stroke-width="0.8"/>
<path d="M14 15.1666V6.16665C14 5.23034 14 4.76219 13.7753 4.42589C13.678 4.2803 13.553 4.1553 13.4074 4.05802C13.0712 3.83331 12.603 3.83331 11.6667 3.83331" stroke="#808080" stroke-width="0.8"/>
<path d="M2 15.1666V6.16665C2 5.23034 2 4.76219 2.22471 4.42589C2.32199 4.2803 2.44699 4.1553 2.59257 4.05802C2.92887 3.83331 3.39703 3.83331 4.33333 3.83331" stroke="#808080" stroke-width="0.8"/>
<path d="M8 15.1667V13.1667" stroke="#808080" stroke-width="0.8" stroke-linecap="round"/>
<path d="M6.66669 8.5H9.33335" stroke="#808080" stroke-width="0.8" stroke-linecap="round"/>
<path d="M3.66669 7.83331H4.66669" stroke="#808080" stroke-width="0.8" stroke-linecap="round"/>
<path d="M3.66669 9.83331H4.66669" stroke="#808080" stroke-width="0.8" stroke-linecap="round"/>
<path d="M11.3333 7.83331H12.3333" stroke="#808080" stroke-width="0.8" stroke-linecap="round"/>
<path d="M11.3333 9.83331H12.3333" stroke="#808080" stroke-width="0.8" stroke-linecap="round"/>
<path d="M3.66669 5.83331H4.66669" stroke="#808080" stroke-width="0.8" stroke-linecap="round"/>
<path d="M11.3333 5.83331H12.3333" stroke="#808080" stroke-width="0.8" stroke-linecap="round"/>
<path d="M6.66669 10.5H9.33335" stroke="#808080" stroke-width="0.8" stroke-linecap="round"/>
<path d="M8.00002 6.49998C8.7364 6.49998 9.33335 5.90303 9.33335 5.16665C9.33335 4.43027 8.7364 3.83331 8.00002 3.83331C7.26364 3.83331 6.66669 4.43027 6.66669 5.16665C6.66669 5.90303 7.26364 6.49998 8.00002 6.49998Z" stroke="#808080" stroke-width="0.8"/>
</svg>
