<svg width="58" height="58" viewBox="0 0 58 58" fill="none" xmlns="http://www.w3.org/2000/svg">
<path d="M29.5562 12.9005C28.9311 15.3162 28.4825 17.6355 27.3402 19.8488C26.1268 22.1997 20.3561 28.693 20.3918 28.8355C24.8854 33.9436 27.3402 40.7087 29.3783 47.6793" stroke="#D1FF17" stroke-width="2" stroke-linecap="round" stroke-linejoin="round"/>
<path d="M29.8423 13.1785C30.3691 18.9063 33.2714 24.0559 37.6245 27.5384" stroke="#D1FF17" stroke-width="2" stroke-linecap="round" stroke-linejoin="round"/>
<path d="M37.357 28.2963C34.1777 33.7638 29.5918 40.7181 29.5918 47.7092" stroke="#D1FF17" stroke-width="2" stroke-linecap="round" stroke-linejoin="round"/>
<path d="M29.8423 7.76991C29.9129 6.19629 30.0917 4.61255 29.935 3.04504" stroke="#F6FFD1" stroke-width="1.5" stroke-linecap="round" stroke-linejoin="round"/>
<path d="M29.1218 50.8859C29.1114 51.3325 29.4409 56.4049 29.3364 54.6275" stroke="#F6FFD1" stroke-width="1.5" stroke-linecap="round" stroke-linejoin="round"/>
<path d="M13.0024 29.2375C14.1652 29.2375 15.769 29.2375 16.1791 29.2375" stroke="#F6FFD1" stroke-width="1.5" stroke-linecap="round" stroke-linejoin="round"/>
<path d="M41.793 27.2605C42.8828 27.2285 43.9483 27.3532 45.0355 27.3532" stroke="#F6FFD1" stroke-width="1.5" stroke-linecap="round" stroke-linejoin="round"/>
</svg>
