<svg width="84" height="84" viewBox="0 0 84 84" fill="none" xmlns="http://www.w3.org/2000/svg">
<path d="M26.8154 36.8348C27.2819 35.7152 31.8896 31.5069 32.3583 31.3791C33.7464 31.0005 50.4076 36.0492 52.3336 38.0602C53.09 38.85 54.8088 46.4318 54.5931 47.237C54.4568 47.7458 45.8008 45.867 44.3019 45.5445C42.5719 45.1722 38.9244 43.9409 35.4305 42.1024C32.5674 40.5959 29.8384 38.8446 26.7692 37.6287C26.6963 37.5998 27.7249 41.1976 28.8745 44.3807C29.4105 45.8659 32.3159 58.716 33.0366 59.3058C33.7572 59.8956 52.4568 48.1793 54.7159 47.3382" stroke="#D1FF17" stroke-width="2" stroke-linecap="round" stroke-linejoin="round"/>
<path d="M44.1 45.7798C41.0042 49.4458 35.3163 56.5034 34.0666 58.741" stroke="#D1FF17" stroke-width="2" stroke-linecap="round" stroke-linejoin="round"/>
<path d="M35.6211 43.2937C34.9217 48.3966 34.4376 53.5864 33.6954 58.6418" stroke="#D1FF17" stroke-width="2" stroke-linecap="round" stroke-linejoin="round"/>
<path d="M39.8672 32.6405C37.829 35.6116 37.1796 39.4091 35.7819 42.6936" stroke="#D1FF17" stroke-width="2" stroke-linecap="round" stroke-linejoin="round"/>
<path d="M46.3306 35.2297C45.8559 38.2792 43.9845 43.6406 44.471 45.8792" stroke="#D1FF17" stroke-width="2" stroke-linecap="round" stroke-linejoin="round"/>
<path opacity="0.503384" d="M39.7066 33.2405C37.3254 34.9751 33.0773 37.8664 32.0519 39.5502" stroke="#D1FF17" stroke-width="2" stroke-linecap="round" stroke-linejoin="round"/>
<path opacity="0.503384" d="M32.6294 32.2017C32.3447 34.3312 32.7138 36.4856 32.5054 38.5998" stroke="#D1FF17" stroke-width="2" stroke-linecap="round" stroke-linejoin="round"/>
<path opacity="0.503384" d="M40.2095 33.5896C41.8976 37.1271 41.0097 40.627 42.7522 44.1324" stroke="#D1FF17" stroke-width="2" stroke-linecap="round" stroke-linejoin="round"/>
<path opacity="0.503384" d="M44.8961 36.1318C42.436 38.0985 39.6905 39.6718 37.4021 41.8414" stroke="#D1FF17" stroke-width="2" stroke-linecap="round" stroke-linejoin="round"/>
<path opacity="0.503384" d="M47.7856 36.4773C50.3135 39.7748 51.7896 43.466 53.7496 46.8649" stroke="#D1FF17" stroke-width="2" stroke-linecap="round" stroke-linejoin="round"/>
<path opacity="0.503384" d="M23.6094 28.2841C22.5198 27.0274 21.5765 25.8492 21.4302 25.7708" stroke="#D1FF17" stroke-width="2" stroke-linecap="round" stroke-linejoin="round"/>
<path opacity="0.503384" d="M34.1134 22.9523C33.8604 21.7321 34.3625 22.0226 33.8872 20.2874" stroke="#D1FF17" stroke-width="2" stroke-linecap="round" stroke-linejoin="round"/>
<path opacity="0.503384" d="M47.5779 27.632C47.7121 26.2734 48.3067 24.921 48.7291 23.6529" stroke="#D1FF17" stroke-width="2" stroke-linecap="round" stroke-linejoin="round"/>
<path opacity="0.503384" d="M57.3403 33.4636C58.5748 32.9368 58.9653 32.6465 59.8093 32.4101" stroke="#D1FF17" stroke-width="2" stroke-linecap="round" stroke-linejoin="round"/>
<path opacity="0.503384" d="M62.5247 47.5011C63.5191 47.4996 63.8165 47.6348 64.5136 47.4981" stroke="#D1FF17" stroke-width="2" stroke-linecap="round" stroke-linejoin="round"/>
<path opacity="0.503384" d="M53.6831 61.2103C54.0286 61.8247 54.2748 62.5054 54.5528 63.1584" stroke="#D1FF17" stroke-width="2" stroke-linecap="round" stroke-linejoin="round"/>
<path opacity="0.503384" d="M18.4186 40.7196C18.0833 40.953 17.6911 40.9559 17.3298 41.0735" stroke="#D1FF17" stroke-width="2" stroke-linecap="round" stroke-linejoin="round"/>
<path opacity="0.503384" d="M49.2933 47.1715L36.8209 56.993" stroke="#D1FF17" stroke-width="2" stroke-linecap="round" stroke-linejoin="round"/>
</svg>
