<svg width="266" height="234" viewBox="0 0 266 234" fill="none" xmlns="http://www.w3.org/2000/svg">
<path d="M235.99 110.208C235.99 110.208 241.486 149.174 213.619 180.168C185.751 211.163 141.215 220.226 105.334 228.483C69.4533 236.741 37.9872 220.644 28.373 190.27C18.7588 159.896 44.9196 146.322 53.813 108.549C62.7064 70.7763 59.3303 59.3601 87.4203 32.505C115.51 5.64985 167.636 11.0558 200.247 44.165C232.858 77.2741 235.99 110.208 235.99 110.208Z" fill="#D1FF17"/>
<path opacity="0.8" d="M235.99 110.208C235.99 110.208 241.486 149.174 213.619 180.168C185.751 211.163 141.215 220.226 105.334 228.483C69.4533 236.741 37.9872 220.644 28.373 190.27C18.7588 159.896 44.9196 146.322 53.813 108.549C62.7064 70.7763 59.3303 59.3601 87.4203 32.505C115.51 5.64985 167.636 11.0558 200.247 44.165C232.858 77.2741 235.99 110.208 235.99 110.208Z" fill="white"/>
<path d="M24.832 186.263H238.448" stroke="#263238" stroke-miterlimit="10"/>
<path d="M24.832 145.824H238.448" stroke="#263238" stroke-miterlimit="10"/>
<path d="M24.832 105.38H238.448" stroke="#263238" stroke-miterlimit="10"/>
<path d="M24.832 64.9357H238.448" stroke="#263238" stroke-miterlimit="10"/>
<path d="M73.4014 41.9708V186.364" stroke="#263238" stroke-miterlimit="10"/>
<path d="M201.799 41.9708V186.364" stroke="#263238" stroke-miterlimit="10"/>
<path d="M78.1657 95.4955L76.5811 97.1703" stroke="#263238" stroke-miterlimit="10"/>
<path d="M105.244 66.9391L80.085 93.4762" stroke="#263238" stroke-miterlimit="10"/>
<path d="M106.813 71.2585L92.6777 85.7858" stroke="#263238" stroke-miterlimit="10"/>
<path d="M207.29 95.4955L205.705 97.1703" stroke="#263238" stroke-miterlimit="10"/>
<path d="M234.368 66.9391L209.209 93.4762" stroke="#263238" stroke-miterlimit="10"/>
<path d="M235.937 71.2585L221.802 85.7858" stroke="#263238" stroke-miterlimit="10"/>
<path d="M21.6257 177.168L20.041 178.843" stroke="#263238" stroke-miterlimit="10"/>
<path d="M48.703 148.607L23.5439 175.149" stroke="#263238" stroke-miterlimit="10"/>
<path d="M50.2718 152.926L36.1367 167.454" stroke="#263238" stroke-miterlimit="10"/>
<path d="M42.4386 60.9447L40.8486 62.6195" stroke="#263238" stroke-miterlimit="10"/>
<path d="M69.5116 32.3831L44.3525 58.9202" stroke="#263238" stroke-miterlimit="10"/>
<path d="M71.0853 36.7025L56.9502 51.2298" stroke="#263238" stroke-miterlimit="10"/>
<path d="M160.099 60.9447L158.509 62.6195" stroke="#263238" stroke-miterlimit="10"/>
<path d="M187.171 32.3831L162.012 58.9202" stroke="#263238" stroke-miterlimit="10"/>
<path d="M188.745 36.7025L174.61 51.2298" stroke="#263238" stroke-miterlimit="10"/>
<path d="M123.715 137.509L122.13 139.183" stroke="#263238" stroke-miterlimit="10"/>
<path d="M150.792 108.952L125.633 135.489" stroke="#263238" stroke-miterlimit="10"/>
<path d="M152.361 113.272L138.226 127.799" stroke="#263238" stroke-miterlimit="10"/>
<path d="M109.087 83.0404H138.735C141.336 83.0404 143.83 84.0734 145.669 85.9122C147.507 87.751 148.54 90.245 148.54 92.8454V178.446H99.2822V92.8401C99.2836 90.2406 100.317 87.748 102.156 85.9104C103.995 84.0727 106.488 83.0404 109.087 83.0404Z" fill="#263238" stroke="#263238" stroke-linecap="round" stroke-linejoin="round"/>
<path d="M154.349 228.536L128.331 220.883V212.366H126.863V180.921H122.242V212.366H120.774V220.655L94.7559 228.536V229.782H95.1057C94.9049 230.149 94.8009 230.561 94.8036 230.979C94.8019 231.419 94.9149 231.852 95.1312 232.235C95.3476 232.618 95.6599 232.938 96.0375 233.163C96.415 233.389 96.8448 233.512 97.2846 233.522C97.7243 233.531 98.1588 233.425 98.5454 233.215C98.932 233.005 99.2573 232.699 99.4893 232.325C99.7213 231.951 99.852 231.524 99.8685 231.084C99.8851 230.645 99.787 230.208 99.5838 229.818C99.3806 229.428 99.0793 229.098 98.7097 228.859L98.7627 228.806L122.613 225.939V229.374C122.307 229.744 122.114 230.194 122.054 230.671C121.995 231.147 122.072 231.631 122.277 232.065C122.482 232.5 122.806 232.867 123.212 233.124C123.618 233.381 124.088 233.517 124.568 233.517C125.049 233.517 125.519 233.381 125.925 233.124C126.33 232.867 126.654 232.5 126.859 232.065C127.064 231.631 127.142 231.147 127.082 230.671C127.023 230.194 126.829 229.744 126.524 229.374V225.939L150.321 228.801C149.893 229.053 149.549 229.426 149.331 229.872C149.113 230.318 149.031 230.819 149.095 231.311C149.159 231.804 149.367 232.267 149.692 232.642C150.017 233.018 150.446 233.289 150.924 233.423C151.402 233.557 151.909 233.548 152.382 233.396C152.855 233.244 153.273 232.956 153.584 232.569C153.894 232.181 154.084 231.711 154.13 231.216C154.176 230.722 154.075 230.225 153.84 229.787H154.37L154.349 228.536Z" fill="#263238" stroke="#263238" stroke-linecap="round" stroke-linejoin="round"/>
<path d="M147.014 178.393H101.72C99.5888 178.393 97.8613 180.12 97.8613 182.251V186.136C97.8613 188.267 99.5888 189.995 101.72 189.995H147.014C149.144 189.995 150.872 188.267 150.872 186.136V182.251C150.872 180.12 149.144 178.393 147.014 178.393Z" fill="white" stroke="#263238" stroke-linecap="round" stroke-linejoin="round"/>
<path d="M143.219 159.578H106.399V180.052H143.219V159.578Z" fill="white" stroke="#263238" stroke-linecap="round" stroke-linejoin="round"/>
<path d="M121.436 100.652L115.797 102.862C115.797 102.862 117.837 115.535 120.567 122.075C123.296 128.615 133.239 138.998 133.239 138.998C133.239 138.998 138.391 131.477 140.187 125.509C141.984 119.542 140.108 102.778 140.108 102.778C138.822 102.029 137.407 101.529 135.937 101.304C133.377 100.896 121.436 100.652 121.436 100.652Z" fill="white" stroke="#263238" stroke-linecap="round" stroke-linejoin="round"/>
<path d="M126.916 109.567L129.524 114.575L125.199 124.121L132.148 134.583L136.398 125.016L131.247 114.39L133.944 109.726L130.102 105.883L126.916 109.567Z" fill="#263238" stroke="#263238" stroke-linecap="round" stroke-linejoin="round"/>
<path d="M122.257 100.08L120.455 100.573L118.738 103.594L122.978 115.614L129.932 108.422L137.532 116.187C137.532 116.187 138.433 104.087 138.433 102.698C138.433 101.31 137.209 100.817 136.313 100.578C135.417 100.34 122.257 100.08 122.257 100.08Z" fill="white" stroke="#263238" stroke-linecap="round" stroke-linejoin="round"/>
<path d="M120.456 100.573C120.456 100.573 121.235 111.443 125.756 121.01C128.093 125.939 132.46 132.866 132.46 132.622C132.46 132.378 136.79 119.542 136.955 115.206C137.119 110.871 137.935 101.633 137.935 101.633C137.935 101.633 146.32 104.972 148.323 106.133C151.429 107.929 155.351 108.337 155.271 110.463C155.24 111.236 155.77 116.293 156.443 122.457C156.549 123.437 161.812 131.848 161.923 132.866C163.052 143.132 159.22 147.457 159.029 147.504C158.706 147.584 151.916 147.504 151.916 147.504C151.916 147.504 155.6 164.263 156.156 165.164L156.729 166.06H127.521L126.302 162.381L125.215 166.06H95.1905L99.1973 147.828H94.7824C94.7824 147.828 93.6376 145.538 95.1905 136.952C96.7434 128.366 101.98 106.864 101.98 106.133C101.98 105.401 118.738 102.37 120.456 100.573Z" fill="#D1FF17" stroke="#263238" stroke-linecap="round" stroke-linejoin="round"/>
<path d="M126.699 143.052L126.302 162.381" stroke="#263238" stroke-linecap="round" stroke-linejoin="round"/>
<path d="M137.951 135.728C142.779 131.233 144.905 122.239 144.905 122.239L140.569 120.358L144.74 118.312L141.136 102.942C139.096 101.182 137.898 101.23 137.956 101.617C137.956 101.617 137.14 110.855 136.976 115.19C136.812 119.526 132.471 132.378 132.471 132.622C132.471 132.866 127.664 126.124 125.766 121.01C121.346 109.106 120.498 101.93 120.371 100.557C120.37 100.534 120.362 100.512 120.349 100.493C120.337 100.475 120.319 100.459 120.298 100.45C120.278 100.44 120.255 100.436 120.232 100.438C120.21 100.44 120.188 100.448 120.17 100.462C119.56 100.822 118.05 101.119 116.99 102.052C116.693 104.172 116.311 107.246 116.046 110.627C115.559 116.923 115.559 119.701 115.559 119.701L121.198 121.094L117.191 123.384C117.191 123.384 121.606 127.878 125.284 131.233C128.962 134.588 131.411 135.807 131.411 135.807L126.699 143.052C126.699 143.052 133.128 140.227 137.951 135.728Z" fill="#D1FF17" stroke="#263238" stroke-linecap="round" stroke-linejoin="round"/>
<path d="M121.436 94.6846V101.718C121.436 101.718 123.238 107.601 129.613 108.009C136.318 108.443 137.463 101.961 137.463 101.961V95.7446C137.463 95.7446 125.05 98.7709 121.436 94.6846Z" fill="white" stroke="#263238" stroke-linecap="round" stroke-linejoin="round"/>
<path d="M139.016 85.1976C139.016 85.1976 139.26 82.0176 141.221 82.0176C143.182 82.0176 143.187 85.6958 142.694 87.1692C142.201 88.6426 139.668 89.7026 138.852 88.5578" fill="white"/>
<path d="M139.016 85.1976C139.016 85.1976 139.26 82.0176 141.221 82.0176C143.182 82.0176 143.187 85.6958 142.694 87.1692C142.201 88.6426 139.668 89.7026 138.852 88.5578" stroke="#263238" stroke-linecap="round" stroke-linejoin="round"/>
<path d="M130.88 69.2816C130.88 69.2816 123.656 69.0166 121.16 70.8716C118.664 72.7266 119.189 77.7033 119.189 79.2774C119.189 80.8515 120.37 94.3824 121.16 96.354C121.95 98.3256 127.7 101.325 132.714 100.17C137.728 99.0146 139.281 95.4424 139.541 93.6033C139.8 91.7642 139.806 77.7033 139.541 74.0357C139.276 70.3681 134.421 69.6738 130.88 69.2816Z" fill="white" stroke="#263238" stroke-linecap="round" stroke-linejoin="round"/>
<path d="M139.615 75.472C139.615 74.889 139.573 74.412 139.541 74.0092C139.281 70.331 134.421 69.6738 130.875 69.2816C130.875 69.2816 123.652 69.0166 121.155 70.8716C118.659 72.7266 119.184 77.7033 119.184 79.2774C119.184 79.9081 119.374 82.4574 119.655 85.4042C119.782 85.4755 119.923 85.5163 120.068 85.5234C120.213 85.5305 120.358 85.5036 120.491 85.4449C120.623 85.3863 120.741 85.2974 120.833 85.1854C120.925 85.0735 120.99 84.9415 121.023 84.8C121.553 83.3531 120.763 82.044 121.42 80.2049C122.077 78.3658 122.337 77.1839 123.917 76.2617C124.907 75.6944 125.964 75.2546 127.065 74.9526C127.065 74.9526 123.784 78.758 131.008 78.6255C135.698 78.5195 138.343 77.5443 139.615 75.472Z" fill="#263238" stroke="#263238" stroke-linecap="round" stroke-linejoin="round"/>
<path d="M132.312 82.1765C132.312 82.1765 133.536 87.98 132.391 88.5365C131.247 89.093 130.515 89.2732 129.529 87.3122" stroke="#263238" stroke-linecap="round" stroke-linejoin="round"/>
<path d="M125.935 88.4677C125.935 88.4677 125.686 91.1707 131.166 90.7573" stroke="#263238" stroke-linecap="round" stroke-linejoin="round"/>
<path d="M127.653 82.2984C127.653 82.8602 127.414 83.3213 127.123 83.3213C126.831 83.3213 126.593 82.8602 126.593 82.2984C126.593 81.7366 126.831 81.2755 127.123 81.2755C127.414 81.2755 127.653 81.7313 127.653 82.2984Z" fill="#263238"/>
<path d="M135.868 82.2984C135.868 82.8602 135.629 83.3213 135.338 83.3213C135.046 83.3213 134.808 82.8602 134.808 82.2984C134.808 81.7366 135.046 81.2755 135.338 81.2755C135.629 81.2755 135.868 81.7313 135.868 82.2984Z" fill="#263238"/>
<path d="M128.903 84.7099H124.462C124.232 84.709 124.009 84.6282 123.833 84.4812C123.656 84.3342 123.535 84.1303 123.492 83.9043L122.909 80.7826H130.266L129.884 83.846C129.853 84.0844 129.737 84.3035 129.556 84.4624C129.376 84.6214 129.144 84.7093 128.903 84.7099Z" stroke="#263238" stroke-width="2" stroke-linecap="round" stroke-linejoin="round"/>
<path d="M138.39 84.7099H133.949C133.719 84.7101 133.495 84.6296 133.318 84.4824C133.141 84.3353 133.021 84.1307 132.979 83.9043L132.391 80.7826H139.752L139.36 83.846C139.33 84.0826 139.215 84.3003 139.036 84.459C138.858 84.6177 138.629 84.7068 138.39 84.7099Z" stroke="#263238" stroke-width="2" stroke-linecap="round" stroke-linejoin="round"/>
<path d="M130.266 80.7826H132.391" stroke="#263238" stroke-width="2" stroke-linecap="round" stroke-linejoin="round"/>
<path d="M122.909 80.7826L119.396 82.3355" stroke="#263238" stroke-width="2" stroke-linecap="round" stroke-linejoin="round"/>
<path d="M120.211 85.1976C120.211 85.1976 119.968 82.0176 118.001 82.0176C116.035 82.0176 116.04 85.6958 116.533 87.1692C117.026 88.6426 119.554 89.7026 120.376 88.5578" fill="white"/>
<path d="M120.211 85.1976C120.211 85.1976 119.968 82.0176 118.001 82.0176C116.035 82.0176 116.04 85.6958 116.533 87.1692C117.026 88.6426 119.554 89.7026 120.376 88.5578" stroke="#263238" stroke-linecap="round" stroke-linejoin="round"/>
<path d="M141.385 125.997C140.28 124.954 138.932 124.201 137.463 123.808C136.988 123.644 136.48 123.604 135.985 123.691C135.328 123.691 132.068 122.515 131.252 122.271C130.436 122.027 129.943 122.843 130.192 123.744C130.441 124.645 132.185 125.409 132.842 125.573C133.499 125.737 133.218 125.753 133.218 125.753C133.218 125.753 134.278 128.371 133.791 129.352C133.303 130.332 131.58 132.532 132.153 134.095C132.725 135.659 133.626 136.464 135.423 136.464C137.22 136.464 138.285 136.544 138.693 136.464C139.101 136.385 146.378 139.978 145.583 140.063C144.788 140.148 145.254 132.786 145.254 132.786L141.385 125.997Z" fill="white" stroke="#263238" stroke-linecap="round" stroke-linejoin="round"/>
<path d="M124.87 130.332C124.87 130.332 128.713 128.451 130.594 126.569C132.476 124.688 133.128 124.2 133.774 124.036C134.421 123.872 137.044 123.135 137.696 122.563C138.348 121.99 138.841 123.055 137.86 123.872C137.144 124.454 136.377 124.974 135.571 125.425C135.163 125.674 134.755 126.818 134.755 126.818C134.755 126.818 138.761 125.101 140.15 125.509C141.539 125.917 142.917 127.158 142.832 127.889C142.747 128.62 142.493 128.271 141.592 128.186C140.691 128.101 139.413 127.714 138.412 128.122C137.41 128.53 136.292 129.516 136.292 129.924C136.292 130.332 137.436 130.576 138.337 130.497C139.238 130.417 139.89 130.168 140.786 130.332C141.682 130.497 142.424 130.984 142.503 131.477C142.583 131.97 142.18 131.965 141.194 132.05C140.208 132.134 138.496 132.214 137.924 132.622C137.352 133.03 134.41 134.419 134.903 134.912C135.396 135.404 135.687 135.404 136.668 135.404C137.648 135.404 138.698 134.652 139.27 134.694C140.039 134.753 140.452 134.811 140.452 134.811C140.452 134.811 141.814 134.869 141.692 135.404C141.501 136.263 141.046 136.29 139.069 136.38C137.521 136.454 137.108 136.3 135.719 136.629C134.528 137.012 133.291 137.231 132.041 137.281C129.667 137.445 125.416 136.3 125.416 136.3L124.87 130.332Z" fill="white" stroke="#263238" stroke-linecap="round" stroke-linejoin="round"/>
<path d="M140.299 124.995C140.299 124.995 138.645 123.453 137.697 123.405C136.748 123.358 133.854 125.891 133.457 126.84C133.059 127.788 133.987 127.428 134.755 127.195C135.524 126.962 137.596 126.008 138.306 125.716C138.886 125.43 139.55 125.361 140.177 125.52" fill="white"/>
<path d="M140.299 124.995C140.299 124.995 138.645 123.453 137.697 123.405C136.748 123.358 133.854 125.891 133.457 126.84C133.059 127.788 133.987 127.428 134.755 127.195C135.524 126.962 137.596 126.008 138.306 125.716C138.886 125.43 139.55 125.361 140.177 125.52" stroke="#263238" stroke-linecap="round" stroke-linejoin="round"/>
<path d="M142.429 128.366C142.429 128.366 140.066 127.184 138.587 127.836C137.108 128.488 135.274 129.792 135.274 130.38C135.274 130.968 135.571 130.857 136.864 130.793C138.158 130.73 140.495 130.354 140.808 130.338C141.276 130.391 141.739 130.485 142.191 130.619" fill="white"/>
<path d="M142.429 128.366C142.429 128.366 140.066 127.184 138.587 127.836C137.108 128.488 135.274 129.792 135.274 130.38C135.274 130.968 135.571 130.857 136.864 130.793C138.158 130.73 140.495 130.354 140.808 130.338C141.276 130.391 141.739 130.485 142.191 130.619" stroke="#263238" stroke-linecap="round" stroke-linejoin="round"/>
<path d="M109.256 121.259L107.211 132.214C107.211 132.214 124.955 128.695 125.607 129.187C126.259 129.68 126.853 142.681 126.853 142.681C126.853 142.681 103.941 146.683 101.243 147.584C98.5452 148.485 95.7627 148.644 94.7822 147.828C93.8017 147.011 93.7222 144.966 94.4536 140.938C95.185 136.91 102.223 107.664 102.223 107.664" fill="#D1FF17"/>
<path d="M109.256 121.259L107.211 132.214C107.211 132.214 124.955 128.695 125.607 129.187C126.259 129.68 126.852 142.681 126.852 142.681C126.852 142.681 103.941 146.683 101.243 147.584C98.5452 148.485 95.7627 148.644 94.7822 147.828C93.8017 147.011 93.7222 144.966 94.4536 140.938C95.185 136.91 102.223 107.664 102.223 107.664" stroke="#263238" stroke-linecap="round" stroke-linejoin="round"/>
<path d="M150.379 120.522L151.116 133.03L145.227 132.786L144.66 143.153C144.66 143.153 160.889 146.932 161.79 147.393C162.691 147.854 162.526 146.906 163.586 145.347C164.646 143.789 165.553 140.445 165.468 138.987C165.383 137.53 162.034 132.627 161.954 132.855" fill="#D1FF17"/>
<path d="M150.379 120.522L151.116 133.03L145.227 132.786L144.66 143.153C144.66 143.153 160.889 146.932 161.79 147.393C162.691 147.854 162.526 146.906 163.586 145.347C164.646 143.789 165.553 140.445 165.468 138.987C165.383 137.53 162.034 132.627 161.954 132.855" stroke="#263238" stroke-linecap="round" stroke-linejoin="round"/>
<path d="M151.116 133.03H156.596" stroke="#263238" stroke-linecap="round" stroke-linejoin="round"/>
<path d="M107.21 132.214L99.9336 134.747" stroke="#263238" stroke-linecap="round" stroke-linejoin="round"/>
<path d="M108.949 220.856C108.949 220.856 107.761 225.96 106.103 227.746C104.444 229.532 102.923 230.714 103.018 232.135L103.135 233.56H120.211V229.278C120.211 226.787 119.151 222.388 119.151 220.623C119.151 218.858 108.477 220.74 108.477 220.74" fill="#263238"/>
<path d="M108.949 220.856C108.949 220.856 107.761 225.96 106.103 227.746C104.444 229.532 102.923 230.714 103.018 232.135L103.135 233.56H120.211V229.278C120.211 226.787 119.151 222.388 119.151 220.623C119.151 218.858 108.477 220.74 108.477 220.74" stroke="#263238" stroke-linecap="round" stroke-linejoin="round"/>
<path d="M103.427 230.704C103.137 231.119 102.993 231.618 103.019 232.124L103.135 233.55H120.212V230.704H103.427Z" fill="#586166" stroke="#263238" stroke-linecap="round" stroke-linejoin="round"/>
<path d="M123.774 175.557C123.774 175.557 125.432 165.005 122.586 160.145C119.74 155.285 109.776 155.163 104.206 158.481C98.6356 161.798 96.4679 167.242 98.4819 174.238C100.496 181.234 105.155 181.371 105.155 181.371C105.155 181.371 103.967 190.975 103.967 194.77C103.967 198.565 108.001 222.165 108.001 222.165H119.751C119.751 222.165 123.535 180.539 123.774 175.557Z" fill="#586166" stroke="#263238" stroke-linecap="round" stroke-linejoin="round"/>
<path d="M105.154 181.371L106.336 171.646" stroke="#263238" stroke-linecap="round" stroke-linejoin="round"/>
<path d="M143.468 220.856C143.468 220.856 144.655 225.96 146.314 227.746C147.973 229.532 149.494 230.714 149.398 232.135L149.282 233.56H132.205V229.278C132.205 226.787 133.265 222.388 133.265 220.623C133.265 218.858 143.939 220.74 143.939 220.74" fill="#263238"/>
<path d="M143.468 220.856C143.468 220.856 144.655 225.96 146.314 227.746C147.973 229.532 149.494 230.714 149.398 232.135L149.282 233.56H132.205V229.278C132.205 226.787 133.265 222.388 133.265 220.623C133.265 218.858 143.939 220.74 143.939 220.74" stroke="#263238" stroke-linecap="round" stroke-linejoin="round"/>
<path d="M148.985 230.704C149.276 231.118 149.422 231.618 149.398 232.124L149.282 233.55H132.205V230.704H148.985Z" fill="#586166" stroke="#263238" stroke-linecap="round" stroke-linejoin="round"/>
<path d="M128.644 175.557C128.644 175.557 126.985 165.005 129.831 160.145C132.677 155.285 142.641 155.163 148.211 158.481C153.782 161.798 155.997 167.242 153.978 174.238C151.958 181.234 147.263 181.371 147.263 181.371C147.263 181.371 148.45 190.975 148.45 194.77C148.45 198.565 144.417 222.165 144.417 222.165H132.677C132.677 222.165 128.882 180.539 128.644 175.557Z" fill="#586166" stroke="#263238" stroke-linecap="round" stroke-linejoin="round"/>
<path d="M147.262 181.371L146.075 171.646" stroke="#263238" stroke-linecap="round" stroke-linejoin="round"/>
<path d="M152.939 49.9102H176.397C177.06 49.9102 177.697 50.1737 178.166 50.6429C178.635 51.112 178.898 51.7483 178.898 52.4118V63.298C178.898 63.9614 178.635 64.5977 178.166 65.0669C177.697 65.536 177.06 65.7996 176.397 65.7996H169.353L171.192 70.7816L165.399 65.7996H152.939C152.611 65.7996 152.285 65.7348 151.982 65.6091C151.678 65.4834 151.403 65.2991 151.17 65.0669C150.938 64.8346 150.754 64.5588 150.628 64.2553C150.502 63.9518 150.438 63.6265 150.438 63.298V52.4118C150.438 52.0832 150.502 51.7579 150.628 51.4544C150.754 51.1509 150.938 50.8752 151.17 50.6429C151.403 50.4106 151.678 50.2263 151.982 50.1006C152.285 49.9749 152.611 49.9102 152.939 49.9102Z" fill="#263238" stroke="#263238" stroke-linecap="round" stroke-linejoin="round"/>
<path d="M170.54 58.9201C171.292 58.9201 171.902 58.3103 171.902 57.558C171.902 56.8058 171.292 56.1959 170.54 56.1959C169.788 56.1959 169.178 56.8058 169.178 57.558C169.178 58.3103 169.788 58.9201 170.54 58.9201Z" fill="#D1FF17"/>
<path d="M164.015 58.9201C164.768 58.9201 165.378 58.3103 165.378 57.558C165.378 56.8058 164.768 56.1959 164.015 56.1959C163.263 56.1959 162.653 56.8058 162.653 57.558C162.653 58.3103 163.263 58.9201 164.015 58.9201Z" fill="#D1FF17"/>
<path d="M157.497 58.9201C158.249 58.9201 158.859 58.3103 158.859 57.558C158.859 56.8058 158.249 56.1959 157.497 56.1959C156.745 56.1959 156.135 56.8058 156.135 57.558C156.135 58.3103 156.745 58.9201 157.497 58.9201Z" fill="#D1FF17"/>
<path d="M61.8056 138.489L57.6875 147.186H69.3634L73.4815 138.913L61.8056 138.489Z" fill="#263238" stroke="#263238" stroke-linecap="round" stroke-linejoin="round"/>
<path d="M87.4417 138.489H61.8057L65.9291 147.186H91.5598L87.4417 138.489Z" fill="white" stroke="#263238" stroke-linecap="round" stroke-linejoin="round"/>
<path d="M41.8825 159.164H36.1055V233.518H41.8825V159.164Z" fill="#A3A3A3" stroke="#263238" stroke-linecap="round" stroke-linejoin="round"/>
<path d="M226.799 159.355H221.022V233.709H226.799V159.355Z" fill="#A3A3A3" stroke="#263238" stroke-linecap="round" stroke-linejoin="round"/>
<path d="M229.338 146.948H34.8496V218.609H229.338V146.948Z" fill="#A3A3A3" stroke="#263238" stroke-linecap="round" stroke-linejoin="round"/>
<path d="M229.338 146.948H34.8496V154.405H229.338V146.948Z" fill="#263238" stroke="#263238" stroke-linecap="round" stroke-linejoin="round"/>
<path d="M234.294 146.948H29.8994V151.395H234.294V146.948Z" fill="white" stroke="#263238" stroke-linecap="round" stroke-linejoin="round"/>
<path d="M37.9657 212.604C37.9657 212.604 24.8376 184.641 27.6943 183.831C30.551 183.02 36.54 187.477 36.54 187.477C36.54 187.477 18.9758 140.45 23.5179 136.825C28.06 133.2 36.54 151.819 36.54 151.819C36.54 151.819 27.4823 123.045 28.5476 112.1C29.6129 101.156 41.1192 111.697 41.1192 111.697C41.1192 111.697 31.9025 72.3874 40.4567 70.3575C49.0109 68.3276 48.73 115.344 48.73 115.344C48.73 115.344 51.539 81.7101 54.9681 91.0275C58.3972 100.345 51.1892 131.557 51.1892 131.557C51.1892 131.557 55.8903 121.02 58.5032 130.746C61.1161 140.471 53.3092 179.776 53.3092 179.776C53.3092 179.776 59.9448 173.294 60.5649 181.398C61.185 189.502 46.8326 214.65 46.8326 214.65L38.713 215.44L37.9657 212.604Z" fill="#D1FF17"/>
<path opacity="0.6" d="M37.9657 212.604C37.9657 212.604 24.8376 184.641 27.6943 183.831C30.551 183.02 36.54 187.477 36.54 187.477C36.54 187.477 18.9758 140.45 23.5179 136.825C28.06 133.2 36.54 151.819 36.54 151.819C36.54 151.819 27.4823 123.045 28.5476 112.1C29.6129 101.156 41.1192 111.697 41.1192 111.697C41.1192 111.697 31.9025 72.3874 40.4567 70.3575C49.0109 68.3276 48.73 115.344 48.73 115.344C48.73 115.344 51.539 81.7101 54.9681 91.0275C58.3972 100.345 51.1892 131.557 51.1892 131.557C51.1892 131.557 55.8903 121.02 58.5032 130.746C61.1161 140.471 53.3092 179.776 53.3092 179.776C53.3092 179.776 59.9448 173.294 60.5649 181.398C61.185 189.502 46.8326 214.65 46.8326 214.65L38.713 215.44L37.9657 212.604Z" fill="white"/>
<path d="M40.7796 213.818C40.7796 213.818 29.8351 194.367 31.865 190.721C33.8949 187.074 39.9581 195.57 39.9581 195.57C39.9581 195.57 26.1781 161.12 28.208 157.887C30.2379 154.654 36.688 168.826 36.688 168.826C36.688 168.826 34.2606 121.412 38.3098 123.034C42.359 124.656 42.7936 147.34 42.7936 147.34C42.7936 147.34 40.3609 93.439 44.0126 95.0608C47.6643 96.6826 47.2509 156.657 47.2509 156.657C47.2509 156.657 54.5596 133.56 55.7627 144.118C56.9658 154.675 46.44 183.02 46.44 183.02C46.44 183.02 56.5736 160.733 57.7873 172.483C59.001 184.233 49.6836 206.117 49.6836 206.117C49.6836 206.117 53.33 197.202 53.33 202.068C53.33 206.933 50.4945 213.007 50.4945 213.007" stroke="#263238" stroke-linecap="round" stroke-linejoin="round"/>
<path d="M55.5618 213.664H32.3955V233.709H55.5618V213.664Z" fill="#263238" stroke="#263238" stroke-miterlimit="10"/>
<path d="M182.71 78.0054C182.71 78.0054 180.335 81.9221 179.98 83.6976C179.625 85.4731 180.219 86.1886 179.742 87.4924C179.265 88.7962 177.256 88.8015 177.256 90.1053C177.256 91.4091 178.676 92.5963 179.153 92.9514C179.63 93.3065 178.793 94.8488 179.625 97.1013C180.457 99.3538 180.812 102.2 182.233 102.2C183.703 102.122 185.168 101.963 186.621 101.723L187.331 106.053L197.131 105.163C197.131 105.163 197.014 100.923 199.622 99.1153C202.229 97.308 207.392 87.1373 204.307 80.4964C201.222 73.8555 188.28 72.5517 182.71 78.0054Z" fill="white" stroke="#263238" stroke-linecap="round" stroke-linejoin="round"/>
<path d="M179.46 73.087C179.139 74.1292 179.01 75.221 179.079 76.3094C179.225 78.4017 179.876 80.4274 180.976 82.2136C182.184 84.2117 185.078 85.4837 185.794 87.6143C186.027 88.3245 186.62 90.2219 188.279 90.6989C189.938 91.1759 189.588 91.1706 189.111 94.3718C188.634 97.573 190.06 100.774 192.906 101.606C194.247 101.995 195.663 102.048 197.028 101.758C198.394 101.469 199.667 100.847 200.734 99.9474C202.987 98.1666 207.253 90.8155 207.375 84.1746C207.582 72.4245 196.001 66.6846 185.555 68.1156C184.163 68.2537 182.843 68.7988 181.759 69.683C180.675 70.5672 179.875 71.7511 179.46 73.087Z" fill="#263238" stroke="#263238" stroke-linecap="round" stroke-linejoin="round"/>
<path d="M192.021 103.016C190.44 103.042 188.883 103.403 187.452 104.076C186.127 104.776 181.522 109.175 180.334 109.906C179.147 110.637 176.895 110.261 178.214 110.855C179.534 111.448 180.467 111.565 182.719 110.738C184.972 109.911 189.715 108.247 191.136 108.247C192.556 108.247 197.777 108.957 198.254 109.079C198.731 109.201 201.81 110.616 201.81 110.616C201.81 110.616 200.268 107.298 198.492 105.64C196.717 103.981 194.512 102.894 192.021 103.016Z" fill="white" stroke="#263238" stroke-linecap="round" stroke-linejoin="round"/>
<path d="M188.168 88.2609C187.917 88.361 187.706 88.5419 187.569 88.7751C187.432 89.0083 187.376 89.2805 187.41 89.5488C187.612 91.1132 187.585 92.6985 187.331 94.2552C186.859 96.2692 189.377 96.2692 189.928 92.9673C190.288 90.7837 189.462 87.7998 188.168 88.2609Z" fill="white" stroke="#263238" stroke-linecap="round" stroke-linejoin="round"/>
<path d="M168.357 115.598C168.357 115.598 166.937 116.308 166.82 119.748C166.703 123.188 160.767 147.382 160.412 151.177C160.057 154.972 162.077 157.458 165.511 158.767C168.945 160.076 175.475 162.201 176.641 161.613C177.807 161.025 180.081 148.803 180.907 143.466C181.734 138.129 171.776 119.616 171.304 118.921C170.832 118.227 169.189 115.72 168.357 115.598Z" fill="white" stroke="#263238" stroke-linecap="round" stroke-linejoin="round"/>
<path d="M176.068 143.943L169.544 153.668" stroke="#263238" stroke-linecap="round" stroke-linejoin="round"/>
<path d="M188.65 187.117L196.887 232.697C196.913 232.839 196.969 232.975 197.052 233.094C197.134 233.213 197.241 233.313 197.366 233.388C197.49 233.462 197.629 233.51 197.773 233.527C197.917 233.544 198.063 233.53 198.201 233.486C198.428 233.412 198.622 233.26 198.75 233.058C198.878 232.856 198.931 232.616 198.901 232.379L192.821 186.131L188.65 187.117Z" fill="white" stroke="#263238" stroke-linecap="round" stroke-linejoin="round"/>
<path d="M179.508 177.158C179.508 177.158 176.423 218.779 176.423 219.966C176.423 221.153 173.243 233.603 173.243 233.603H181.76C181.76 233.603 182.587 231.944 182.587 228.504C182.587 225.064 182.947 217.713 182.947 217.003C182.947 216.293 192.434 179.527 192.434 179.527C192.434 179.527 191.957 175.849 187.331 173.697C182.704 171.545 180.218 176.209 179.508 177.158Z" fill="white" stroke="#263238" stroke-linecap="round" stroke-linejoin="round"/>
<path d="M182.588 228.504C182.588 225.361 182.884 218.964 182.937 217.332C178.989 215.116 176.54 218.068 176.54 218.068C176.471 219.128 176.429 219.817 176.429 219.955C176.429 221.142 173.249 233.592 173.249 233.592H181.761C181.761 233.592 182.588 231.944 182.588 228.504Z" fill="#263238" stroke="#263238" stroke-linecap="round" stroke-linejoin="round"/>
<path d="M181.76 233.603C181.76 233.603 182.587 231.944 182.587 228.504C182.587 227.227 182.64 225.404 182.698 223.586C181.877 222.626 180.101 221.158 178.204 223.405C177.372 224.386 175.183 230.576 174.139 233.603H181.76Z" fill="#4F4F4F" stroke="#263238" stroke-linecap="round" stroke-linejoin="round"/>
<path d="M178.204 223.406L178.914 233.603H181.034L182.82 223.167C182.82 223.167 180.457 220.321 178.204 223.406Z" fill="#263238" stroke="#263238" stroke-linecap="round" stroke-linejoin="round"/>
<path d="M162.193 171.72C162.193 171.72 158.515 175.753 158.16 179.193C157.805 182.633 170.493 219.038 170.493 219.038C170.179 220.568 169.487 221.995 168.479 223.188C166.698 225.441 164.207 228.642 163.852 230.778C163.497 232.914 163.852 233.624 163.852 233.624H172.274C172.274 233.624 175.236 226.034 176.423 224.137C177.611 222.24 176.895 218.561 176.54 216.903C176.185 215.244 172.984 176.941 172.984 176.941C172.984 176.941 170.493 168.853 162.193 171.72Z" fill="white" stroke="#263238" stroke-linecap="round" stroke-linejoin="round"/>
<path d="M176.424 224.116C177.452 222.467 177.054 219.483 176.694 217.639C176.251 217.27 175.728 217.01 175.167 216.878C174.606 216.747 174.022 216.748 173.461 216.881C170.97 217.475 170.493 219.001 170.493 219.001C170.18 220.531 169.487 221.958 168.479 223.151C166.698 225.404 164.207 228.605 163.852 230.741C163.497 232.877 163.852 233.587 163.852 233.587H172.274C172.274 233.587 175.237 226.013 176.424 224.116Z" fill="#263238" stroke="#263238" stroke-linecap="round" stroke-linejoin="round"/>
<path d="M167.943 233.603H172.273C172.273 233.603 174.923 226.85 176.206 224.492C175.57 223.909 173.646 222.42 171.796 223.877C169.544 225.658 169.305 230.046 168.717 231.705C168.436 232.484 168.155 233.131 167.943 233.603Z" fill="#4F4F4F" stroke="#263238" stroke-linecap="round" stroke-linejoin="round"/>
<path d="M171.797 223.877L172.274 233.603H173.811L176.418 224.116C176.418 224.116 174.049 221.747 171.797 223.877Z" fill="#263238" stroke="#263238" stroke-linecap="round" stroke-linejoin="round"/>
<path d="M171.765 131.673C173.736 138.33 175.507 150.811 175.507 151.977C175.507 154.097 169.305 166.356 169.305 166.356C169.305 166.356 162.416 169.913 160.767 172.404C160.002 173.505 159.553 174.794 159.47 176.132C159.387 177.471 159.672 178.806 160.295 179.993C161.483 182.362 163.258 183.433 167.185 184.143C171.113 184.853 207.503 184.143 207.503 184.143C207.503 184.143 211.297 179.516 209.517 172.165C208.69 168.741 207.789 165.768 206.792 161.613C206.792 161.613 210.704 161.729 213.55 159.355C216.396 156.981 216.518 153.308 216.518 150.584C216.518 147.859 214.726 125.08 214.726 122.833C214.726 120.586 214.62 117.734 212.5 116.07C210.38 114.406 205.356 111.83 200.84 109.434C197.289 107.563 194.677 107.892 191.83 107.892C188.984 107.892 185.545 110.012 185.545 110.012C185.545 110.012 169.772 114.162 168.585 114.872C167.398 115.582 167.821 116.303 168.256 118.921" fill="white"/>
<path d="M171.765 131.673C173.736 138.33 175.507 150.811 175.507 151.977C175.507 154.097 169.305 166.356 169.305 166.356C169.305 166.356 162.416 169.913 160.767 172.404C160.002 173.505 159.553 174.794 159.47 176.132C159.387 177.471 159.672 178.806 160.295 179.993C161.483 182.362 163.258 183.433 167.185 184.143C171.113 184.853 207.503 184.143 207.503 184.143C207.503 184.143 211.297 179.516 209.517 172.165C208.69 168.741 207.789 165.768 206.792 161.613C206.792 161.613 210.704 161.729 213.55 159.355C216.396 156.981 216.518 153.308 216.518 150.584C216.518 147.859 214.726 125.08 214.726 122.833C214.726 120.586 214.62 117.734 212.5 116.07C210.38 114.406 205.356 111.83 200.84 109.434C197.289 107.563 194.677 107.892 191.83 107.892C188.984 107.892 185.545 110.012 185.545 110.012C185.545 110.012 169.772 114.162 168.585 114.872C167.398 115.582 167.821 116.303 168.256 118.921" stroke="#263238" stroke-linecap="round" stroke-linejoin="round"/>
<path d="M208.679 122.239C208.679 122.239 203.824 150.446 203.824 151.988C203.824 153.53 206.782 161.613 206.782 161.613" stroke="#263238" stroke-linecap="round" stroke-linejoin="round"/>
<path d="M175.252 153.17C174.086 156.917 169.306 166.356 169.306 166.356C169.306 166.356 162.416 169.913 160.767 172.404C160.002 173.505 159.553 174.794 159.47 176.132C159.387 177.471 159.672 178.806 160.295 179.993C161.483 182.362 163.258 183.433 167.186 184.143C171.113 184.853 207.503 184.143 207.503 184.143C207.503 184.143 211.297 179.516 209.517 172.165C208.69 168.741 207.789 165.768 206.792 161.613L203.824 153.17H175.252Z" fill="#263238" stroke="#263238" stroke-miterlimit="10"/>
<path d="M165.039 186.634L158.907 232.559C158.888 232.703 158.9 232.849 158.943 232.988C158.985 233.126 159.056 233.255 159.152 233.363C159.248 233.472 159.366 233.56 159.498 233.619C159.631 233.679 159.774 233.709 159.919 233.709C160.158 233.71 160.389 233.627 160.572 233.475C160.755 233.323 160.879 233.111 160.921 232.877L169.306 186.989L165.039 186.634Z" fill="white" stroke="#263238" stroke-linecap="round" stroke-linejoin="round"/>
<path d="M205.61 186.634L211.742 232.559C211.761 232.703 211.749 232.849 211.707 232.988C211.664 233.126 211.593 233.255 211.497 233.363C211.401 233.472 211.283 233.56 211.151 233.619C211.019 233.679 210.875 233.709 210.73 233.709C210.492 233.71 210.261 233.627 210.078 233.475C209.894 233.323 209.771 233.111 209.728 232.877L201.37 186.989L205.61 186.634Z" fill="white" stroke="#263238" stroke-linecap="round" stroke-linejoin="round"/>
<path d="M181.761 186.634L175.629 232.559C175.61 232.703 175.622 232.849 175.664 232.988C175.707 233.126 175.778 233.255 175.874 233.363C175.97 233.472 176.088 233.56 176.22 233.619C176.352 233.679 176.496 233.709 176.641 233.709C176.879 233.709 177.109 233.626 177.292 233.474C177.475 233.322 177.599 233.111 177.643 232.877L186.027 186.989L181.761 186.634Z" fill="white" stroke="#263238" stroke-linecap="round" stroke-linejoin="round"/>
<path d="M212.235 134.09H173.932C173.932 134.09 172.872 143.1 173.461 150.811C174.049 158.523 175.358 168.36 175.12 174.661C174.881 180.963 171.325 184.387 171.325 184.387H162.786C162.584 184.386 162.384 184.426 162.197 184.502C162.01 184.579 161.839 184.692 161.696 184.835C161.553 184.978 161.439 185.148 161.362 185.335C161.284 185.521 161.244 185.722 161.244 185.924C161.244 186.127 161.284 186.327 161.362 186.514C161.439 186.701 161.553 186.871 161.696 187.015C161.839 187.158 162.009 187.271 162.196 187.349C162.383 187.426 162.584 187.466 162.786 187.466H208.896C211.691 182.958 213.055 177.708 212.808 172.409C212.453 163.399 208.896 153.196 210.078 145.962C211.26 138.727 212.235 134.09 212.235 134.09Z" fill="#D1FF17" stroke="#263238" stroke-linecap="round" stroke-linejoin="round"/>
<path d="M202.096 79.0177C202.096 79.0177 199.727 79.9664 199.605 82.1977C199.484 84.429 198.779 92.1564 195.933 96.5448C193.086 100.933 195.933 107.929 202.929 108.994C209.925 110.06 215.617 99.5075 212.999 88.6001C210.38 77.6927 204.471 78.069 202.096 79.0177Z" fill="#263238" stroke="#263238" stroke-linecap="round" stroke-linejoin="round"/>
<path d="M12.6904 233.709H244.475" stroke="#263238" stroke-linecap="round" stroke-linejoin="round"/>
</svg>
