<svg width="28" height="28" viewBox="0 0 28 28" fill="none" xmlns="http://www.w3.org/2000/svg">
<path d="M14 0.5C21.4558 0.5 27.5 6.54416 27.5 14C27.5 21.4558 21.4558 27.5 14 27.5C6.54416 27.5 0.5 21.4558 0.5 14C0.5 6.54416 6.54416 0.5 14 0.5Z" fill="#1D1D1D"/>
<path d="M14 0.5C21.4558 0.5 27.5 6.54416 27.5 14C27.5 21.4558 21.4558 27.5 14 27.5C6.54416 27.5 0.5 21.4558 0.5 14C0.5 6.54416 6.54416 0.5 14 0.5Z" stroke="#FCFCFC"/>
<path d="M7.99977 20.4001H10.3998V11.5201H7.99977V20.4001ZM9.19977 7.6001C8.39977 7.6001 7.75977 8.2401 7.75977 9.0401C7.75977 9.8401 8.39977 10.4801 9.19977 10.4801C9.99977 10.4801 10.6398 9.8401 10.6398 9.0401C10.6398 8.2401 9.99977 7.6001 9.19977 7.6001ZM14.4798 12.8801V11.5201H12.0798V20.4001H14.4798V15.8401C14.4798 13.2801 17.7598 13.1201 17.7598 15.8401V20.4001H20.1598V14.9601C20.1598 10.6401 15.5998 10.8001 14.4798 12.8801Z" fill="#FCFCFC"/>
</svg>
