<svg width="20" height="21" viewBox="0 0 20 21" fill="none" xmlns="http://www.w3.org/2000/svg">
<path d="M12.0832 7.99999C12.0832 9.15057 11.1504 10.0833 9.99984 10.0833C8.84925 10.0833 7.9165 9.15057 7.9165 7.99999C7.9165 6.8494 8.84925 5.91666 9.99984 5.91666C11.1504 5.91666 12.0832 6.8494 12.0832 7.99999Z" stroke="#FCFCFC" stroke-width="1.5"/>
<path d="M15.1853 14.6667C16.3474 16.3237 16.9033 17.2062 16.5722 17.9166C16.539 17.9878 16.5001 18.0566 16.4559 18.1222C15.9772 18.8333 14.7397 18.8333 12.265 18.8333H7.73535C5.26059 18.8333 4.0232 18.8333 3.54442 18.1222C3.5002 18.0566 3.46132 17.9878 3.42812 17.9166C3.09699 17.2062 3.65288 16.3237 4.81498 14.6667" stroke="#FCFCFC" stroke-width="1.5" stroke-linecap="round" stroke-linejoin="round"/>
<path d="M11.0477 15.078C10.7666 15.3487 10.3909 15.5 10 15.5C9.609 15.5 9.23334 15.3487 8.95225 15.078C6.37842 12.584 2.92916 9.79791 4.61126 5.7531C5.52075 3.56609 7.70395 2.16666 10 2.16666C12.296 2.16666 14.4792 3.5661 15.3887 5.7531C17.0687 9.79282 13.6278 12.5926 11.0477 15.078Z" stroke="#FCFCFC" stroke-width="1.5"/>
</svg>
