<svg width="16" height="17" viewBox="0 0 16 17" fill="none" xmlns="http://www.w3.org/2000/svg">
<path d="M2.66669 7.26218C2.66669 4.2639 5.0545 1.83331 8.00002 1.83331C10.9456 1.83331 13.3334 4.2639 13.3334 7.26218C13.3334 10.237 11.6312 13.7082 8.97529 14.9496C8.35622 15.239 7.64382 15.239 7.02475 14.9496C4.3689 13.7082 2.66669 10.237 2.66669 7.26218Z" stroke="#808080" stroke-width="0.8"/>
<path d="M8 9.16669C9.10457 9.16669 10 8.27126 10 7.16669C10 6.06212 9.10457 5.16669 8 5.16669C6.89543 5.16669 6 6.06212 6 7.16669C6 8.27126 6.89543 9.16669 8 9.16669Z" stroke="#808080" stroke-width="0.8"/>
</svg>
