<svg width="20" height="21" viewBox="0 0 20 21" fill="none" xmlns="http://www.w3.org/2000/svg">
<path d="M9.99984 18.8333L8.33317 13.8333H1.6665L3.33317 18.8333H9.99984ZM9.99984 18.8333H13.3332" stroke="#FCFCFC" stroke-width="1.5" stroke-linecap="round" stroke-linejoin="round"/>
<path d="M10.0002 11.3333V10.9166C10.0002 9.34531 10.0002 8.55962 9.512 8.07147C9.02383 7.58331 8.23818 7.58331 6.66683 7.58331C5.09548 7.58331 4.3098 7.58331 3.82165 8.07147C3.3335 8.55962 3.3335 9.34531 3.3335 10.9166V11.3333" stroke="#FCFCFC" stroke-width="1.5" stroke-linecap="round" stroke-linejoin="round"/>
<path d="M15.8333 11.3334C15.8333 12.2539 15.0872 13 14.1667 13C13.2462 13 12.5 12.2539 12.5 11.3334C12.5 10.4129 13.2462 9.66669 14.1667 9.66669C15.0872 9.66669 15.8333 10.4129 15.8333 11.3334Z" stroke="#FCFCFC" stroke-width="1.5"/>
<path d="M8.33333 3.83335C8.33333 4.75383 7.58714 5.50002 6.66667 5.50002C5.74619 5.50002 5 4.75383 5 3.83335C5 2.91288 5.74619 2.16669 6.66667 2.16669C7.58714 2.16669 8.33333 2.91288 8.33333 3.83335Z" stroke="#FCFCFC" stroke-width="1.5"/>
<path d="M11.6665 15.0833H16.6665C17.587 15.0833 18.3332 15.8295 18.3332 16.75V17.1666C18.3332 18.0871 17.587 18.8333 16.6665 18.8333H15.8332" stroke="#FCFCFC" stroke-width="1.5" stroke-linecap="round"/>
</svg>
