<svg width="300" height="171" viewBox="0 0 300 171" fill="none" xmlns="http://www.w3.org/2000/svg">
<path d="M255.088 119.856C255.088 119.856 265.168 68.928 234.54 40.72C207.504 15.82 165.276 6.73602 131.404 28.4C119.336 36.12 105.036 43.972 90.8556 48.732C74.9556 54.072 57.3516 55.38 42.9115 77.244C28.4715 99.108 37.0915 134.428 57.1715 148.8C77.2516 163.172 113.3 162.6 144.5 160.928C175.7 159.256 239.9 182.76 255.088 119.856Z" fill="#D1FF17"/>
<path opacity="0.7" d="M255.088 119.856C255.088 119.856 265.168 68.928 234.54 40.72C207.504 15.82 165.276 6.73602 131.404 28.4C119.336 36.12 105.036 43.972 90.8556 48.732C74.9556 54.072 57.3516 55.38 42.9115 77.244C28.4715 99.108 37.0915 134.428 57.1715 148.8C77.2516 163.172 113.3 162.6 144.5 160.928C175.7 159.256 239.9 182.76 255.088 119.856Z" fill="white"/>
<path d="M235.636 134.456C235.636 134.456 228.228 139.128 223.216 142C218.204 144.872 211.476 145.76 211.364 146.672C211.252 147.584 203.728 170 203.728 170H276.436C276.436 170 270.968 158.6 269.712 154.4C268.456 150.2 268.46 147.792 267.432 147.336C266.404 146.88 252.844 140.04 246.464 136.052L235.636 134.456Z" fill="white" stroke="#263238" stroke-miterlimit="10"/>
<path d="M214.1 145.448L221.004 170H257.3L268.1 148.152C267.994 147.798 267.755 147.499 267.432 147.32C266.408 146.864 252.844 140.024 246.464 136.036L235.636 134.436C235.636 134.436 228.228 139.128 223.216 142C220.188 143.7 216.54 144.712 214.1 145.448Z" fill="#D1FF17" stroke="#263238" stroke-linecap="round" stroke-linejoin="round"/>
<path d="M235.635 134.456C235.635 134.456 232.959 136.144 229.735 138.112C229.561 138.905 229.428 139.706 229.335 140.512C228.303 149.144 232.183 156.704 237.999 157.4C243.815 158.096 249.367 151.664 250.399 143.032C250.583 141.503 250.613 139.959 250.487 138.424C248.999 137.576 247.623 136.772 246.487 136.056L235.635 134.456Z" fill="white" stroke="#263238" stroke-miterlimit="10"/>
<path d="M235.299 124.656L232.563 138.444C232.563 138.444 233.815 153.716 238.491 153.832C243.167 153.948 248.399 138.8 248.399 138.8L248.627 126.72L235.299 124.656Z" fill="#BABABA" stroke="#263238" stroke-linecap="round" stroke-linejoin="round"/>
<path d="M248.623 126.892L245.651 127.94L239.279 130.836L248.435 137.036L248.623 126.892Z" fill="#263238" stroke="#263238" stroke-miterlimit="10"/>
<path d="M272.791 97.644C272.791 95.8718 272.311 94.1327 271.401 92.612C270.491 91.0912 269.185 89.8457 267.624 89.008C266.785 86.9467 265.265 85.2351 263.317 84.1586C261.369 83.0821 259.111 82.7056 256.919 83.092C256.209 81.5463 255.078 80.2318 253.656 79.2989C252.233 78.366 250.577 77.8524 248.876 77.8169C247.175 77.7814 245.499 78.2255 244.039 79.0983C242.579 79.971 241.394 81.2373 240.62 82.752C238.856 81.7781 236.828 81.389 234.829 81.6407C232.83 81.8924 230.962 82.772 229.494 84.1528C228.027 85.5335 227.035 87.3443 226.663 89.3245C226.29 91.3047 226.555 93.3521 227.42 95.172C225.848 94.72 224.166 94.8664 222.696 95.5829C221.227 96.2994 220.075 97.5351 219.464 99.0513C218.852 100.567 218.825 102.256 219.386 103.792C219.948 105.327 221.058 106.6 222.504 107.364C222.096 108.171 221.868 109.057 221.836 109.961C221.803 110.864 221.967 111.764 222.315 112.599C222.664 113.433 223.189 114.182 223.855 114.794C224.52 115.406 225.311 115.867 226.172 116.144C226.008 116.902 226.006 117.686 226.166 118.445C226.325 119.204 226.643 119.921 227.097 120.549C227.552 121.177 228.134 121.703 228.805 122.092C229.476 122.48 230.221 122.724 230.992 122.805C231.763 122.887 232.543 122.806 233.281 122.567C234.019 122.327 234.698 121.936 235.274 121.417C235.85 120.898 236.311 120.264 236.626 119.555C236.942 118.847 237.104 118.08 237.104 117.304C237.104 115.896 236.564 114.542 235.596 113.52L236.876 102.432L250.78 103.572L249.148 118.684C248.914 119.588 248.888 120.534 249.074 121.449C249.26 122.365 249.651 123.226 250.219 123.968C250.786 124.709 251.515 125.312 252.351 125.731C253.186 126.149 254.105 126.372 255.039 126.382C255.973 126.392 256.897 126.19 257.742 125.79C258.586 125.39 259.328 124.804 259.912 124.075C260.496 123.346 260.906 122.493 261.112 121.582C261.318 120.671 261.313 119.725 261.1 118.816C262.513 118.719 263.877 118.26 265.061 117.483C266.246 116.706 267.21 115.637 267.861 114.379C268.512 113.121 268.828 111.716 268.779 110.3C268.73 108.885 268.316 107.506 267.58 106.296C269.152 105.463 270.467 104.217 271.385 102.693C272.304 101.169 272.79 99.4234 272.791 97.644Z" fill="#263238" stroke="#263238" stroke-miterlimit="10"/>
<path d="M232.1 112.576C232.1 112.576 229.936 107.776 228.34 111.664C226.744 115.552 229.7 118.4 231.764 119.528C233.828 120.656 232.1 112.576 232.1 112.576Z" fill="#BABABA" stroke="#263238" stroke-linecap="round" stroke-linejoin="round"/>
<path d="M255.299 114.896C255.299 114.896 257.991 110.388 259.139 114.416C260.287 118.444 257.015 120.944 254.847 121.84C252.679 122.736 255.299 114.896 255.299 114.896Z" fill="#BABABA" stroke="#263238" stroke-linecap="round" stroke-linejoin="round"/>
<path d="M231.647 109.728C231.647 109.728 231.535 119.984 233.015 122.832C234.495 125.68 239.739 133.2 243.043 132.86C246.347 132.52 251.135 127.504 252.391 125.568C252.947 124.77 253.441 123.932 253.871 123.06L256.271 112.348C256.271 112.348 255.247 111.548 255.359 109.5C255.465 108.178 255.854 106.894 256.499 105.736C256.024 105.513 255.61 105.178 255.292 104.76C254.974 104.342 254.763 103.854 254.675 103.336C254.535 102.24 254.459 101.137 254.447 100.032C254.447 100.032 249.891 98.7761 247.383 95.2321C247.383 95.2321 243.507 97.7401 240.431 96.1441C240.431 96.1441 237.695 100.944 234.959 100.248C234.951 100.268 236.319 108.7 231.647 109.728Z" fill="#BABABA" stroke="#263238" stroke-linecap="round" stroke-linejoin="round"/>
<path d="M237.231 106.536C237.231 106.536 241.231 104.028 243.159 107.336" stroke="#263238" stroke-miterlimit="10"/>
<path d="M247.716 108.928L252.276 109.272" stroke="#263238" stroke-miterlimit="10"/>
<path d="M239.968 111.6C239.968 112.448 239.636 113.136 239.228 113.136C238.82 113.136 238.5 112.456 238.5 111.6C238.5 110.744 238.828 110.06 239.24 110.06C239.652 110.06 239.968 110.756 239.968 111.6Z" fill="#263238" stroke="#263238" stroke-miterlimit="10"/>
<path d="M250.655 113.396C250.431 114.216 249.935 114.796 249.539 114.688C249.143 114.58 249.003 113.832 249.223 113.008C249.443 112.184 249.943 111.612 250.339 111.716C250.735 111.82 250.875 112.576 250.655 113.396Z" fill="#263238" stroke="#263238" stroke-miterlimit="10"/>
<path d="M241.675 116.452L240.991 118.616L246.575 119.072L246.351 117.476" stroke="#263238" stroke-miterlimit="10"/>
<path d="M241.903 123.404L244.411 123.744" stroke="#263238" stroke-miterlimit="10"/>
<path d="M233.584 132.748L230.964 148.8L213.3 169.672H226.976L235.18 151.096C235.18 151.096 237.12 150.072 238.032 149.16C238.944 148.248 240.08 145.96 240.08 145.96C240.08 145.96 239.624 147.784 240.652 148.808C241.68 149.832 242.816 149.492 242.816 148.924C242.816 148.356 242.588 146.416 242.704 145.16C242.82 143.904 244.304 138.664 243.504 137.64C242.704 136.616 236.78 136.84 236.78 136.84L236.552 134.672C236.552 134.672 243.392 133.872 243.848 132.736C244.304 131.6 244.648 130.912 242.82 131.028C240.992 131.144 238.948 130.8 236.668 131.368C234.388 131.936 234.04 131.72 233.584 132.748Z" fill="#BABABA" stroke="#263238" stroke-linecap="round" stroke-linejoin="round"/>
<path d="M235.863 139.472C235.863 139.472 240.099 138.8 240.991 138.8C241.883 138.8 243.271 139.824 243.271 139.824" stroke="#263238" stroke-miterlimit="10"/>
<path d="M235.979 142.776C235.979 142.776 240.079 141.296 241.335 141.068C242.591 140.84 243.043 142.668 243.043 142.668" stroke="#263238" stroke-miterlimit="10"/>
<path d="M236.776 136.852L235.18 137.42" stroke="#263238" stroke-miterlimit="10"/>
<path d="M275.056 54.372C275.059 52.1196 274.199 49.9516 272.652 48.3145C271.105 46.6774 268.989 45.6959 266.74 45.572C267.109 44.0484 267.065 42.4538 266.611 40.953C266.158 39.4523 265.312 38.1 264.16 37.036C263.009 35.9719 261.594 35.2347 260.062 34.9007C258.531 34.5667 256.938 34.6479 255.448 35.136C255.068 33.3701 254.155 31.7636 252.832 30.5334C251.509 29.3032 249.841 28.5088 248.052 28.2575C246.264 28.0062 244.441 28.3102 242.83 29.1283C241.22 29.9464 239.9 31.2392 239.048 32.832C238.085 31.367 236.706 30.2232 235.088 29.5471C233.471 28.871 231.688 28.6935 229.969 29.0373C228.25 29.3811 226.672 30.2306 225.439 31.4769C224.206 32.7231 223.373 34.3093 223.048 36.032C221.077 36.7756 219.437 38.1995 218.423 40.0466C217.41 41.8937 217.091 44.0422 217.524 46.104C215.751 47.4125 214.533 49.3386 214.112 51.5016C213.69 53.6646 214.096 55.9069 215.248 57.7854C216.4 59.6639 218.215 61.0417 220.334 61.6466C222.453 62.2514 224.722 62.0393 226.692 61.052C226.783 62.3615 227.167 63.6339 227.814 64.7761C228.461 65.9183 229.355 66.9012 230.431 67.6529C231.507 68.4046 232.738 68.906 234.033 69.1204C235.328 69.3348 236.655 69.2568 237.916 68.892C238.248 70.6702 239.119 72.303 240.412 73.568C241.705 74.8331 243.357 75.669 245.142 75.9619C246.927 76.2548 248.758 75.9905 250.388 75.205C252.017 74.4195 253.365 73.1509 254.248 71.572C255.588 72.1437 257.05 72.3735 258.501 72.2408C259.953 72.108 261.348 71.6169 262.563 70.8115C263.778 70.0061 264.773 68.9117 265.46 67.6264C266.147 66.3412 266.505 64.9054 266.5 63.448C266.5 63.36 266.5 63.272 266.5 63.184C268.793 63.1204 270.971 62.1636 272.569 60.5175C274.168 58.8715 275.06 56.6663 275.056 54.372Z" fill="#263238" stroke="#263238" stroke-linecap="round" stroke-linejoin="round"/>
<path d="M232.576 73.784C235.013 73.784 236.988 72.3173 236.988 70.508C236.988 68.6987 235.013 67.232 232.576 67.232C230.139 67.232 228.164 68.6987 228.164 70.508C228.164 72.3173 230.139 73.784 232.576 73.784Z" fill="#263238" stroke="#263238" stroke-linecap="round" stroke-linejoin="round"/>
<path d="M232.52 78.272C232.52 79.536 231.14 80.556 229.444 80.556C227.748 80.556 226.368 79.536 226.368 78.272C226.368 77.008 227.744 75.988 229.444 75.988C231.144 75.988 232.52 77.012 232.52 78.272Z" fill="#263238" stroke="#263238" stroke-linecap="round" stroke-linejoin="round"/>
<path d="M273.904 51.784C273.907 49.5322 273.047 47.3648 271.501 45.7278C269.955 44.0908 267.84 43.1089 265.592 42.984C265.961 41.4604 265.917 39.8658 265.463 38.3651C265.01 36.8643 264.164 35.512 263.012 34.448C261.861 33.3839 260.446 32.6467 258.915 32.3127C257.383 31.9787 255.79 32.0599 254.3 32.548C253.918 30.7836 253.004 29.1789 251.681 27.9503C250.359 26.7216 248.691 25.9282 246.903 25.6771C245.116 25.4259 243.294 25.7291 241.684 26.5458C240.074 27.3624 238.753 28.6532 237.9 30.244C236.937 28.7791 235.558 27.6352 233.94 26.9591C232.323 26.283 230.54 26.1055 228.821 26.4493C227.102 26.7931 225.524 27.6426 224.291 28.8889C223.058 30.1351 222.225 31.7213 221.9 33.444C219.927 34.1834 218.285 35.6062 217.272 37.4537C216.259 39.3013 215.942 41.4509 216.38 43.512C214.601 44.8183 213.378 46.7454 212.953 48.9113C212.528 51.0771 212.932 53.3235 214.086 55.2051C215.24 57.0867 217.058 58.4661 219.181 59.0697C221.304 59.6733 223.577 59.4571 225.548 58.464C225.704 60.6895 226.7 62.7727 228.333 64.292C229.967 65.8114 232.117 66.6535 234.348 66.648C235.169 66.6474 235.987 66.5302 236.776 66.3C237.107 68.0785 237.978 69.7117 239.271 70.9772C240.564 72.2428 242.215 73.0792 244 73.3726C245.785 73.6659 247.617 73.402 249.247 72.6167C250.877 71.8314 252.225 70.563 253.108 68.984C254.449 69.5466 255.909 69.7692 257.357 69.632C258.805 69.4947 260.197 69.0019 261.409 68.1973C262.621 67.3926 263.615 66.3011 264.304 65.0197C264.992 63.7383 265.354 62.3067 265.356 60.852C265.356 60.76 265.356 60.676 265.356 60.588C267.646 60.5224 269.821 59.5658 271.417 57.9217C273.014 56.2776 273.906 54.0756 273.904 51.784Z" fill="white" stroke="#263238" stroke-miterlimit="10"/>
<path d="M235.84 67.916C235.84 69.728 233.864 71.196 231.44 71.196C229.016 71.196 227.04 69.728 227.04 67.916C227.04 66.104 229.016 64.64 231.44 64.64C233.864 64.64 235.84 66.108 235.84 67.916Z" fill="white" stroke="#263238" stroke-miterlimit="10"/>
<path d="M231.368 75.684C231.368 76.944 229.992 77.968 228.292 77.968C226.592 77.968 225.216 76.944 225.216 75.684C225.216 74.424 226.596 73.4 228.292 73.4C229.988 73.4 231.368 74.424 231.368 75.684Z" fill="white" stroke="#263238" stroke-miterlimit="10"/>
<path d="M237.575 49.632C237.575 49.3306 237.486 49.0359 237.319 48.7853C237.151 48.5347 236.913 48.3393 236.635 48.224C236.356 48.1086 236.05 48.0785 235.754 48.1373C235.458 48.1961 235.187 48.3412 234.974 48.5543C234.761 48.7675 234.615 49.039 234.557 49.3347C234.498 49.6303 234.528 49.9367 234.643 50.2152C234.759 50.4937 234.954 50.7317 235.205 50.8991C235.455 51.0666 235.75 51.156 236.051 51.156C236.455 51.1549 236.842 50.994 237.128 50.7084C237.413 50.4229 237.574 50.0358 237.575 49.632Z" fill="#263238"/>
<path d="M244.9 49.632C244.9 49.3306 244.81 49.0359 244.643 48.7853C244.475 48.5347 244.237 48.3393 243.959 48.224C243.68 48.1086 243.374 48.0785 243.078 48.1373C242.783 48.1961 242.511 48.3412 242.298 48.5543C242.085 48.7675 241.94 49.039 241.881 49.3347C241.822 49.6303 241.852 49.9367 241.968 50.2152C242.083 50.4937 242.278 50.7317 242.529 50.8991C242.78 51.0666 243.074 51.156 243.376 51.156C243.78 51.156 244.167 50.9954 244.453 50.7096C244.739 50.4238 244.9 50.0362 244.9 49.632Z" fill="#263238"/>
<path d="M252.203 49.632C252.203 49.3306 252.114 49.0359 251.946 48.7853C251.779 48.5347 251.541 48.3393 251.262 48.224C250.984 48.1086 250.678 48.0785 250.382 48.1373C250.086 48.1961 249.815 48.3412 249.602 48.5543C249.389 48.7675 249.243 49.039 249.185 49.3347C249.126 49.6303 249.156 49.9367 249.271 50.2152C249.387 50.4937 249.582 50.7317 249.833 50.8991C250.083 51.0666 250.378 51.156 250.679 51.156C251.083 51.1549 251.47 50.994 251.756 50.7084C252.041 50.4229 252.202 50.0358 252.203 49.632Z" fill="#263238"/>
<path d="M167.552 96.736C167.552 96.736 165.152 86.82 154.56 86.592C143.968 86.364 138.376 96.4 137.7 98.444C137.024 100.488 123.452 106.308 124.82 112.804C126.188 119.3 131.772 114.968 132.02 117.604C132.268 120.24 127.22 126.376 130.196 131.732C133.172 137.088 136.124 140.508 143.416 137.092C150.708 133.676 153.904 129.796 156.296 131.848C158.688 133.9 160.056 136.976 168.72 134.468C177.384 131.96 174.188 125.008 173.392 120.564C172.596 116.12 180.228 112.7 177.836 105.976C175.444 99.252 170.284 95.368 167.552 96.736Z" fill="#263238" stroke="#263238" stroke-miterlimit="10"/>
<path d="M148.52 132.176L150 137.876C150 137.876 142.364 142.092 137.348 144.144C134.535 145.333 131.588 146.175 128.572 146.652L122.876 169.9H189.772C189.772 169.9 180.544 148.588 179.86 146.88C179.176 145.172 178.832 144.26 178.832 144.26C178.832 144.26 168.348 141.86 165.272 140.26C162.196 138.66 161.624 137.756 161.624 137.756L161.3 124.2L148.52 132.176Z" fill="#D1FF17" stroke="#263238" stroke-linecap="round" stroke-linejoin="round"/>
<path d="M165.844 140.54C165.632 140.448 165.444 140.356 165.272 140.268C162.196 138.668 161.624 137.764 161.624 137.764L161.3 124.2L148.536 132.176L150.016 137.876C150.016 137.876 148.108 138.928 145.576 140.236L143.064 154.06L161.528 154.86L165.844 140.54Z" fill="white" stroke="#263238" stroke-miterlimit="10"/>
<path d="M159.117 128.076L160.709 124.556L148.521 132.176L150.001 137.876L151.025 142.208L159.117 128.076Z" fill="#263238" stroke="#263238" stroke-miterlimit="10"/>
<path d="M130.512 169.9L133.704 154.172" stroke="#263238" stroke-miterlimit="10"/>
<path d="M170.856 170.016L174.732 151.664" stroke="#263238" stroke-miterlimit="10"/>
<path d="M147.472 105.72C146.509 106.854 145.437 107.891 144.272 108.816C142.62 110.052 138.8 110.464 138.8 110.464C138.8 110.464 139.316 119.664 140.348 124.088C141.38 128.512 145.924 133.48 146.956 134C147.988 134.52 156.66 130.596 159.032 128.944C161.404 127.292 162.748 123.06 162.748 123.06C164.076 122.583 165.276 121.807 166.256 120.792C168.012 119.036 167.496 114.6 167.496 114.6C167.496 114.6 165.12 117.076 163.988 117.28C162.856 117.484 161.404 114.184 161.404 114.184C161.404 114.184 156.76 113.876 155.628 111.604C154.496 109.332 156.968 105.204 154.8 102.404C152.632 99.604 147.472 105.72 147.472 105.72Z" fill="white" stroke="#263238" stroke-miterlimit="10"/>
<path d="M143.86 113.564C144.162 114.61 144.369 115.681 144.48 116.764C144.584 118.212 143.036 123.888 143.036 123.888H146.856" stroke="#263238" stroke-miterlimit="10"/>
<path d="M144.792 126.564C146.326 127.112 148.002 127.112 149.536 126.564C152.016 125.636 153.976 121.404 153.976 121.404" stroke="#263238" stroke-miterlimit="10"/>
<path d="M146.864 126.992C146.864 126.992 147.264 130.692 149.332 129.56C151.4 128.428 151.7 124.916 151.7 124.916C150.426 126.22 148.687 126.967 146.864 126.992Z" fill="#263238" stroke="#263238" stroke-miterlimit="10"/>
<path d="M150.352 117.444C150.761 117.444 151.092 116.844 151.092 116.104C151.092 115.364 150.761 114.764 150.352 114.764C149.944 114.764 149.612 115.364 149.612 116.104C149.612 116.844 149.944 117.444 150.352 117.444Z" fill="#263238" stroke="#263238" stroke-miterlimit="10"/>
<path d="M142.901 115.2C142.901 115.94 142.601 116.54 142.233 116.54C141.865 116.54 141.561 115.94 141.561 115.2C141.561 114.46 141.861 113.856 142.233 113.856C142.605 113.856 142.901 114.444 142.901 115.2Z" fill="#263238" stroke="#263238" stroke-miterlimit="10"/>
<path d="M147.984 112.08C147.984 112.08 151.092 109.256 153.492 113.212" stroke="#263238" stroke-miterlimit="10"/>
<path d="M143.54 112.152C143.54 112.152 140.504 110.456 139.868 113.352" stroke="#263238" stroke-miterlimit="10"/>
<path d="M174.255 37.896H131.055C130.465 37.897 129.881 38.0144 129.335 38.2413C128.79 38.4682 128.295 38.8003 127.879 39.2185C127.462 39.6367 127.132 40.133 126.907 40.6788C126.682 41.2247 126.566 41.8096 126.567 42.4V68.14C126.567 68.7304 126.684 69.3151 126.91 69.8605C127.136 70.406 127.467 70.9017 127.884 71.3192C128.302 71.7366 128.797 72.0678 129.343 72.2938C129.888 72.5197 130.473 72.636 131.063 72.636H153.607L159.271 83.548L160.299 72.636H174.255C174.846 72.636 175.43 72.5197 175.976 72.2938C176.521 72.0678 177.017 71.7366 177.435 71.3192C177.852 70.9017 178.183 70.406 178.409 69.8605C178.635 69.3151 178.751 68.7304 178.751 68.14V42.4C178.752 41.8089 178.637 41.2234 178.411 40.677C178.186 40.1306 177.855 39.634 177.437 39.2157C177.02 38.7973 176.524 38.4654 175.978 38.239C175.432 38.0126 174.846 37.896 174.255 37.896Z" fill="#263238" stroke="#263238" stroke-linecap="round" stroke-linejoin="round"/>
<path d="M172.752 35.788H129.552C128.359 35.788 127.216 36.2617 126.373 37.1049C125.529 37.948 125.056 39.0916 125.056 40.284V66.024C125.056 67.2164 125.529 68.36 126.373 69.2032C127.216 70.0463 128.359 70.52 129.552 70.52H152.1L157.768 81.432L158.796 70.52H172.752C173.944 70.52 175.088 70.0463 175.931 69.2032C176.774 68.36 177.248 67.2164 177.248 66.024V40.284C177.248 39.0916 176.774 37.948 175.931 37.1049C175.088 36.2617 173.944 35.788 172.752 35.788Z" fill="white" stroke="#263238" stroke-miterlimit="10"/>
<path d="M145.235 53.9C145.236 53.5984 145.148 53.3034 144.981 53.0522C144.814 52.8011 144.576 52.6051 144.297 52.4892C144.019 52.3732 143.713 52.3425 143.417 52.4008C143.121 52.4592 142.849 52.604 142.635 52.817C142.422 53.0299 142.276 53.3015 142.217 53.5972C142.158 53.893 142.188 54.1996 142.303 54.4783C142.418 54.757 142.614 54.9952 142.864 55.1629C143.115 55.3305 143.41 55.42 143.711 55.42C144.115 55.42 144.502 55.26 144.788 54.9751C145.073 54.6901 145.234 54.3035 145.235 53.9Z" fill="#263238"/>
<path d="M152.552 53.9C152.553 53.5984 152.464 53.3034 152.297 53.0522C152.13 52.8011 151.892 52.6051 151.614 52.4892C151.335 52.3732 151.029 52.3425 150.733 52.4008C150.437 52.4592 150.165 52.604 149.952 52.817C149.738 53.0299 149.593 53.3015 149.533 53.5972C149.474 53.893 149.504 54.1996 149.62 54.4783C149.735 54.757 149.93 54.9952 150.181 55.1629C150.432 55.3305 150.726 55.42 151.028 55.42C151.431 55.42 151.818 55.26 152.104 54.9751C152.39 54.6901 152.551 54.3035 152.552 53.9Z" fill="#263238"/>
<path d="M159.863 53.9C159.864 53.5984 159.776 53.3034 159.609 53.0522C159.442 52.8011 159.204 52.6051 158.925 52.4892C158.647 52.3732 158.34 52.3425 158.045 52.4008C157.749 52.4592 157.477 52.604 157.263 52.817C157.05 53.0299 156.904 53.3015 156.845 53.5972C156.786 53.893 156.816 54.1996 156.931 54.4783C157.046 54.757 157.242 54.9952 157.492 55.1629C157.743 55.3305 158.038 55.42 158.339 55.42C158.743 55.42 159.13 55.26 159.416 54.9751C159.701 54.6901 159.862 54.3035 159.863 53.9Z" fill="#263238"/>
<path d="M56.6718 138.848C56.6718 138.848 36.0318 151.54 36.0318 152.8C36.0318 154.06 31.7998 170 31.7998 170H110.648C110.648 170 101.448 149.152 99.7078 147.808C97.9678 146.464 77.1038 136.252 75.3518 135.528C73.5998 134.804 56.6718 138.848 56.6718 138.848Z" fill="#D1FF17" stroke="#263238" stroke-linecap="round" stroke-linejoin="round"/>
<path d="M41.6037 169.912L40.0557 158.456" stroke="#263238" stroke-miterlimit="10"/>
<path d="M104.248 169.912L99.2959 152.16" stroke="#263238" stroke-miterlimit="10"/>
<path d="M71.6357 151.748C71.6357 151.748 73.5957 162.792 73.9077 163.408C74.2197 164.024 77.2997 163.2 77.2997 163.2L76.2677 156.4" stroke="#263238" stroke-miterlimit="10"/>
<path d="M56.776 132.14C56.776 132.14 54.092 134.512 53.68 138.02C53.268 141.528 55.332 153.088 57.188 152.78C59.044 152.472 61.832 148.136 63.484 147.62C65.136 147.104 74.112 145.348 75.144 144.936C76.176 144.524 79.584 145.452 80.616 146.176C81.648 146.9 83.296 147.62 83.504 146.484C83.712 145.348 81.748 137.284 79.376 132.552C77.004 127.82 71.944 127.496 67.612 128.116C63.28 128.736 56.776 132.14 56.776 132.14Z" fill="white" stroke="#263238" stroke-miterlimit="10"/>
<path d="M53.5762 125.328C53.5762 125.328 59.1482 141.22 61.4202 143.388C63.6922 145.556 69.0562 152.264 71.6362 151.748C74.2162 151.232 75.6602 141.324 75.4562 137.504C75.2522 133.684 72.5642 120.476 72.5642 120.476C72.5642 120.476 71.8442 122.852 66.6842 125.432C61.5242 128.012 53.5762 125.328 53.5762 125.328Z" fill="white" stroke="#263238" stroke-miterlimit="10"/>
<path d="M66.3722 130.28C68.4178 127.577 70.2348 124.709 71.8042 121.704C71.0362 122.636 69.5402 124 66.6842 125.432C61.5242 128.012 53.5762 125.328 53.5762 125.328C53.5762 125.328 55.7162 131.432 57.8842 136.592C60.0322 135.72 63.7362 133.816 66.3722 130.28Z" fill="#263238" stroke="#263238" stroke-miterlimit="10"/>
<path d="M48.6196 115.628C48.6196 115.628 45.9396 115.832 46.4556 118.308C46.9716 120.784 50.1676 123.676 51.1996 123.78C52.2316 123.884 52.2316 123.056 52.2316 123.056L48.6196 115.628Z" fill="white" stroke="#263238" stroke-miterlimit="10"/>
<path d="M70.832 110.928C70.832 110.928 73.108 109.488 74.176 111.78C75.244 114.072 74.412 118.304 73.648 119.004C72.884 119.704 72.388 119.044 72.388 119.044L70.832 110.928Z" fill="white" stroke="#263238" stroke-miterlimit="10"/>
<path d="M47.0721 102.624C47.0721 102.624 44.7001 108.196 45.3201 109.744C45.9401 111.292 48.6201 115.628 48.6201 115.628C48.6201 115.628 51.8202 124.916 53.8842 126.668C55.9482 128.42 60.2842 131.004 64.3081 130.384C68.3321 129.764 73.1842 126.464 73.2882 121.508C73.3922 116.552 65.5481 96.948 65.5481 96.948C64.1015 96.1498 62.4409 95.8252 60.8001 96.02C58.0001 96.328 51.3041 95.62 49.3441 97.052C47.3841 98.484 46.8681 100.352 47.0721 102.624Z" fill="white" stroke="#263238" stroke-miterlimit="10"/>
<path d="M46.1437 101.076C46.1437 101.076 43.3437 105.408 43.6677 107.576C43.9917 109.744 48.6197 115.628 48.6197 115.628C48.6197 115.628 46.3517 110.156 46.9717 108.092C47.5917 106.028 48.6197 105.1 48.4157 103.244C48.2117 101.388 47.3837 101.384 47.7957 100.352C48.2077 99.32 47.3957 97.98 51.0997 98.908C54.8037 99.836 58.6317 100.664 61.7277 99.528C64.8237 98.392 68.8477 95.088 68.4357 91.58C68.0237 88.072 64.7197 88.588 62.7597 89.928C60.7997 91.268 61.2117 93.336 59.4597 91.892C57.7077 90.448 57.8077 87.556 54.7117 88.588C51.6157 89.62 45.0077 93.336 46.1437 101.076Z" fill="#263238" stroke="#263238" stroke-miterlimit="10"/>
<path d="M65.5479 96.948C65.5479 96.948 69.1479 107.372 69.8799 108.816C70.3563 109.809 70.7367 110.846 71.0159 111.912C71.0159 111.912 72.4599 107.268 71.5319 104.172C70.6039 101.076 65.5479 96.948 65.5479 96.948Z" fill="#263238" stroke="#263238" stroke-miterlimit="10"/>
<path d="M60.8756 103.284L59.9756 105.308L61.3156 108.712" stroke="#263238" stroke-miterlimit="10"/>
<path d="M63.2762 111.5C63.2762 111.5 61.8322 113.564 60.0762 114.08" stroke="#263238" stroke-miterlimit="10"/>
<path d="M55.124 115.832C55.124 115.832 57.496 118.308 58.944 118.104C60.392 117.9 64.824 116.864 65.744 115.42C66.664 113.976 66.776 111.82 66.776 111.82" stroke="#263238" stroke-miterlimit="10"/>
<path d="M58.9434 118.104C58.9434 118.104 62.1434 120.992 63.2754 120.684C64.4074 120.376 64.7194 116.556 64.7194 116.556L58.9434 118.104Z" fill="#263238" stroke="#263238" stroke-miterlimit="10"/>
<path d="M53.0601 110.364C53.0601 110.364 52.9561 108.092 55.6401 108.816" stroke="#263238" stroke-miterlimit="10"/>
<path d="M62.5557 107.164C62.5557 107.164 63.7917 104.792 65.6517 106.132" stroke="#263238" stroke-miterlimit="10"/>
<path d="M50.376 106.44C50.376 106.44 51.304 103.036 55.432 103.76" stroke="#263238" stroke-width="3" stroke-miterlimit="10" stroke-linecap="round"/>
<path d="M61.832 102C61.832 102 63.792 99.112 66.168 102.104" stroke="#263238" stroke-width="3" stroke-miterlimit="10" stroke-linecap="round"/>
<path d="M84.4116 65.084C82.2354 65.0777 80.0708 65.4014 77.9916 66.044L72.9876 60.348C76.1618 56.8371 77.933 52.281 77.9636 47.548C77.9636 36.008 67.3236 26.648 54.1996 26.648C41.0756 26.648 30.4316 36 30.4316 47.552C30.4316 59.104 41.0716 68.456 54.1996 68.456C59.9974 68.5004 65.6385 66.5753 70.1996 62.996L74.8356 67.324C70.3036 69.676 67.3236 73.656 67.3236 78.168C67.3236 83.924 72.1796 88.812 78.9236 90.568L76.2036 98.328L83.0676 91.2C83.5116 91.224 83.9556 91.244 84.4116 91.244C93.8356 91.244 101.48 85.384 101.48 78.16C101.48 70.936 93.8356 65.084 84.4116 65.084Z" fill="#263238" stroke="#263238" stroke-miterlimit="10"/>
<path d="M82.6719 63.636C80.5023 63.6313 78.3446 63.955 76.2719 64.596L71.2639 58.9C74.4408 55.3905 76.2137 50.8338 76.2439 46.1C76.2439 34.56 65.6039 25.2 52.4759 25.2C39.3479 25.2 28.7119 34.56 28.7119 46.1C28.7119 57.64 39.3519 67.004 52.4759 67.004C58.274 67.0503 63.9157 65.1251 68.4759 61.544L73.1159 65.872C68.5839 68.224 65.6039 72.204 65.6039 76.716C65.6039 82.472 70.4599 87.36 77.2039 89.116L74.4799 96.876L81.3359 89.764C81.7759 89.788 82.2239 89.808 82.6759 89.808C92.1039 89.808 99.7439 83.948 99.7439 76.724C99.7439 69.5 92.0999 63.636 82.6719 63.636Z" fill="white" stroke="#263238" stroke-miterlimit="10"/>
<path d="M44.6676 48.108C45.5092 48.108 46.1916 47.4257 46.1916 46.584C46.1916 45.7423 45.5092 45.06 44.6676 45.06C43.8259 45.06 43.1436 45.7423 43.1436 46.584C43.1436 47.4257 43.8259 48.108 44.6676 48.108Z" fill="#263238"/>
<path d="M51.984 48.108C52.8256 48.108 53.508 47.4257 53.508 46.584C53.508 45.7423 52.8256 45.06 51.984 45.06C51.1423 45.06 50.46 45.7423 50.46 46.584C50.46 47.4257 51.1423 48.108 51.984 48.108Z" fill="#263238"/>
<path d="M60.8195 46.584C60.8195 46.2826 60.7301 45.9879 60.5626 45.7373C60.3952 45.4867 60.1572 45.2914 59.8787 45.176C59.6002 45.0607 59.2938 45.0305 58.9982 45.0893C58.7025 45.1481 58.431 45.2932 58.2179 45.5064C58.0047 45.7195 57.8596 45.9911 57.8008 46.2867C57.742 46.5823 57.7721 46.8887 57.8875 47.1672C58.0028 47.4457 58.1982 47.6837 58.4488 47.8512C58.6994 48.0186 58.9941 48.108 59.2955 48.108C59.6997 48.108 60.0873 47.9474 60.3731 47.6616C60.6589 47.3758 60.8195 46.9882 60.8195 46.584Z" fill="#263238"/>
<path d="M77.2755 77.364C77.2755 77.0626 77.1862 76.768 77.0187 76.5173C76.8512 76.2667 76.6132 76.0714 76.3348 75.956C76.0563 75.8407 75.7498 75.8105 75.4542 75.8693C75.1586 75.9281 74.887 76.0733 74.6739 76.2864C74.4608 76.4995 74.3156 76.7711 74.2568 77.0667C74.198 77.3623 74.2282 77.6688 74.3435 77.9472C74.4589 78.2257 74.6542 78.4637 74.9049 78.6312C75.1555 78.7986 75.4501 78.888 75.7515 78.888C76.1557 78.888 76.5434 78.7275 76.8292 78.4417C77.115 78.1559 77.2755 77.7682 77.2755 77.364Z" fill="#263238"/>
<path d="M84.5919 77.364C84.5919 77.0626 84.5026 76.768 84.3351 76.5173C84.1676 76.2667 83.9296 76.0714 83.6512 75.956C83.3727 75.8407 83.0663 75.8105 82.7706 75.8693C82.475 75.9281 82.2034 76.0733 81.9903 76.2864C81.7772 76.4995 81.632 76.7711 81.5732 77.0667C81.5144 77.3623 81.5446 77.6688 81.66 77.9472C81.7753 78.2257 81.9706 78.4637 82.2213 78.6312C82.4719 78.7986 82.7665 78.888 83.0679 78.888C83.4718 78.887 83.8588 78.7261 84.1444 78.4405C84.43 78.1549 84.5909 77.7679 84.5919 77.364Z" fill="#263238"/>
<path d="M91.9035 77.364C91.9035 77.0626 91.8141 76.768 91.6466 76.5173C91.4792 76.2667 91.2412 76.0714 90.9627 75.956C90.6842 75.8407 90.3778 75.8105 90.0822 75.8693C89.7865 75.9281 89.515 76.0733 89.3018 76.2864C89.0887 76.4995 88.9436 76.7711 88.8848 77.0667C88.8259 77.3623 88.8561 77.6688 88.9715 77.9472C89.0868 78.2257 89.2822 78.4637 89.5328 78.6312C89.7834 78.7986 90.078 78.888 90.3795 78.888C90.7837 78.888 91.1713 78.7275 91.4571 78.4417C91.7429 78.1559 91.9035 77.7682 91.9035 77.364Z" fill="#263238"/>
<path d="M16.168 170.016H289.56" stroke="#263238" stroke-miterlimit="10"/>
</svg>
