<svg width="280" height="251" viewBox="0 0 280 251" fill="none" xmlns="http://www.w3.org/2000/svg">
<path d="M237.049 100.8C238.321 87.6624 241.361 75.2248 235.985 62.5912C226.118 39.4072 196.354 27.0984 173.226 38.08C161.399 43.68 151.285 51.8728 138.26 54.88C103.103 62.9944 48.8389 19.7624 29.7037 70.0952C23.1349 87.3656 25.7837 110.124 37.6613 124.561C41.4749 129.192 46.1341 133.224 48.9565 138.522C56.6789 153.02 45.7477 168.952 40.8197 182.476C29.1157 214.435 73.2437 232.12 97.1949 235.379C136.787 240.8 169.446 195.44 208.82 213.92C236.26 226.8 260.34 195.44 255.3 164.08C252.001 143.55 235.302 123.9 236.865 102.978C236.921 102.256 236.982 101.534 237.049 100.8Z" fill="#D1FF17"/>
<path opacity="0.7" d="M237.049 100.8C238.321 87.6624 241.361 75.2248 235.985 62.5912C226.118 39.4072 196.354 27.0984 173.226 38.08C161.399 43.68 151.285 51.8728 138.26 54.88C103.103 62.9944 48.8389 19.7624 29.7037 70.0952C23.1349 87.3656 25.7837 110.124 37.6613 124.561C41.4749 129.192 46.1341 133.224 48.9565 138.522C56.6789 153.02 45.7477 168.952 40.8197 182.476C29.1157 214.435 73.2437 232.12 97.1949 235.379C136.787 240.8 169.446 195.44 208.82 213.92C236.26 226.8 260.34 195.44 255.3 164.08C252.001 143.55 235.302 123.9 236.865 102.978C236.921 102.256 236.982 101.534 237.049 100.8Z" fill="white"/>
<path d="M48.5311 109.346C59.2105 109.346 67.8679 100.688 67.8679 90.0088C67.8679 79.3294 59.2105 70.672 48.5311 70.672C37.8517 70.672 29.1943 79.3294 29.1943 90.0088C29.1943 100.688 37.8517 109.346 48.5311 109.346Z" fill="white" stroke="#2E353A" stroke-linecap="round" stroke-linejoin="round"/>
<path d="M47.0917 107.425C57.7711 107.425 66.4285 98.7674 66.4285 88.088C66.4285 77.4086 57.7711 68.7512 47.0917 68.7512C36.4123 68.7512 27.7549 77.4086 27.7549 88.088C27.7549 98.7674 36.4123 107.425 47.0917 107.425Z" fill="white" stroke="#2E353A" stroke-linecap="round" stroke-linejoin="round"/>
<path d="M47.0918 105.504C56.7104 105.504 64.5078 97.7066 64.5078 88.088C64.5078 78.4694 56.7104 70.672 47.0918 70.672C37.4732 70.672 29.6758 78.4694 29.6758 88.088C29.6758 97.7066 37.4732 105.504 47.0918 105.504Z" fill="#2E353A" stroke="#2E353A" stroke-linecap="round" stroke-linejoin="round"/>
<path d="M45.0477 74.9952C45.0477 74.9952 43.1269 70.1904 39.7669 66.8304C36.4069 63.4704 22.7093 61.3032 22.7093 61.3032C24.9212 63.4366 26.9326 65.7685 28.7181 68.2696C31.8373 72.5928 42.1581 82.4432 42.1581 82.4432C42.1581 82.4432 37.1181 78.12 32.5485 77.6384C27.9789 77.1568 16.4541 79.5592 15.7485 79.5592C15.0429 79.5592 20.0717 81.48 23.6781 83.16C27.2845 84.84 41.2117 86.2848 41.2117 86.2848C41.2117 86.2848 35.2085 87.9648 31.1317 89.4096C27.0549 90.8544 23.1909 101.416 23.1909 101.416C23.1909 101.416 28.4773 96.6112 33.0413 95.4128C37.6053 94.2144 44.0901 92.0528 44.0901 92.0528C44.0901 92.0528 40.0077 96.6168 39.0501 99.7416C38.0925 102.866 38.8093 110.068 38.8093 110.068C38.8093 110.068 40.9709 103.348 43.6141 100.699C46.2573 98.0504 49.1301 93.52 49.1301 93.52C50.4606 95.6887 51.6648 97.9325 52.7365 100.24C54.6573 104.322 55.8557 110.32 55.8557 110.32C55.8557 110.32 58.9805 103.6 58.7397 100.24C58.4989 96.88 54.8981 90.8712 54.8981 90.8712C54.8981 90.8712 57.3005 89.1912 60.9013 90.6304C64.5021 92.0696 70.7517 98.0784 70.7517 98.0784C70.7517 98.0784 69.3069 90.1488 66.9045 87.0296C64.5021 83.9104 54.1757 82.9416 54.1757 82.9416C54.1757 82.9416 59.9437 79.5816 63.5445 78.8592C67.1453 78.1368 71.9445 79.8224 71.9445 79.8224C71.9445 79.8224 66.4229 72.1336 62.0997 71.652C57.7765 71.1704 51.2917 77.8792 51.2917 77.8792L53.2181 68.2696C53.6941 65.8672 52.7365 59.8696 52.7365 59.8696C52.7365 59.8696 50.0933 61.3088 46.9685 65.8728C46.054 67.1874 45.4128 68.6722 45.0829 70.2392C44.7529 71.8062 44.741 73.4235 45.0477 74.9952Z" fill="#D1FF17"/>
<path opacity="0.5" d="M45.0477 74.9952C45.0477 74.9952 43.1269 70.1904 39.7669 66.8304C36.4069 63.4704 22.7093 61.3032 22.7093 61.3032C24.9212 63.4366 26.9326 65.7685 28.7181 68.2696C31.8373 72.5928 42.1581 82.4432 42.1581 82.4432C42.1581 82.4432 37.1181 78.12 32.5485 77.6384C27.9789 77.1568 16.4541 79.5592 15.7485 79.5592C15.0429 79.5592 20.0717 81.48 23.6781 83.16C27.2845 84.84 41.2117 86.2848 41.2117 86.2848C41.2117 86.2848 35.2085 87.9648 31.1317 89.4096C27.0549 90.8544 23.1909 101.416 23.1909 101.416C23.1909 101.416 28.4773 96.6112 33.0413 95.4128C37.6053 94.2144 44.0901 92.0528 44.0901 92.0528C44.0901 92.0528 40.0077 96.6168 39.0501 99.7416C38.0925 102.866 38.8093 110.068 38.8093 110.068C38.8093 110.068 40.9709 103.348 43.6141 100.699C46.2573 98.0504 49.1301 93.52 49.1301 93.52C50.4606 95.6887 51.6648 97.9325 52.7365 100.24C54.6573 104.322 55.8557 110.32 55.8557 110.32C55.8557 110.32 58.9805 103.6 58.7397 100.24C58.4989 96.88 54.8981 90.8712 54.8981 90.8712C54.8981 90.8712 57.3005 89.1912 60.9013 90.6304C64.5021 92.0696 70.7517 98.0784 70.7517 98.0784C70.7517 98.0784 69.3069 90.1488 66.9045 87.0296C64.5021 83.9104 54.1757 82.9416 54.1757 82.9416C54.1757 82.9416 59.9437 79.5816 63.5445 78.8592C67.1453 78.1368 71.9445 79.8224 71.9445 79.8224C71.9445 79.8224 66.4229 72.1336 62.0997 71.652C57.7765 71.1704 51.2917 77.8792 51.2917 77.8792L53.2181 68.2696C53.6941 65.8672 52.7365 59.8696 52.7365 59.8696C52.7365 59.8696 50.0933 61.3088 46.9685 65.8728C46.054 67.1874 45.4128 68.6722 45.0829 70.2392C44.7529 71.8062 44.741 73.4235 45.0477 74.9952Z" fill="black"/>
<path d="M49.7793 67.6816C49.9473 66.9928 50.1321 66.304 50.3393 65.6264" stroke="#2E353A" stroke-width="0.5" stroke-linecap="round" stroke-linejoin="round"/>
<path d="M33.7354 67.6816C35.9754 69.3224 38.7754 71.6016 40.2426 73.556C42.8858 77.1568 48.1721 84.8456 48.1721 84.8456C48.0207 79.6814 48.4301 74.516 49.3929 69.44" stroke="#2E353A" stroke-width="0.5" stroke-linecap="round" stroke-linejoin="round"/>
<path d="M30.3984 65.3856C30.3984 65.3856 31.0984 65.8336 32.1456 66.556" stroke="#2E353A" stroke-width="0.5" stroke-linecap="round" stroke-linejoin="round"/>
<path d="M48.1729 84.8456C48.1729 84.8456 57.3008 75.7176 61.1424 74.9952C64.984 74.2728 68.3496 77.1568 68.3496 77.1568" stroke="#2E353A" stroke-width="0.5" stroke-linecap="round" stroke-linejoin="round"/>
<path d="M31.8594 92.4784C29.6194 93.8896 29.4346 94.7184 29.4346 94.7184" stroke="#2E353A" stroke-width="0.5" stroke-linecap="round" stroke-linejoin="round"/>
<path d="M68.1089 93.2512C68.1089 93.2512 66.6697 89.6448 61.6241 87.9648C56.5785 86.2848 48.6601 86.044 48.6601 86.044C48.6601 86.044 37.5441 89.684 33.4785 91.5824" stroke="#2E353A" stroke-width="0.5" stroke-linecap="round" stroke-linejoin="round"/>
<path d="M43.7988 84.672C46.4868 85.456 48.654 86.044 48.654 86.044" stroke="#2E353A" stroke-width="0.5" stroke-linecap="round" stroke-linejoin="round"/>
<path d="M26.8809 80.4048C29.4905 80.5616 32.8505 80.92 34.7209 81.7208C36.2441 82.376 39.2457 83.3224 42.0793 84.168" stroke="#2E353A" stroke-width="0.5" stroke-linecap="round" stroke-linejoin="round"/>
<path d="M23.1914 80.2816C23.1914 80.2816 24.0706 80.2816 25.3642 80.332" stroke="#2E353A" stroke-width="0.5" stroke-linecap="round" stroke-linejoin="round"/>
<path d="M48.1722 87.4832C48.1722 87.4832 41.4522 97.5632 40.965 99.9768C40.6764 101.401 40.5152 102.847 40.4834 104.3" stroke="#2E353A" stroke-width="0.5" stroke-linecap="round" stroke-linejoin="round"/>
<path d="M51.1631 90.6584C52.4567 92.3384 54.0079 94.5784 54.6575 96.3704C55.4136 98.5568 55.9758 100.805 56.3375 103.09" stroke="#2E353A" stroke-width="0.5" stroke-linecap="round" stroke-linejoin="round"/>
<path d="M49.1299 88.2056C49.1299 88.2056 49.6899 88.7992 50.4123 89.712" stroke="#2E353A" stroke-width="0.5" stroke-linecap="round" stroke-linejoin="round"/>
<path d="M41.996 77.0672C41.996 77.0672 40.7584 72.0272 41.5256 67.3512C42.2928 62.6752 52.1656 52.9144 52.1656 52.9144C51.6169 55.9372 51.3451 59.0038 51.3536 62.076C51.3536 67.4072 48.6936 81.4296 48.6936 81.4296C48.6936 81.4296 50.2672 74.9784 53.6944 71.9096C57.1216 68.8408 67.8904 64.0696 68.4728 63.6608C69.0552 63.252 66.0816 67.7432 64.1384 71.2152C62.1952 74.6872 51.7064 84 51.7064 84C51.7064 84 57.564 81.8608 61.7192 80.64C65.8744 79.4192 75.1592 85.7696 75.1592 85.7696C75.1592 85.7696 68.064 84.952 63.6568 86.6376C59.2496 88.3232 52.72 90.3504 52.72 90.3504C52.72 90.3504 58.7008 91.6776 61.2992 93.6544C63.8976 95.6312 67.5264 101.92 67.5264 101.92C67.5264 101.92 61.848 97.7144 58.1576 97.1096C54.4672 96.5048 49.4664 94.4832 49.4664 94.4832C49.6561 97.02 49.9889 99.544 50.4632 102.043C51.2864 106.484 53.8232 112.062 53.8232 112.062C53.8232 112.062 47.3664 108.422 45.5968 105.549C43.8272 102.676 43.256 95.6984 43.256 95.6984C43.256 95.6984 40.3216 95.732 38.216 99.0024C36.1104 102.273 34.5592 110.796 34.5592 110.796C34.5592 110.796 31.1096 103.516 31.2384 99.596C31.3672 95.676 39.196 88.8552 39.196 88.8552C39.196 88.8552 32.5544 89.488 29.2056 91C25.8568 92.512 22.9336 96.684 22.9336 96.684C22.9336 96.684 22.9336 87.22 26.1704 84.308C29.4072 81.396 38.5968 83.076 38.5968 83.076L31.4288 76.3952C29.6368 74.7152 26.9152 69.2832 26.9152 69.2832C26.9152 69.2832 29.9056 68.9136 35.1024 70.8008C36.6129 71.3297 38.0017 72.157 39.1859 73.2336C40.3702 74.3101 41.3259 75.6138 41.996 77.0672Z" fill="#D1FF17"/>
<path d="M33.8866 73.8864C33.3266 73.4216 32.8002 72.9736 32.2402 72.5368" stroke="#2E353A" stroke-width="0.5" stroke-linecap="round" stroke-linejoin="round"/>
<path d="M46.9181 64.5288C46.0501 67.172 45.0813 70.6496 45.0589 73.0912C45.0141 77.5712 45.2045 86.884 45.2045 86.884C42.3141 82.6021 38.9661 78.6476 35.2197 75.0904" stroke="#2E353A" stroke-width="0.5" stroke-linecap="round" stroke-linejoin="round"/>
<path d="M48.2958 60.7152C48.2958 60.7152 47.9822 61.488 47.5566 62.6808" stroke="#2E353A" stroke-width="0.5" stroke-linecap="round" stroke-linejoin="round"/>
<path d="M45.2042 86.884C45.2042 86.884 32.4642 84.7952 28.925 86.4528C25.3858 88.1104 24.333 92.4 24.333 92.4" stroke="#2E353A" stroke-width="0.5" stroke-linecap="round" stroke-linejoin="round"/>
<path d="M62.9121 83.5688C65.5385 83.4232 66.1657 83.9552 66.1657 83.9552" stroke="#2E353A" stroke-width="0.5" stroke-linecap="round" stroke-linejoin="round"/>
<path d="M33.9151 105.342C33.9151 105.342 32.9855 101.573 36.0991 97.2664C39.2127 92.96 45.5183 88.144 45.5183 88.144C45.5183 88.144 56.6679 84.6104 61.0751 83.7872" stroke="#2E353A" stroke-width="0.5" stroke-linecap="round" stroke-linejoin="round"/>
<path d="M48.6594 84.196C46.9346 86.3968 45.5234 88.144 45.5234 88.144" stroke="#2E353A" stroke-width="0.5" stroke-linecap="round" stroke-linejoin="round"/>
<path d="M59.9096 70.8624C57.8824 72.5424 55.3624 74.7824 54.3096 76.5016C53.4528 77.924 51.5656 80.4216 49.7568 82.7792" stroke="#2E353A" stroke-width="0.5" stroke-linecap="round" stroke-linejoin="round"/>
<path d="M62.8337 68.6056C62.8337 68.6056 62.1225 69.1208 61.0977 69.916" stroke="#2E353A" stroke-width="0.5" stroke-linecap="round" stroke-linejoin="round"/>
<path d="M46.7441 89.04C46.7441 89.04 58.0953 93.3072 59.8817 94.9816C60.947 95.9696 61.9215 97.0509 62.7937 98.2128" stroke="#2E353A" stroke-width="0.5" stroke-linecap="round" stroke-linejoin="round"/>
<path d="M46.1677 93.3521C46.0893 95.4689 46.1285 98.1849 46.6605 100.033C47.3206 102.253 48.1771 104.41 49.2197 106.478" stroke="#2E353A" stroke-width="0.5" stroke-linecap="round" stroke-linejoin="round"/>
<path d="M46.3863 90.16C46.3863 90.16 46.2967 90.9552 46.2295 92.1312" stroke="#2E353A" stroke-width="0.5" stroke-linecap="round" stroke-linejoin="round"/>
<path d="M79.3648 102.721H206.3C207.885 102.721 209.405 103.35 210.525 104.471C211.646 105.591 212.275 107.111 212.275 108.696V191.016C212.275 191.874 212.106 192.724 211.778 193.517C211.449 194.31 210.968 195.03 210.361 195.637C209.754 196.244 209.034 196.725 208.241 197.054C207.448 197.382 206.598 197.551 205.74 197.551H79.9248C79.0666 197.551 78.2168 197.382 77.4239 197.054C76.6311 196.725 75.9106 196.244 75.3038 195.637C74.6969 195.03 74.2155 194.31 73.8871 193.517C73.5587 192.724 73.3896 191.874 73.3896 191.016V108.696C73.3896 107.111 74.0192 105.591 75.1397 104.471C76.2603 103.35 77.7801 102.721 79.3648 102.721Z" fill="white" stroke="#2E353A" stroke-linecap="round" stroke-linejoin="round"/>
<path d="M125.822 112.056H118.005V117.191H125.822V112.056Z" fill="#2E353A"/>
<path d="M100.493 143.735H93.2354V150.937H100.493V143.735Z" fill="#2E353A"/>
<path d="M132.559 118.423H125.245V125.625H132.559V118.423Z" fill="#2E353A"/>
<path d="M116.767 112.056H108.949V117.191H116.767V112.056Z" fill="#2E353A"/>
<path d="M141.105 118.423H133.791V125.625H141.105V118.423Z" fill="#2E353A"/>
<path d="M134.872 112.056H127.055V117.191H134.872V112.056Z" fill="#2E353A"/>
<path d="M96.1091 135.296H82.3555V142.498H96.1091V135.296Z" fill="#2E353A"/>
<path d="M115.462 118.423H108.148V125.625H115.462V118.423Z" fill="#2E353A"/>
<path d="M92.0043 143.735H82.3555V150.937H92.0043V143.735Z" fill="#2E353A"/>
<path d="M143.927 112.056H136.109V117.191H143.927V112.056Z" fill="#2E353A"/>
<path d="M98.3654 118.423H91.0518V125.625H98.3654V118.423Z" fill="#2E353A"/>
<path d="M98.6623 112.056H90.8447V117.191H98.6623V112.056Z" fill="#2E353A"/>
<path d="M107.717 112.056H99.8994V117.191H107.717V112.056Z" fill="#2E353A"/>
<path d="M106.911 118.423H99.5977V125.625H106.911V118.423Z" fill="#2E353A"/>
<path d="M124.008 118.423H116.694V125.625H124.008V118.423Z" fill="#2E353A"/>
<path d="M180.142 112.056H172.324V117.191H180.142V112.056Z" fill="#2E353A"/>
<path d="M189.192 112.056H181.374V117.191H189.192V112.056Z" fill="#2E353A"/>
<path d="M183.85 118.423H176.536V125.625H183.85V118.423Z" fill="#2E353A"/>
<path d="M192.401 118.423H185.087V125.625H192.401V118.423Z" fill="#2E353A"/>
<path d="M205.925 143.735H195.156V150.937H205.925V143.735Z" fill="#2E353A"/>
<path d="M198.247 112.056H190.43V117.191H198.247V112.056Z" fill="#2E353A"/>
<path d="M89.8203 118.423H82.3555V125.625H89.8203V118.423Z" fill="#2E353A"/>
<path d="M152.983 112.056H145.165V117.191H152.983V112.056Z" fill="#2E353A"/>
<path d="M162.031 112.056H154.214V117.191H162.031V112.056Z" fill="#2E353A"/>
<path d="M158.207 118.423H150.894V125.625H158.207V118.423Z" fill="#2E353A"/>
<path d="M175.304 118.423H167.99V125.625H175.304V118.423Z" fill="#2E353A"/>
<path d="M149.655 118.423H142.342V125.625H149.655V118.423Z" fill="#2E353A"/>
<path d="M166.753 118.423H159.439V125.625H166.753V118.423Z" fill="#2E353A"/>
<path d="M171.087 112.056H163.27V117.191H171.087V112.056Z" fill="#2E353A"/>
<path d="M159.949 143.735H152.691V150.937H159.949V143.735Z" fill="#2E353A"/>
<path d="M198.029 135.296H190.771V142.498H198.029V135.296Z" fill="#2E353A"/>
<path d="M189.533 135.296H182.275V142.498H189.533V135.296Z" fill="#2E353A"/>
<path d="M193.919 143.735H186.661V150.937H193.919V143.735Z" fill="#2E353A"/>
<path d="M185.429 143.735H178.171V150.937H185.429V143.735Z" fill="#2E353A"/>
<path d="M168.438 143.735H161.181V150.937H168.438V143.735Z" fill="#2E353A"/>
<path d="M176.933 143.735H169.676V150.937H176.933V143.735Z" fill="#2E353A"/>
<path d="M181.038 135.296H173.78V142.498H181.038V135.296Z" fill="#2E353A"/>
<path d="M172.549 135.296H165.291V142.498H172.549V135.296Z" fill="#2E353A"/>
<path d="M205.93 112.056H199.484V117.191H205.93V112.056Z" fill="#2E353A"/>
<path d="M89.6131 112.056H82.3555V117.191H89.6131V112.056Z" fill="#2E353A"/>
<path d="M205.931 152.169H82.3555V159.656H205.931V152.169Z" fill="#2E353A"/>
<path d="M205.925 118.423H193.633V125.625H205.925V118.423Z" fill="#2E353A"/>
<path d="M205.925 135.296H199.261V142.498H205.925V135.296Z" fill="#2E353A"/>
<path d="M197.211 134.008H195.974V126.862H188.716V134.008H187.484V126.862H180.227V134.008H178.989V126.862H171.731V134.008H170.494V126.862H163.236V134.008H162.004V126.862H154.747V134.008H153.509V126.862H146.251V134.008H145.014V126.862H137.756V134.008H136.524V126.862H129.267V134.008H128.029V126.862H120.771V134.008H119.534V126.862H112.276V134.008H111.044V126.862H103.787V134.008H102.549V126.862H95.2915V134.008H94.0539V126.862H82.3555V134.064H205.925V126.862H197.211V134.008Z" fill="#2E353A"/>
<path d="M138.573 135.296H131.315V142.498H138.573V135.296Z" fill="#2E353A"/>
<path d="M164.053 135.296H156.796V142.498H164.053V135.296Z" fill="#2E353A"/>
<path d="M121.589 135.296H114.331V142.498H121.589V135.296Z" fill="#2E353A"/>
<path d="M125.973 143.735H118.716V150.937H125.973V143.735Z" fill="#2E353A"/>
<path d="M130.078 135.296H122.82V142.498H130.078V135.296Z" fill="#2E353A"/>
<path d="M113.094 135.296H105.836V142.498H113.094V135.296Z" fill="#2E353A"/>
<path d="M108.989 143.735H101.731V150.937H108.989V143.735Z" fill="#2E353A"/>
<path d="M117.478 143.735H110.221V150.937H117.478V143.735Z" fill="#2E353A"/>
<path d="M147.068 135.296H139.811V142.498H147.068V135.296Z" fill="#2E353A"/>
<path d="M151.453 143.735H144.195V150.937H151.453V143.735Z" fill="#2E353A"/>
<path d="M155.558 135.296H148.301V142.498H155.558V135.296Z" fill="#2E353A"/>
<path d="M134.469 143.735H127.211V150.937H134.469V143.735Z" fill="#2E353A"/>
<path d="M142.958 143.735H135.7V150.937H142.958V143.735Z" fill="#2E353A"/>
<path d="M104.598 135.296H97.3408V142.498H104.598V135.296Z" fill="#2E353A"/>
<path d="M220.205 51.2008H64.715C63.9525 51.2014 63.2003 51.3773 62.5166 51.715C61.833 52.0527 61.2361 52.5431 60.7722 53.1483C60.3083 53.7535 59.9898 54.4572 59.8413 55.2051C59.6928 55.9531 59.7183 56.7251 59.9158 57.4616L71.2838 99.7864C71.5671 100.843 72.1909 101.777 73.0585 102.443C73.9261 103.109 74.9891 103.47 76.083 103.471H91.9534V106.4H193.7V103.488H208.82C209.914 103.487 210.977 103.126 211.844 102.459C212.712 101.793 213.336 100.86 213.619 99.8032L224.987 57.4784C225.187 56.7422 225.215 55.9698 225.069 55.2209C224.923 54.4721 224.606 53.767 224.144 53.1601C223.682 52.5532 223.086 52.0608 222.403 51.721C221.72 51.3813 220.968 51.2033 220.205 51.2008Z" fill="#2E353A" stroke="#2E353A" stroke-linecap="round" stroke-linejoin="round"/>
<path d="M202.621 99.736H82.2991L70.2646 56.4312H214.65L202.621 99.736Z" fill="#D1FF17" stroke="#2E353A" stroke-linecap="round" stroke-linejoin="round"/>
<path d="M90.2845 80.7296V81.2896H88.1621V80.7296H90.2845Z" fill="#2E353A"/>
<path d="M92.9278 80.7296V81.2896H90.7998V80.7296H92.9278Z" fill="#2E353A"/>
<path d="M95.5712 80.7296V81.2896H93.46V80.7296H95.5712Z" fill="#2E353A"/>
<path d="M98.2083 80.7296V81.2896H96.0859V80.7296H98.2083Z" fill="#2E353A"/>
<path d="M100.852 80.7296V81.2896H98.7236V80.7296H100.852Z" fill="#2E353A"/>
<path d="M103.495 80.7296V81.2896H101.367V80.7296H103.495Z" fill="#2E353A"/>
<path d="M106.132 80.7296V81.2896H104.01V80.7296H106.132Z" fill="#2E353A"/>
<path d="M108.748 83.6808L106.407 77.4424H106.967L109.308 83.6808H108.748Z" fill="#2E353A"/>
<path d="M88.1458 71.6464V72.2064H86.0234V71.6464H88.1458Z" fill="#2E353A"/>
<path d="M90.7884 71.6464V72.2064H88.666V71.6464H90.7884Z" fill="#2E353A"/>
<path d="M93.46 71.6464V72.2064H91.332V71.6464H93.46Z" fill="#2E353A"/>
<path d="M96.0753 71.6464V72.2064H93.9473V71.6464H96.0753Z" fill="#2E353A"/>
<path d="M98.7122 71.6464V72.2064H96.5898V71.6464H98.7122Z" fill="#2E353A"/>
<path d="M103.182 71.6464V72.2064H101.054V71.6464H103.182Z" fill="#2E353A"/>
<path d="M105.819 71.6464V72.2064H103.696V71.6464H105.819Z" fill="#2E353A"/>
<path d="M108.462 71.6464V72.2064H106.34V71.6464H108.462Z" fill="#2E353A"/>
<path d="M111.106 71.6464V72.2064H108.978V71.6464H111.106Z" fill="#2E353A"/>
<path d="M113.743 71.6464V72.2064H111.62V71.6464H113.743Z" fill="#2E353A"/>
<path d="M116.386 71.6464V72.2064H114.264V71.6464H116.386Z" fill="#2E353A"/>
<path d="M119.029 71.6464V72.2064H116.901V71.6464H119.029Z" fill="#2E353A"/>
<path d="M123.493 71.6464V72.2064H121.37V71.6464H123.493Z" fill="#2E353A"/>
<path d="M126.136 71.6464V72.2064H124.008V71.6464H126.136Z" fill="#2E353A"/>
<path d="M128.779 71.6464V72.2064H126.651V71.6464H128.779Z" fill="#2E353A"/>
<path d="M133.22 71.6464V72.2064H131.098V71.6464H133.22Z" fill="#2E353A"/>
<path d="M135.886 71.6464V72.2064H133.78V71.6464H135.886Z" fill="#2E353A"/>
<path d="M138.528 71.6464V72.2064H136.4V71.6464H138.528Z" fill="#2E353A"/>
<path d="M148.463 71.6464V72.2064H146.341V71.6464H148.463Z" fill="#2E353A"/>
<path d="M151.107 71.6464V72.2064H148.979V71.6464H151.107Z" fill="#2E353A"/>
<path d="M153.749 71.6464V72.2064H151.621V71.6464H153.749Z" fill="#2E353A"/>
<path d="M156.387 71.6464V72.2064H154.265V71.6464H156.387Z" fill="#2E353A"/>
<path d="M159.03 71.6464V72.2064H156.902V71.6464H159.03Z" fill="#2E353A"/>
<path d="M163.493 71.6464V72.2064H161.371V71.6464H163.493Z" fill="#2E353A"/>
<path d="M166.136 71.6464V72.2064H164.02V71.6464H166.136Z" fill="#2E353A"/>
<path d="M168.779 71.6464V72.2064H166.651V71.6464H168.779Z" fill="#2E353A"/>
<path d="M173.243 71.6464V72.2064H171.12V71.6464H173.243Z" fill="#2E353A"/>
<path d="M177.712 71.6464V72.2064H175.584V71.6464H177.712Z" fill="#2E353A"/>
<path d="M213.127 163.682L207.135 186.799L212.802 188.462L213.127 163.682Z" fill="white" stroke="#2E353A" stroke-linecap="round" stroke-linejoin="round"/>
<path d="M215.815 139.25C215.139 138.211 214.892 136.95 215.126 135.733C215.434 133.454 218.184 132.933 218.184 132.933C218.184 132.933 218.783 132.479 220.984 133.314C223.185 134.148 240.203 136.455 251.078 137.928C261.954 139.401 265.476 138.449 265.325 142.184C265.174 145.919 255.631 179.441 255.486 180.494C255.34 181.546 215.815 139.25 215.815 139.25Z" fill="white" stroke="#2E353A" stroke-miterlimit="10"/>
<path d="M261.559 145.452L215.811 139.251L208.418 193.783L254.166 199.985L261.559 145.452Z" fill="white" stroke="#2E353A" stroke-linecap="round" stroke-linejoin="round"/>
<path d="M253.055 156.33L255.715 156.694" stroke="#2E353A" stroke-width="0.5" stroke-linecap="round" stroke-linejoin="round"/>
<path d="M236.395 154.073L250.949 156.05" stroke="#2E353A" stroke-width="0.5" stroke-linecap="round" stroke-linejoin="round"/>
<path d="M218.755 151.682L234.289 153.787" stroke="#2E353A" stroke-width="0.5" stroke-linecap="round" stroke-linejoin="round"/>
<path d="M248.889 160.703L255.06 161.543" stroke="#2E353A" stroke-width="0.5" stroke-linecap="round" stroke-linejoin="round"/>
<path d="M218.1 156.531L242.577 159.846" stroke="#2E353A" stroke-width="0.5" stroke-linecap="round" stroke-linejoin="round"/>
<path d="M230.521 163.15L254.405 166.387" stroke="#2E353A" stroke-width="0.5" stroke-linecap="round" stroke-linejoin="round"/>
<path d="M217.438 161.375L228.062 162.82" stroke="#2E353A" stroke-width="0.5" stroke-linecap="round" stroke-linejoin="round"/>
<path d="M238.456 169.165L253.744 171.237" stroke="#2E353A" stroke-width="0.5" stroke-linecap="round" stroke-linejoin="round"/>
<path d="M225.48 167.401L236.703 168.924" stroke="#2E353A" stroke-width="0.5" stroke-linecap="round" stroke-linejoin="round"/>
<path d="M216.783 166.225L223.548 167.143" stroke="#2E353A" stroke-width="0.5" stroke-linecap="round" stroke-linejoin="round"/>
<path d="M247.617 175.342L253.088 176.081" stroke="#2E353A" stroke-width="0.5" stroke-linecap="round" stroke-linejoin="round"/>
<path d="M216.128 171.074L243.938 174.843" stroke="#2E353A" stroke-width="0.5" stroke-linecap="round" stroke-linejoin="round"/>
<path d="M236.966 178.83L252.433 180.93" stroke="#2E353A" stroke-width="0.5" stroke-linecap="round" stroke-linejoin="round"/>
<path d="M215.468 175.918L234.334 178.478" stroke="#2E353A" stroke-width="0.5" stroke-linecap="round" stroke-linejoin="round"/>
<path d="M241.743 184.419L251.773 185.774" stroke="#2E353A" stroke-width="0.5" stroke-linecap="round" stroke-linejoin="round"/>
<path d="M221.403 181.658L239.29 184.083" stroke="#2E353A" stroke-width="0.5" stroke-linecap="round" stroke-linejoin="round"/>
<path d="M214.812 180.768L219.298 181.373" stroke="#2E353A" stroke-width="0.5" stroke-linecap="round" stroke-linejoin="round"/>
<path d="M261.562 145.454C261.562 145.454 262.346 137.85 265.146 140.907" stroke="#2E353A" stroke-linecap="round" stroke-linejoin="round"/>
<path d="M246.05 204.036L245.999 208.869L243.182 204.893L231.876 166.863L234.743 166.006L246.05 204.036Z" fill="white" stroke="#2E353A" stroke-linecap="round" stroke-linejoin="round"/>
<path d="M233.621 167.631L232.057 168.088L243.166 206.177L244.73 205.72L233.621 167.631Z" fill="#D1FF17" stroke="#2E353A" stroke-width="0.5" stroke-linecap="round" stroke-linejoin="round"/>
<path d="M246.049 204.047L243.188 204.898L245.999 208.869L246.049 204.047Z" stroke="#2E353A" stroke-linecap="round" stroke-linejoin="round"/>
<path d="M244.593 206.881L245.998 208.869L246.026 206.455L244.593 206.881Z" fill="#2E353A" stroke="#2E353A" stroke-linecap="round" stroke-linejoin="round"/>
<path d="M232.043 162.176C231.664 162.29 231.345 162.55 231.156 162.898C230.967 163.246 230.924 163.655 231.035 164.035L231.875 166.863L234.742 166.012L233.902 163.184C233.788 162.805 233.529 162.486 233.18 162.297C232.832 162.108 232.423 162.065 232.043 162.176Z" fill="white" stroke="#2E353A" stroke-linecap="round" stroke-linejoin="round"/>
<path d="M232.043 162.176C231.664 162.29 231.345 162.55 231.156 162.898C230.967 163.246 230.924 163.655 231.035 164.035L231.438 165.385L234.3 164.534L233.902 163.184C233.788 162.805 233.529 162.486 233.18 162.297C232.832 162.108 232.423 162.065 232.043 162.176Z" fill="#2E353A" stroke="#2E353A" stroke-linecap="round" stroke-linejoin="round"/>
<path d="M91.024 139.714C90.6656 140.218 90.3128 140.745 89.96 141.299" stroke="white" stroke-linecap="round" stroke-linejoin="round"/>
<path d="M96.8811 132.972C95.3208 134.418 93.8771 135.986 92.5635 137.659" stroke="white" stroke-linecap="round" stroke-linejoin="round"/>
<path d="M90.5256 135.946C88.9956 138.092 87.6094 140.336 86.376 142.666" stroke="white" stroke-linecap="round" stroke-linejoin="round"/>
<path d="M130.022 148.26C129.669 148.764 129.311 149.29 128.958 149.839" stroke="white" stroke-linecap="round" stroke-linejoin="round"/>
<path d="M135.879 141.518C134.322 142.965 132.88 144.532 131.567 146.205" stroke="white" stroke-linecap="round" stroke-linejoin="round"/>
<path d="M129.529 144.48C128 146.638 126.614 148.894 125.38 151.234" stroke="white" stroke-linecap="round" stroke-linejoin="round"/>
<path d="M185.921 134.4C185.411 134.053 184.874 133.706 184.319 133.358" stroke="white" stroke-linecap="round" stroke-linejoin="round"/>
<path d="M192.753 140.157C191.281 138.623 189.691 137.206 187.999 135.918" stroke="white" stroke-linecap="round" stroke-linejoin="round"/>
<path d="M189.685 133.84C187.505 132.343 185.231 130.991 182.875 129.791" stroke="white" stroke-linecap="round" stroke-linejoin="round"/>
<path d="M128.32 169.12C128.029 171.226 127.592 174.16 127.155 175.902" stroke="#2E353A" stroke-linecap="round" stroke-linejoin="round"/>
<path d="M128.644 166.561C128.644 166.561 128.6 166.958 128.516 167.602" stroke="#2E353A" stroke-linecap="round" stroke-linejoin="round"/>
<path d="M130.139 172.536C129.528 174.576 128.78 176.572 127.899 178.511" stroke="#2E353A" stroke-linecap="round" stroke-linejoin="round"/>
<path d="M158.14 175.521C158.14 175.521 158.515 180.376 161.124 182.991" stroke="#2E353A" stroke-linecap="round" stroke-linejoin="round"/>
<path d="M157.765 180.376C157.765 180.376 158.885 183.736 161.125 185.231" stroke="#2E353A" stroke-linecap="round" stroke-linejoin="round"/>
<g style="mix-blend-mode:multiply">
<path d="M81.6992 206.326C81.6992 206.326 84.1856 204.327 84.1856 187.141C84.1856 169.954 87.0472 157.399 90.5752 151.894C94.1032 146.39 97.4016 144.183 98.9472 144.183C100.493 144.183 99.384 146.166 97.1832 149.027C94.9824 151.889 93 153.434 92.1152 156.962C91.2304 160.49 91.236 164.892 92.3392 164.45C93.4424 164.007 95.2008 155.198 96.7408 151.894C98.2808 148.59 102.033 144.402 104.234 142.419C106.434 140.437 111.284 134.49 113.485 136.03C115.686 137.57 114.37 139.776 113.048 140.655C111.726 141.534 106.434 146.815 104.015 150.13C101.596 153.446 100.05 161.806 101.372 162.025C102.694 162.243 106.658 149.912 108.859 147.269C111.06 144.626 119.874 137.351 121.857 137.133C123.839 136.914 124.063 139.994 122.299 141.54C120.535 143.086 114.588 149.688 112.606 153.653C110.623 157.618 109.738 164.892 111.486 163.128C113.233 161.364 116.111 154.095 118.536 151.67C120.961 149.246 128.23 141.54 129.994 142.419C131.758 143.298 131.315 145.505 129.775 147.045C128.235 148.585 122.282 156.962 120.742 161.364C119.202 165.766 117.433 178.108 118.318 176.35C119.202 174.591 122.064 165.553 123.604 161.79C125.144 158.026 128.23 156.285 128.672 158.043C129.114 159.802 128.23 160.686 127.126 164.657C126.023 168.627 126.006 179.217 122.725 185.142C119.443 191.066 106.272 203.745 104.514 208.146C103.24 211.178 101.719 214.1 99.9664 216.882" fill="#D1FF17"/>
</g>
<g style="mix-blend-mode:multiply">
<path d="M204.088 207.816C204.088 207.816 201.54 204.327 201.54 187.141C201.54 169.954 198.673 157.399 195.15 151.894C191.628 146.39 188.318 144.183 186.778 144.183C185.238 144.183 186.336 146.166 188.542 149.027C190.749 151.889 192.725 153.434 193.582 156.962C194.439 160.49 194.467 164.892 193.364 164.45C192.261 164.007 190.502 155.198 188.957 151.894C187.411 148.59 183.67 144.402 181.469 142.419C179.269 140.437 174.419 134.49 172.213 136.03C170.006 137.57 171.333 139.776 172.655 140.655C173.977 141.534 179.263 146.815 181.688 150.13C184.113 153.446 185.653 161.806 184.331 162.025C183.009 162.243 179.061 149.912 176.861 147.28C174.66 144.648 165.84 137.362 163.857 137.144C161.875 136.926 161.657 140.006 163.421 141.551C165.185 143.097 171.132 149.699 173.114 153.664C175.097 157.629 175.976 164.903 174.234 163.139C172.493 161.375 169.609 154.106 167.189 151.682C164.77 149.257 157.496 141.551 155.732 142.43C153.968 143.31 154.41 145.516 155.95 147.056C157.49 148.596 163.443 156.974 164.983 161.375C166.523 165.777 168.287 178.119 167.408 176.361C166.529 174.602 163.661 165.564 162.121 161.801C160.581 158.038 157.496 156.296 157.053 158.054C156.611 159.813 157.496 160.698 158.593 164.668C159.691 168.638 159.713 179.228 163.001 185.153C166.288 191.078 179.084 202.642 180.848 207.049C182.612 211.456 185.804 218.4 185.804 218.4" fill="#D1FF17"/>
</g>
<path d="M80.8594 210.56C80.8594 210.56 84.1634 199.769 84.1634 182.56C84.1634 165.351 87.025 152.818 90.553 147.314C94.081 141.809 97.3794 139.602 98.925 139.602C100.471 139.602 99.3618 141.585 97.161 144.446C94.9602 147.308 92.9778 148.854 92.093 152.376C91.2082 155.898 91.2138 160.311 92.317 159.869C93.4202 159.426 95.1786 150.618 96.7186 147.314C98.2586 144.01 102.011 139.821 104.211 137.838C106.412 135.856 111.262 129.909 113.463 131.449C115.663 132.989 114.347 135.195 113.026 136.074C111.704 136.954 106.412 142.234 103.993 145.55C101.574 148.865 100.028 157.226 101.35 157.444C102.671 157.662 106.636 145.331 108.837 142.682C111.038 140.034 119.852 132.77 121.835 132.552C123.817 132.334 124.041 135.414 122.277 136.959C120.513 138.505 114.566 145.107 112.583 149.072C110.601 153.037 109.716 160.311 111.463 158.547C113.211 156.783 116.089 149.514 118.514 147.09C120.939 144.665 128.207 136.959 129.971 137.838C131.735 138.718 131.293 140.924 129.753 142.464C128.213 144.004 122.26 152.376 120.72 156.783C119.18 161.19 117.411 173.527 118.295 171.763C119.18 169.999 122.042 160.972 123.582 157.203C125.122 153.434 128.207 151.693 128.65 153.457C129.092 155.221 128.207 156.1 127.104 160.065C126.001 164.03 125.984 174.625 122.703 180.555C119.421 186.486 106.619 202.586 104.855 206.993C103.091 211.4 99.1266 221.094 99.1266 221.094" fill="white"/>
<path d="M80.8594 210.56C80.8594 210.56 84.1634 199.769 84.1634 182.56C84.1634 165.351 87.025 152.818 90.553 147.314C94.081 141.809 97.3794 139.602 98.925 139.602C100.471 139.602 99.3618 141.585 97.161 144.446C94.9602 147.308 92.9778 148.854 92.093 152.376C91.2082 155.898 91.2138 160.311 92.317 159.869C93.4202 159.426 95.1786 150.618 96.7186 147.314C98.2586 144.01 102.011 139.821 104.211 137.838C106.412 135.856 111.262 129.909 113.463 131.449C115.663 132.989 114.347 135.195 113.026 136.074C111.704 136.954 106.412 142.234 103.993 145.55C101.574 148.865 100.028 157.226 101.35 157.444C102.671 157.662 106.636 145.331 108.837 142.682C111.038 140.034 119.852 132.77 121.835 132.552C123.817 132.334 124.041 135.414 122.277 136.959C120.513 138.505 114.566 145.107 112.583 149.072C110.601 153.037 109.716 160.311 111.463 158.547C113.211 156.783 116.089 149.514 118.514 147.09C120.939 144.665 128.207 136.959 129.971 137.838C131.735 138.718 131.293 140.924 129.753 142.464C128.213 144.004 122.26 152.376 120.72 156.783C119.18 161.19 117.411 173.527 118.295 171.763C119.18 169.999 122.042 160.972 123.582 157.203C125.122 153.434 128.207 151.693 128.65 153.457C129.092 155.221 128.207 156.1 127.104 160.065C126.001 164.03 125.984 174.625 122.703 180.555C119.421 186.486 106.619 202.586 104.855 206.993C103.091 211.4 99.1266 221.094 99.1266 221.094" stroke="#2E353A" stroke-linecap="round" stroke-linejoin="round"/>
<path d="M204.838 210.56C204.838 210.56 201.534 199.769 201.534 182.56C201.534 165.351 198.667 152.818 195.145 147.314C191.622 141.809 188.313 139.602 186.773 139.602C185.233 139.602 186.33 141.585 188.537 144.446C190.743 147.308 192.72 148.854 193.577 152.376C194.433 155.898 194.461 160.311 193.358 159.869C192.255 159.426 190.497 150.618 188.951 147.314C187.405 144.01 183.665 139.821 181.464 137.838C179.263 135.856 174.413 129.909 172.207 131.449C170.001 132.989 171.328 135.195 172.649 136.074C173.971 136.954 179.257 142.234 181.682 145.55C184.107 148.865 185.647 157.226 184.325 157.444C183.004 157.662 179.039 145.331 176.838 142.682C174.637 140.034 165.817 132.77 163.835 132.552C161.853 132.334 161.634 135.414 163.398 136.959C165.162 138.505 171.109 145.107 173.092 149.072C175.074 153.037 175.953 160.311 174.212 158.547C172.47 156.783 169.586 149.514 167.167 147.09C164.748 144.665 157.473 136.959 155.709 137.838C153.945 138.718 154.388 140.924 155.928 142.464C157.468 144.004 163.421 152.376 164.961 156.783C166.501 161.19 168.265 173.527 167.385 171.763C166.506 169.999 163.639 160.972 162.099 157.203C160.559 153.434 157.473 151.693 157.031 153.457C156.589 155.221 157.473 156.1 158.571 160.065C159.669 164.03 159.691 174.625 162.978 180.555C166.265 186.486 179.061 202.586 180.825 206.993C182.589 211.4 186.554 221.094 186.554 221.094" fill="white"/>
<path d="M204.838 210.56C204.838 210.56 201.534 199.769 201.534 182.56C201.534 165.351 198.667 152.818 195.145 147.314C191.622 141.809 188.313 139.602 186.773 139.602C185.233 139.602 186.33 141.585 188.537 144.446C190.743 147.308 192.72 148.854 193.577 152.376C194.433 155.898 194.461 160.311 193.358 159.869C192.255 159.426 190.497 150.618 188.951 147.314C187.405 144.01 183.665 139.821 181.464 137.838C179.263 135.856 174.413 129.909 172.207 131.449C170.001 132.989 171.328 135.195 172.649 136.074C173.971 136.954 179.257 142.234 181.682 145.55C184.107 148.865 185.647 157.226 184.325 157.444C183.004 157.662 179.039 145.331 176.838 142.682C174.637 140.034 165.817 132.77 163.835 132.552C161.853 132.334 161.634 135.414 163.398 136.959C165.162 138.505 171.109 145.107 173.092 149.072C175.074 153.037 175.953 160.311 174.212 158.547C172.47 156.783 169.586 149.514 167.167 147.09C164.748 144.665 157.473 136.959 155.709 137.838C153.945 138.718 154.388 140.924 155.928 142.464C157.468 144.004 163.421 152.376 164.961 156.783C166.501 161.19 168.265 173.527 167.385 171.763C166.506 169.999 163.639 160.972 162.099 157.203C160.559 153.434 157.473 151.693 157.031 153.457C156.589 155.221 157.473 156.1 158.571 160.065C159.669 164.03 159.691 174.625 162.978 180.555C166.265 186.486 179.061 202.586 180.825 206.993C182.589 211.4 186.554 221.094 186.554 221.094" stroke="#2E353A" stroke-linecap="round" stroke-linejoin="round"/>
<path d="M66.916 244.16H100.516C100.953 242.48 101.502 240.598 102.196 238.56C104.839 230.642 113.396 220.741 113.396 220.741C107.263 215.34 100.057 211.297 92.2504 208.88C79.3704 204.915 69.94 206.08 69.94 206.08C71.676 213.238 71.8669 220.683 70.5 227.92C68.82 236.074 67.7 241.231 66.916 244.16Z" fill="#2E353A" stroke="#2E353A" stroke-linecap="round" stroke-linejoin="round"/>
<path d="M184.964 244.16H219.874C218.754 241.259 216.335 234.959 213.916 228.659C210.612 220.08 211.933 208.533 210.612 208.533C209.29 208.533 194.444 207.542 187.187 209.849C179.929 212.156 171.675 218.758 171.675 218.758C175.411 223.1 178.624 227.867 181.245 232.96C182.93 236.53 184.179 240.291 184.964 244.16Z" fill="#2E353A" stroke="#2E353A" stroke-linecap="round" stroke-linejoin="round"/>
<path d="M87.9045 212.912C87.6637 211.96 84.0797 213.394 84.0797 213.394C84.0797 213.394 85.2781 208.858 83.3685 208.858C81.4589 208.858 81.2181 212.218 81.2181 212.218C81.2181 212.218 77.6341 210.79 77.6341 212.934C77.6341 215.079 80.0197 215.04 80.0197 215.04C80.0197 215.04 77.1525 218.624 79.3029 219.335C81.4533 220.046 82.8813 217.426 82.8813 217.426C82.8813 217.426 84.3149 219.817 86.2413 218.859C88.1677 217.902 86.7173 215.757 86.7173 215.757C86.7173 215.757 88.1397 213.87 87.9045 212.912ZM83.1277 216.496C82.9475 216.456 82.7822 216.366 82.651 216.236C82.5198 216.106 82.4279 215.941 82.3861 215.762C82.3442 215.582 82.354 215.394 82.4143 215.219C82.4746 215.045 82.583 214.891 82.727 214.775C82.871 214.66 83.0447 214.587 83.2282 214.566C83.4116 214.545 83.5973 214.576 83.7639 214.655C83.9304 214.735 84.071 214.86 84.1695 215.017C84.268 215.173 84.3203 215.354 84.3205 215.538C84.2801 215.819 84.1345 216.075 83.9131 216.252C83.6916 216.43 83.4109 216.517 83.1277 216.496ZM93.1573 239.68C92.9165 238.728 89.3325 240.162 89.3325 240.162C89.3325 240.162 90.5309 235.626 88.6157 235.626C86.7005 235.626 86.4709 238.986 86.4709 238.986C86.4709 238.986 82.8869 237.552 82.8869 239.697C82.8869 241.842 85.2781 241.847 85.2781 241.847C85.2781 241.847 82.4109 245.431 84.5613 246.148C86.7117 246.865 88.1397 244.233 88.1397 244.233C88.1397 244.233 89.5733 246.624 91.4997 245.666C93.4261 244.709 91.9757 242.564 91.9757 242.564C91.9757 242.564 93.3925 240.61 93.1573 239.68ZM88.3805 243.264C88.2003 243.224 88.035 243.134 87.9038 243.004C87.7726 242.874 87.6807 242.709 87.6389 242.53C87.597 242.35 87.6068 242.162 87.6671 241.987C87.7274 241.813 87.8358 241.659 87.9798 241.543C88.1238 241.428 88.2975 241.355 88.481 241.334C88.6644 241.313 88.8501 241.344 89.0166 241.423C89.1832 241.503 89.3238 241.628 89.4223 241.785C89.5208 241.941 89.5731 242.122 89.5733 242.306C89.5329 242.585 89.3862 242.838 89.1639 243.011C88.9416 243.184 88.6609 243.265 88.3805 243.236V243.264ZM72.1405 243.264C71.8997 242.306 68.3213 243.74 68.3213 243.74C68.3213 243.74 69.5141 239.204 67.6045 239.204C65.6949 239.204 65.4541 242.564 65.4541 242.564C65.4541 242.564 61.8701 241.13 61.8701 243.281C61.8701 245.431 64.2613 245.431 64.2613 245.431C64.2613 245.431 61.3941 249.01 63.5445 249.726C65.6949 250.443 67.1229 247.817 67.1229 247.817C67.1229 247.817 68.5565 250.202 70.4829 249.25C72.4093 248.298 70.9645 246.148 70.9645 246.148C70.9645 246.148 72.3813 244.188 72.1461 243.236L72.1405 243.264ZM67.3637 246.842C67.1832 246.802 67.0178 246.712 66.8865 246.582C66.7552 246.451 66.6634 246.287 66.6217 246.107C66.5801 245.926 66.5902 245.738 66.651 245.564C66.7118 245.389 66.8207 245.235 66.9652 245.12C67.1097 245.004 67.2839 244.932 67.4677 244.912C67.6514 244.891 67.8372 244.923 68.0036 245.004C68.1701 245.084 68.3103 245.21 68.4081 245.367C68.5059 245.524 68.5574 245.705 68.5565 245.89C68.5148 246.167 68.3684 246.417 68.1474 246.589C67.9265 246.761 67.6479 246.842 67.3693 246.814L67.3637 246.842ZM98.1637 224.638H100.79C102.7 224.638 103.893 226.789 103.893 226.789C99.8381 227.954 98.1693 224.61 98.1693 224.61L98.1637 224.638ZM95.5373 243.264H98.1637C100.073 243.264 101.266 245.414 101.266 245.414C97.2117 246.579 95.5429 243.236 95.5429 243.236L95.5373 243.264ZM72.6221 239.68H75.2485C77.1581 239.68 78.3509 241.83 78.3509 241.83C74.2909 242.995 72.6221 239.68 72.6221 239.68ZM85.3173 222.83L86.8517 224.963C87.9717 226.52 86.9133 228.738 86.9133 228.738C83.5757 226.111 85.3173 222.802 85.3173 222.802V222.83ZM72.1797 229.964L73.3781 227.629C74.2573 225.949 76.7101 225.848 76.7101 225.848C75.8869 230.003 72.1797 229.964 72.1797 229.964Z" fill="white"/>
<path d="M200.358 217.448C200.117 216.496 196.533 217.93 196.533 217.93C196.533 217.93 197.732 213.394 195.822 213.394C193.912 213.394 193.672 216.754 193.672 216.754C193.672 216.754 190.088 215.326 190.088 217.47C190.088 219.615 192.479 219.621 192.479 219.621C192.479 219.621 189.612 223.205 191.762 223.922C193.912 224.638 195.34 222.006 195.34 222.006C195.34 222.006 196.774 224.398 198.7 223.44C200.627 222.482 199.176 220.338 199.176 220.338C199.176 220.338 200.593 218.4 200.358 217.448ZM195.581 221.032C195.401 220.992 195.236 220.902 195.104 220.772C194.973 220.642 194.881 220.477 194.84 220.298C194.798 220.118 194.807 219.93 194.868 219.755C194.928 219.581 195.037 219.427 195.181 219.311C195.325 219.196 195.498 219.123 195.682 219.102C195.865 219.081 196.051 219.112 196.217 219.191C196.384 219.271 196.525 219.396 196.623 219.553C196.721 219.709 196.774 219.89 196.774 220.074C196.74 220.358 196.596 220.618 196.373 220.797C196.15 220.976 195.866 221.06 195.581 221.032ZM211.575 236.074C211.34 235.116 207.756 236.55 207.756 236.55C207.756 236.55 208.948 232.014 207.039 232.014C205.129 232.014 204.894 235.374 204.894 235.374C204.894 235.374 201.31 233.94 201.31 236.09C201.31 238.241 203.696 238.241 203.696 238.241C203.696 238.241 200.834 241.819 202.984 242.536C205.135 243.253 206.563 240.626 206.563 240.626C206.563 240.626 207.996 243.012 209.923 242.06C211.849 241.108 210.399 238.958 210.399 238.958C210.399 238.958 211.816 237.026 211.575 236.074ZM206.804 239.68C206.623 239.64 206.458 239.549 206.326 239.419C206.195 239.289 206.103 239.124 206.062 238.944C206.02 238.764 206.03 238.576 206.091 238.401C206.152 238.227 206.261 238.073 206.405 237.957C206.55 237.842 206.724 237.77 206.908 237.749C207.091 237.729 207.277 237.761 207.444 237.841C207.61 237.922 207.75 238.048 207.848 238.205C207.946 238.362 207.997 238.543 207.996 238.728C207.961 239.011 207.817 239.269 207.594 239.447C207.371 239.625 207.087 239.708 206.804 239.68ZM199.641 243.264C199.4 242.306 195.822 243.74 195.822 243.74C195.822 243.74 197.015 239.204 195.105 239.204C193.196 239.204 192.955 242.564 192.955 242.564C192.955 242.564 189.371 241.13 189.371 243.281C189.371 245.431 191.762 245.431 191.762 245.431C191.762 245.431 188.895 249.01 191.045 249.726C193.196 250.443 194.624 247.817 194.624 247.817C194.624 247.817 196.057 250.202 197.984 249.25C199.91 248.298 198.465 246.148 198.465 246.148C198.465 246.148 199.86 244.188 199.641 243.236V243.264ZM194.864 246.842C194.684 246.802 194.518 246.712 194.387 246.582C194.256 246.451 194.164 246.287 194.122 246.107C194.081 245.926 194.091 245.738 194.152 245.564C194.212 245.389 194.321 245.235 194.466 245.12C194.61 245.004 194.785 244.932 194.968 244.912C195.152 244.891 195.338 244.923 195.504 245.004C195.671 245.084 195.811 245.21 195.909 245.367C196.007 245.524 196.058 245.705 196.057 245.89C196.015 246.168 195.868 246.419 195.646 246.591C195.424 246.764 195.144 246.843 194.864 246.814V246.842ZM210.623 229.174H213.249C215.159 229.174 216.352 231.325 216.352 231.325C212.292 232.49 210.623 229.146 210.623 229.146V229.174ZM182.449 242.76H185.076C186.985 242.76 188.178 244.905 188.178 244.905C184.118 246.103 182.449 242.76 182.449 242.76ZM197.771 227.36L199.305 229.494C200.425 231.05 199.367 233.268 199.367 233.268C196.029 230.647 197.771 227.36 197.771 227.36ZM213.3 240.71L214.828 242.844C215.948 244.395 214.89 246.618 214.89 246.618C211.552 244.014 213.3 240.71 213.3 240.71ZM184.611 234.5L185.809 232.165C186.688 230.485 189.169 230.384 189.169 230.384C188.34 234.539 184.605 234.5 184.605 234.5H184.611Z" fill="white"/>
</svg>
