<svg width="20" height="21" viewBox="0 0 20 21" fill="none" xmlns="http://www.w3.org/2000/svg">
<path d="M9.17192 18H8.00439C5.01668 18 3.52283 18 2.59466 17.0541C1.6665 16.1084 1.6665 14.5861 1.6665 11.5416C1.6665 8.49715 1.6665 6.97491 2.59466 6.02911C3.52283 5.08331 5.01668 5.08331 8.00439 5.08331H11.1733C14.161 5.08331 15.6549 5.08331 16.5831 6.02911C17.2972 6.7568 17.4618 7.82573 17.4998 9.66665" stroke="#FCFCFC" stroke-width="1.5" stroke-linecap="round" stroke-linejoin="round"/>
<path d="M14.5835 18.8333C16.6546 18.8333 18.3335 17.1544 18.3335 15.0833C18.3335 13.0122 16.6546 11.3333 14.5835 11.3333C12.5124 11.3333 10.8335 13.0122 10.8335 15.0833C10.8335 17.1544 12.5124 18.8333 14.5835 18.8333Z" stroke="#FCFCFC" stroke-width="1.5" stroke-linecap="round"/>
<path d="M16.2498 15.5L15.7617 15.9618C15.2061 16.4873 14.9283 16.75 14.5832 16.75M14.5832 16.75C14.238 16.75 13.9603 16.4873 13.4047 15.9618L12.9165 15.5M14.5832 16.75V13.4167" stroke="#FCFCFC" stroke-width="1.5" stroke-linecap="round" stroke-linejoin="round"/>
<path d="M13.3335 5.08335L13.2507 4.8258C12.8382 3.54243 12.6319 2.90075 12.1409 2.53371C11.6498 2.16669 10.9977 2.16669 9.69316 2.16669H9.47383C8.16936 2.16669 7.51713 2.16669 7.02609 2.53371C6.53505 2.90075 6.3288 3.54243 5.91628 4.8258L5.8335 5.08335" stroke="#FCFCFC" stroke-width="1.5" stroke-linecap="round" stroke-linejoin="round"/>
</svg>
